<svg id="delivery" xmlns="http://www.w3.org/2000/svg" width="18.366" height="12.733" viewBox="0 0 18.366 12.733">
  <g id="Group_2803" data-name="Group 2803" transform="translate(11.556 8.103)">
    <g id="Group_2802" data-name="Group 2802" transform="translate(0 0)">
      <path id="Path_13099" data-name="Path 13099" d="M324.466,304.4a2.315,2.315,0,1,0,2.315,2.315A2.318,2.318,0,0,0,324.466,304.4Zm0,3.473a1.158,1.158,0,1,1,1.158-1.158A1.159,1.159,0,0,1,324.466,307.876Z" transform="translate(-322.151 -304.403)" fill="#f99f36"/>
    </g>
  </g>
  <g id="Group_2805" data-name="Group 2805" transform="translate(3.646 8.103)">
    <g id="Group_2804" data-name="Group 2804" transform="translate(0 0)">
      <path id="Path_13100" data-name="Path 13100" d="M103.962,304.4a2.315,2.315,0,1,0,2.315,2.315A2.318,2.318,0,0,0,103.962,304.4Zm0,3.473a1.158,1.158,0,1,1,1.158-1.158A1.159,1.159,0,0,1,103.962,307.876Z" transform="translate(-101.647 -304.403)" fill="#f99f36"/>
    </g>
  </g>
  <g id="Group_2807" data-name="Group 2807" transform="translate(11.865 1.158)">
    <g id="Group_2806" data-name="Group 2806" transform="translate(0 0)">
      <path id="Path_13101" data-name="Path 13101" d="M334.321,111.109a.579.579,0,0,0-.517-.319h-3.048v1.158h2.691l1.576,3.135,1.034-.52Z" transform="translate(-330.756 -110.79)" fill="#f99f36"/>
    </g>
  </g>
  <g id="Group_2809" data-name="Group 2809" transform="translate(7.755 9.858)">
    <g id="Group_2808" data-name="Group 2808" transform="translate(0 0)">
      <rect id="Rectangle_857" data-name="Rectangle 857" width="4.379" height="1.158" fill="#f99f36"/>
    </g>
  </g>
  <g id="Group_2811" data-name="Group 2811" transform="translate(1.64 9.858)">
    <g id="Group_2810" data-name="Group 2810" transform="translate(0 0)">
      <path id="Path_13102" data-name="Path 13102" d="M48.3,353.345H46.294a.579.579,0,1,0,0,1.157H48.3a.579.579,0,1,0,0-1.157Z" transform="translate(-45.715 -353.345)" fill="#f99f36"/>
    </g>
  </g>
  <g id="Group_2813" data-name="Group 2813" transform="translate(1.64 0)">
    <g id="Group_2812" data-name="Group 2812">
      <path id="Path_13103" data-name="Path 13103" d="M62.32,84.841l-1.138-1.466a.578.578,0,0,0-.457-.224H56.519V79.1a.579.579,0,0,0-.579-.579H46.294a.579.579,0,0,0,0,1.158h9.067V83.73a.579.579,0,0,0,.579.579h4.5l.843,1.086v2.985h-1.6a.579.579,0,1,0,0,1.157h2.18a.579.579,0,0,0,.579-.579V85.2A.58.58,0,0,0,62.32,84.841Z" transform="translate(-45.715 -78.521)" fill="#f99f36"/>
    </g>
  </g>
  <g id="Group_2815" data-name="Group 2815" transform="translate(0.945 6.926)">
    <g id="Group_2814" data-name="Group 2814" transform="translate(0 0)">
      <path id="Path_13104" data-name="Path 13104" d="M29.594,271.6H26.932a.579.579,0,0,0,0,1.158h2.662a.579.579,0,0,0,0-1.158Z" transform="translate(-26.353 -271.597)" fill="#f99f36"/>
    </g>
  </g>
  <g id="Group_2817" data-name="Group 2817" transform="translate(0 4.649)">
    <g id="Group_2816" data-name="Group 2816" transform="translate(0 0)">
      <path id="Path_13105" data-name="Path 13105" d="M5.518,208.134H.579a.579.579,0,0,0,0,1.158H5.518a.579.579,0,0,0,0-1.158Z" transform="translate(0 -208.134)" fill="#f99f36"/>
    </g>
  </g>
  <g id="Group_2819" data-name="Group 2819" transform="translate(0.945 2.373)">
    <g id="Group_2818" data-name="Group 2818" transform="translate(0 0)">
      <path id="Path_13106" data-name="Path 13106" d="M31.871,144.672H26.932a.579.579,0,0,0,0,1.158h4.939a.579.579,0,0,0,0-1.158Z" transform="translate(-26.353 -144.672)" fill="#f99f36"/>
    </g>
  </g>
</svg>
