<svg id="exchange" xmlns="http://www.w3.org/2000/svg" width="19.103" height="19.103" viewBox="0 0 19.103 19.103">
  <path id="Path_13107" data-name="Path 13107" d="M18.911,4.632,11.471.547a.373.373,0,0,0-.359,0l-2.8,1.54a.374.374,0,0,0-.16.088L3.672,4.632a.373.373,0,0,0-.194.327V9.9A4.97,4.97,0,0,0,.505,16.818a.373.373,0,0,0,.67-.328,4.218,4.218,0,1,1,1.939,1.939.373.373,0,0,0-.327.67A4.974,4.974,0,0,0,9.5,16.659l1.608.883a.373.373,0,0,0,.359,0l7.44-4.085a.373.373,0,0,0,.194-.327V10.537a.373.373,0,1,0-.746,0v2.372l-6.693,3.675V9.264l2.209-1.213V9.974a.373.373,0,0,0,.553.327l1.594-.878a.373.373,0,0,0,.193-.327V6.766l2.143-1.177V7.552a.373.373,0,1,0,.746,0V4.959a.373.373,0,0,0-.194-.327ZM11.291,1.3l6.665,3.66-2.1,1.154L9.189,2.454Zm0,7.319L4.627,4.959l2.179-1.2,6.665,3.66ZM14.246,7,7.581,3.337l.832-.457,6.665,3.66ZM8.477,11.128a4.932,4.932,0,0,0-3.51-1.454,5.032,5.032,0,0,0-.742.055V5.589l6.695,3.676v7.319l-1.162-.638a4.988,4.988,0,0,0,.174-1.309,4.932,4.932,0,0,0-1.454-3.51Zm6.991-2.252-.848.467v-1.7l.848-.466Zm0,0" transform="translate(-0.001 -0.501)" fill="#f99f36"/>
  <path id="Path_13108" data-name="Path 13108" d="M492.373,219.441a.373.373,0,1,0,.264.109A.376.376,0,0,0,492.373,219.441Zm0,0" transform="translate(-473.643 -211.272)" fill="#f99f36"/>
  <path id="Path_13109" data-name="Path 13109" d="M66.728,323.958a.373.373,0,0,0,.264-.637l-.258-.259h2.205a.97.97,0,1,1,0,1.94H67.632a.373.373,0,1,0,0,.746h1.307a1.716,1.716,0,1,0,0-3.432H66.734l.258-.259a.373.373,0,0,0-.528-.528l-.9.9a.373.373,0,0,0,0,.528l.9.9A.372.372,0,0,0,66.728,323.958Zm0,0" transform="translate(-63.018 -309.447)" fill="#f99f36"/>
  <path id="Path_13110" data-name="Path 13110" d="M36.441,457.179a.371.371,0,0,1-.285-.133h0a.373.373,0,1,1,.286.134Zm0,0" transform="translate(-34.722 -439.421)" fill="#f99f36"/>
</svg>
