<?xml version="1.0" encoding="utf-8"?>
<!-- Generator: Adobe Illustrator 24.1.3, SVG Export Plug-In . SVG Version: 6.00 Build 0)  -->
<svg version="1.1" id="Layer_1" xmlns="http://www.w3.org/2000/svg" xmlns:xlink="http://www.w3.org/1999/xlink" x="0px" y="0px"
	 viewBox="0 0 18.5 18.5" style="enable-background:new 0 0 18.5 18.5;" xml:space="preserve">
<style type="text/css">
	.st0{fill:#F2F2F2;}
	.st1{fill:#515151;}
	.st2{fill:#040B37;}
	.st3{fill-rule:evenodd;clip-rule:evenodd;fill:#FFFFFF;}
	.st4{fill:#FFFFFF;}
	.st5{opacity:0.22;fill:none;stroke:#FFFFFF;stroke-width:2;stroke-miterlimit:10;}
	.st6{clip-path:url(#SVGID_2_);fill:#FFFFFF;}
	.st7{clip-path:url(#SVGID_2_);fill:#E30520;stroke:#000000;stroke-width:3.671543e-02;}
	.st8{clip-path:url(#SVGID_2_);stroke:#000000;stroke-width:3.671543e-02;}
	.st9{clip-path:url(#SVGID_2_);fill:#FFFFFF;stroke:#FFD039;stroke-width:1.835771e-02;stroke-linecap:round;}
	.st10{clip-path:url(#SVGID_2_);fill:#FFD039;}
	.st11{clip-path:url(#SVGID_2_);fill:none;stroke:#FFD039;stroke-width:1.835771e-02;stroke-linecap:round;stroke-linejoin:round;}
	.st12{clip-path:url(#SVGID_2_);fill:none;stroke:#FFD039;stroke-width:1.835771e-02;stroke-linecap:round;}
	.st13{clip-path:url(#SVGID_2_);fill:#FFD039;stroke:#FFD039;stroke-width:1.835771e-02;stroke-linecap:round;}
	.st14{clip-path:url(#SVGID_2_);}
	.st15{fill:none;stroke:#FFD039;stroke-width:1.835771e-02;stroke-linecap:round;}
	.st16{fill:#FFFFFF;stroke:#FFD039;stroke-width:1.835771e-02;stroke-linecap:round;}
	.st17{fill:#F99F36;}
	.st18{fill:none;stroke:#D2D2D2;stroke-miterlimit:10;}
	.st19{fill:#D2D2D2;}
	.st20{fill:none;stroke:#FFFFFF;stroke-width:1.3048;stroke-linecap:round;stroke-linejoin:round;stroke-miterlimit:10;}
	.st21{opacity:0.5;fill:#040B37;}
	.st22{fill:#E6007E;}
	.st23{fill:none;stroke:#F99F36;stroke-miterlimit:10;}
	.st24{clip-path:url(#SVGID_28_);fill:#E6007E;}
	.st25{clip-path:url(#SVGID_30_);fill:#FFFFFF;}
	.st26{opacity:0.5;clip-path:url(#SVGID_36_);fill:#040B37;}
	.st27{clip-path:url(#SVGID_36_);fill:#FFC805;}
	.st28{fill:#D40B6B;}
	.st29{fill:#BD1328;}
	.st30{fill:#707070;}
	.st31{clip-path:url(#SVGID_48_);fill:#FFFFFF;}
	.st32{clip-path:url(#SVGID_50_);fill:#FFFFFF;}
	.st33{clip-path:url(#SVGID_52_);fill:#FFFFFF;}
	.st34{fill:none;stroke:#FFFFFF;stroke-width:2;stroke-linecap:round;stroke-linejoin:round;stroke-miterlimit:10;}
	.st35{fill:none;stroke:#040B37;stroke-miterlimit:10;}
	.st36{fill:#8190FF;}
	.st37{fill:#D4D4D4;}
	.st38{fill:none;stroke:#B1B1B1;stroke-miterlimit:10;}
	.st39{fill:#757575;}
	.st40{fill:none;stroke:#F99F36;stroke-width:3;stroke-miterlimit:10;}
	.st41{fill:none;stroke:#858287;stroke-miterlimit:10;}
	.st42{fill:none;stroke:#B1B1B1;stroke-width:0.7126;stroke-miterlimit:10;}
	.st43{fill:#D3D3D3;}
	.st44{opacity:0.65;fill:#040B37;}
	.st45{fill:none;stroke:#858287;stroke-width:1.1503;stroke-miterlimit:10;}
</style>
<g>
	<path class="st4" d="M9.3,2.9c-1.1,0-2,0.9-2,2v1H5.4L5,14.2h8.6l-0.4-8.2h-1.8v-1C11.3,3.8,10.4,2.9,9.3,2.9L9.3,2.9z M9.3,4
		c0.5,0,0.9,0.4,0.9,0.9v1H8.3v-1C8.3,4.4,8.8,4,9.3,4z M7.6,10.6V9.5h3.4v1.1H7.6z"/>
	<path class="st4" d="M17.3,4.6l1.1,0.2l0.2-1.1l-3.4-0.6l-0.6,3.4l1.1,0.2l0.2-1.1c0.6,1.1,0.9,2.3,0.9,3.6c0,4.1-3.3,7.5-7.5,7.5
		s-7.5-3.3-7.5-7.5s3.3-7.5,7.5-7.5c1.4,0,2.8,0.4,4,1.2l1-1.5c-1.5-1-3.2-1.5-5-1.5C6.8,0,4.5,1,2.7,2.7C1,4.5,0,6.8,0,9.3
		s1,4.8,2.7,6.6c1.7,1.7,4.1,2.7,6.6,2.7s4.8-1,6.6-2.7c1.7-1.7,2.7-4.1,2.7-6.6C18.5,7.6,18.1,6,17.3,4.6L17.3,4.6z"/>
</g>
</svg>
