<?xml version="1.0" encoding="utf-8"?>
<!-- Generator: Adobe Illustrator 24.1.3, SVG Export Plug-In . SVG Version: 6.00 Build 0)  -->
<svg version="1.1" id="Layer_1" xmlns="http://www.w3.org/2000/svg" xmlns:xlink="http://www.w3.org/1999/xlink" x="0px" y="0px"
	 viewBox="0 0 21.4 21.7" style="enable-background:new 0 0 21.4 21.7;" xml:space="preserve">
<style type="text/css">
	.st0{fill:#F2F2F2;}
	.st1{fill:#515151;}
	.st2{fill:#040B37;}
	.st3{fill-rule:evenodd;clip-rule:evenodd;fill:#FFFFFF;}
	.st4{fill:#FFFFFF;}
	.st5{opacity:0.22;fill:none;stroke:#FFFFFF;stroke-width:2;stroke-miterlimit:10;}
	.st6{clip-path:url(#SVGID_2_);fill:#FFFFFF;}
	.st7{clip-path:url(#SVGID_2_);fill:#E30520;stroke:#000000;stroke-width:3.671543e-02;}
	.st8{clip-path:url(#SVGID_2_);stroke:#000000;stroke-width:3.671543e-02;}
	.st9{clip-path:url(#SVGID_2_);fill:#FFFFFF;stroke:#FFD039;stroke-width:1.835771e-02;stroke-linecap:round;}
	.st10{clip-path:url(#SVGID_2_);fill:#FFD039;}
	.st11{clip-path:url(#SVGID_2_);fill:none;stroke:#FFD039;stroke-width:1.835771e-02;stroke-linecap:round;stroke-linejoin:round;}
	.st12{clip-path:url(#SVGID_2_);fill:none;stroke:#FFD039;stroke-width:1.835771e-02;stroke-linecap:round;}
	.st13{clip-path:url(#SVGID_2_);fill:#FFD039;stroke:#FFD039;stroke-width:1.835771e-02;stroke-linecap:round;}
	.st14{clip-path:url(#SVGID_2_);}
	.st15{fill:none;stroke:#FFD039;stroke-width:1.835771e-02;stroke-linecap:round;}
	.st16{fill:#FFFFFF;stroke:#FFD039;stroke-width:1.835771e-02;stroke-linecap:round;}
	.st17{fill:#F99F36;}
	.st18{fill:none;stroke:#D2D2D2;stroke-miterlimit:10;}
	.st19{fill:#D2D2D2;}
	.st20{fill:none;stroke:#FFFFFF;stroke-width:1.3048;stroke-linecap:round;stroke-linejoin:round;stroke-miterlimit:10;}
	.st21{opacity:0.5;fill:#040B37;}
	.st22{fill:#E6007E;}
	.st23{fill:none;stroke:#F99F36;stroke-miterlimit:10;}
	.st24{clip-path:url(#SVGID_28_);fill:#E6007E;}
	.st25{clip-path:url(#SVGID_30_);fill:#FFFFFF;}
	.st26{opacity:0.5;clip-path:url(#SVGID_36_);fill:#040B37;}
	.st27{clip-path:url(#SVGID_36_);fill:#FFC805;}
	.st28{fill:#D40B6B;}
	.st29{fill:#BD1328;}
	.st30{fill:#707070;}
	.st31{clip-path:url(#SVGID_48_);fill:#FFFFFF;}
	.st32{clip-path:url(#SVGID_50_);fill:#FFFFFF;}
	.st33{clip-path:url(#SVGID_52_);fill:#FFFFFF;}
	.st34{fill:none;stroke:#FFFFFF;stroke-width:2;stroke-linecap:round;stroke-linejoin:round;stroke-miterlimit:10;}
	.st35{fill:none;stroke:#040B37;stroke-miterlimit:10;}
	.st36{fill:#8190FF;}
	.st37{fill:#D4D4D4;}
	.st38{fill:none;stroke:#B1B1B1;stroke-miterlimit:10;}
	.st39{fill:#757575;}
	.st40{fill:none;stroke:#F99F36;stroke-width:3;stroke-miterlimit:10;}
	.st41{fill:none;stroke:#858287;stroke-miterlimit:10;}
	.st42{fill:none;stroke:#B1B1B1;stroke-width:0.7126;stroke-miterlimit:10;}
	.st43{fill:#D3D3D3;}
	.st44{opacity:0.65;fill:#040B37;}
	.st45{fill:none;stroke:#858287;stroke-width:1.1503;stroke-miterlimit:10;}
</style>
<g>
	<path class="st4" d="M12.8,10.7c3,0,5.4-2.4,5.4-5.4S15.7,0,12.8,0S7.4,2.4,7.4,5.4S9.8,10.7,12.8,10.7z M12.2,2.2V2.1
		c0-0.4,0.3-0.6,0.6-0.6c0.4,0,0.6,0.3,0.6,0.6v0.1c0.8,0.2,1.3,0.8,1.3,1.6c0,0.4-0.3,0.6-0.6,0.6c-0.4,0-0.6-0.3-0.6-0.6
		c0-0.2-0.2-0.4-0.4-0.4h-0.6c-0.2,0-0.4,0.2-0.4,0.4c0,0.1,0.1,0.3,0.2,0.3l0.5,0.4l1.3,1c0.4,0.3,0.7,0.8,0.7,1.3v0
		c0,0.4-0.2,0.9-0.5,1.2c-0.2,0.2-0.5,0.4-0.8,0.5v0.1c0,0.4-0.3,0.6-0.6,0.6c-0.4,0-0.6-0.3-0.6-0.6V8.5c-0.3-0.1-0.6-0.2-0.8-0.4
		c-0.3-0.3-0.5-0.7-0.5-1.2c0-0.4,0.3-0.6,0.6-0.6h0c0.3,0,0.6,0.3,0.6,0.6c0,0.2,0.2,0.4,0.4,0.4c0.4,0,0.2,0,0.6,0
		c0.2,0,0.4-0.2,0.4-0.4v0c0-0.1-0.1-0.2-0.2-0.3l-0.5-0.4l-1.3-1c-0.4-0.3-0.7-0.8-0.7-1.3C10.8,3,11.4,2.4,12.2,2.2z"/>
	<path class="st4" d="M4.1,13.8c-0.2-0.3-0.5-0.4-0.8-0.2l-3,1.7c-0.3,0.2-0.4,0.5-0.2,0.8l3.1,5.3c0.2,0.3,0.5,0.4,0.8,0.2l3-1.7
		c0.3-0.2,0.4-0.5,0.2-0.8L4.1,13.8z"/>
	<path class="st4" d="M21.2,12.7c-0.3-0.4-0.8-0.5-1.2-0.2c-1.2,0.9-3.5,2.5-3.7,2.7c-0.1,0.1-0.2,0.1-0.3,0.2
		c-0.4,0.2-0.8,0.4-1.2,0.4h-3c-0.4,0-0.6-0.3-0.6-0.6c0-0.4,0.3-0.6,0.6-0.6H15c0.5,0,0.9-0.4,0.8-0.9c0-0.5-0.4-0.8-0.9-0.8h-2.5
		c-0.2-0.2-0.4-0.3-0.5-0.5c-0.7-0.5-1.5-0.8-2.4-0.8c-1.6,0-3.2,1-3.9,2.4l2.6,4.5h4.9c1,0,1.9-0.2,2.7-0.7
		c0.3-0.2,0.6-0.4,0.9-0.6c1.4-1,4.3-3.1,4.3-3.1C21.4,13.7,21.5,13.1,21.2,12.7L21.2,12.7z"/>
</g>
</svg>
