<svg id="Group_3235" data-name="Group 3235" xmlns="http://www.w3.org/2000/svg" width="14.69" height="14.69" viewBox="0 0 14.69 14.69">
  <path id="Path_13098" data-name="Path 13098" d="M1244.824-237.719a1.4,1.4,0,0,0-1.4,1.4v1.062h-1.511L1241.57-229h6.509l-.342-6.256h-1.51v-1.062A1.4,1.4,0,0,0,1244.824-237.719Zm-1,1.4a1,1,0,0,1,1-1,1,1,0,0,1,1,1v1.062h-2Zm2.619,3.5v1.377h-3.234v-1.377Z" transform="translate(-1237.479 240.121)" fill="#f99f36"/>
  <path id="Path_13099" data-name="Path 13099" d="M1237.432-239.262a7.3,7.3,0,0,0-2.152,5.194,7.3,7.3,0,0,0,2.152,5.194,7.3,7.3,0,0,0,5.193,2.151,7.3,7.3,0,0,0,5.194-2.151,7.3,7.3,0,0,0,2.151-5.194,7.37,7.37,0,0,0-.988-3.678l-.261-.452,1.135.2.069-.4-2.293-.4-.4,2.293.4.07.229-1.3.334.6a6.248,6.248,0,0,1,.787,3.068,6.358,6.358,0,0,1-6.351,6.351,6.359,6.359,0,0,1-6.351-6.351,6.359,6.359,0,0,1,6.351-6.351,6.331,6.331,0,0,1,3.231.882l.539-.836a7.316,7.316,0,0,0-3.77-1.04A7.293,7.293,0,0,0,1237.432-239.262Z" transform="translate(-1235.28 241.413)" fill="#f99f36"/>
</svg>
