<svg xmlns="http://www.w3.org/2000/svg" width="39.732" height="39.705" viewBox="0 0 39.732 39.705"><path d="M321.231,6233.662c-.076-.1-.157-.278-.227-.274a9.4,9.4,0,0,1-3.751-1.026,14.7,14.7,0,0,1-3.883-2.082,21.918,21.918,0,0,1-4.075-3.712,37.831,37.831,0,0,1-2.344-3.369,13.563,13.563,0,0,1-1.245-3.211,15.117,15.117,0,0,1-.88-5.532,15.85,15.85,0,0,0,0-1.724,16.436,16.436,0,0,1,1.576-6.967,19.219,19.219,0,0,1,2.719-4.487,16.978,16.978,0,0,1,1.755-1.993,27.721,27.721,0,0,1,3.748-2.741,26.177,26.177,0,0,1,5.257-2.228,5.382,5.382,0,0,1,.975-.083c.137-.024.249-.18.373-.276h6.905c.076.1.171.284.224.274a3.355,3.355,0,0,1,1.749.313,21.492,21.492,0,0,1,7.971,4.345,17.964,17.964,0,0,1,4.432,5.921,11.791,11.791,0,0,1,1.448,4.144c.516.335-.015,1.1.576,1.4v6.905c-.1.076-.277.153-.275.227.028,1.3-.763,2.4-.884,3.666-1.631,3-3.176,6.017-6.057,8.128a24.851,24.851,0,0,1-5.207,3.073,8.691,8.691,0,0,1-3.75,1.03c-.071,0-.151.179-.227.274Zm20.736-19.769a16.166,16.166,0,0,0-2.364-8.811,17.324,17.324,0,0,0-13.912-8.524,16.99,16.99,0,0,0-12.323,4.257A17.226,17.226,0,1,0,336.1,6226.7,17.088,17.088,0,0,0,341.967,6213.893Zm-35.985-.429c0,.574.012.911,0,1.246a14.392,14.392,0,0,0,.531,3.655,27.478,27.478,0,0,0,.891,2.658,14.881,14.881,0,0,0,2.577,4.4c.422.549.906,1.07,1.364,1.569.479.523,1.122.958,1.665,1.466a8.988,8.988,0,0,0,.756.6,18.459,18.459,0,0,0,4.1,2.258,14.229,14.229,0,0,0,4.542,1.139,21.4,21.4,0,0,0,5.638-.189,18.188,18.188,0,0,0,5.05-1.712,34.352,34.352,0,0,0,3.747-2.461,15.457,15.457,0,0,0,3.033-3.242,14.741,14.741,0,0,0,2.233-4.092,16.83,16.83,0,0,0,1.264-5.65,17.174,17.174,0,0,0-.247-4.777c-.191-.686-.305-1.4-.535-2.083a18.843,18.843,0,0,0-1.745-3.887,14.716,14.716,0,0,0-2.224-2.957c-.2-.2-.3-.248-.524-.018-.2.206-.1.291.049.418a12.725,12.725,0,0,1,2.655,3.788,19.786,19.786,0,0,1,2,7.508,9.078,9.078,0,0,1,0,1.725c-.045.539-.26,1.072-.258,1.607a9.526,9.526,0,0,1-.457,2.264,17.763,17.763,0,0,1-1.721,4.031,13.816,13.816,0,0,1-.715,1.284,20.441,20.441,0,0,1-2.948,3.237,15.639,15.639,0,0,1-5.469,3.456,27.885,27.885,0,0,1-5.1,1.214,9.566,9.566,0,0,1-1.867.014,5.029,5.029,0,0,1-1.911-.244,12.611,12.611,0,0,0-1.742-.292,16.317,16.317,0,0,1-6.218-2.708,15.621,15.621,0,0,1-3.562-3.207,20.6,20.6,0,0,1-3.012-5.094,22.215,22.215,0,0,1-1.257-6.525,21.235,21.235,0,0,1,.228-2.332,19.863,19.863,0,0,1,.636-3.062,15.15,15.15,0,0,1,3.978-6.833,26.269,26.269,0,0,1,2.807-2.571c.988-.728,2.11-1.2,3.127-1.867.478-.313,1.172-.334,1.75-.619.508-.25,1.246-.078,1.7-.372.658-.423,1.358.016,1.908-.267a5.323,5.323,0,0,1,1.909-.264,17.24,17.24,0,0,1,2.758.286,8.419,8.419,0,0,1,2.249.481,15.062,15.062,0,0,1,4.637,2.012,11.692,11.692,0,0,1,1.987,1.441,7.962,7.962,0,0,0,.731.67.263.263,0,0,0,.256-.035c.069-.108.154-.321.107-.37a8.4,8.4,0,0,0-1.643-1.575,32.661,32.661,0,0,0-4.1-2.241,15.615,15.615,0,0,0-4.525-1.17,21.638,21.638,0,0,0-5.638.163,22.989,22.989,0,0,0-5.081,1.65,19.634,19.634,0,0,0-4.787,3.358,19.116,19.116,0,0,0-1.339,1.592,16.2,16.2,0,0,0-3.375,6.081A13.947,13.947,0,0,0,305.982,6213.464Z" transform="translate(-304.804 -6193.957)" fill="#040b37"/><path d="M324.7,6229.122a6.108,6.108,0,0,1-3.915-1.625,24.985,24.985,0,0,1-5.587-8.193,22.271,22.271,0,0,1-1.229-3.653,9.548,9.548,0,0,1-.023-3.572,4.11,4.11,0,0,1,.906-1.623,10.22,10.22,0,0,1,.9-.926,3.106,3.106,0,0,1,2.658-.871c.539.03,1.182.92,1.247,1.637.1,1.063.174,2.128.292,3.189.151,1.363,0,1.645-1.133,2.081a.542.542,0,0,0-.3.347,1.492,1.492,0,0,0,.04.695,30.352,30.352,0,0,0,2.945,5.539c.178.223.415.4.6.615.26.3.454.361.812.061a1.279,1.279,0,0,1,1.848.01c.482.355.942.741,1.409,1.116.5.4,1.025.791,1.5,1.225a1.671,1.671,0,0,1,.19,2.448A4.376,4.376,0,0,1,324.7,6229.122Z" transform="translate(-306.401 -6196.566)" fill="#040b37"/><path d="M323.629,6210.659a5.1,5.1,0,0,0-.589-2.87.651.651,0,0,1,.289-.863,10.686,10.686,0,0,1,1.931-1.239,10.431,10.431,0,0,1,4.233-.916,10.908,10.908,0,0,1,5.149,1.471,9.5,9.5,0,0,1,3.737,4.3,6.288,6.288,0,0,1,.757,3.284,3.968,3.968,0,0,0,0,.861,8.323,8.323,0,0,1-1.147,4.7,10.4,10.4,0,0,1-3.407,3.548c-.675.482-1.493.587-2.165,1.05-.247.169-.55.222-.826-.318a2.439,2.439,0,0,0-1.544-1.363c-.118-.027-.229-.179-.3-.3a.754.754,0,0,1-.1-.385c0-.049.138-.133.216-.138.5-.028,1.033.1,1.462-.293.994.186,1.642-.545,2.293-1.029A7.39,7.39,0,0,0,335.6,6218a6.587,6.587,0,0,0,.886-3.066,6.381,6.381,0,0,0-1.829-4.968,19.2,19.2,0,0,0-1.584-1.354,5.883,5.883,0,0,0-2.648-.915,5.946,5.946,0,0,0-1.72-.01,6.713,6.713,0,0,0-1.6.292,6.1,6.1,0,0,0-2.056,1.275C324.588,6209.658,324.173,6210.115,323.629,6210.659Z" transform="translate(-308.031 -6195.877)" fill="#040b37"/><path d="M327.752,6217.48a1.526,1.526,0,0,1,1.872.516c.274.379.021,1.077-.437,1.093-1.147.042-2.3.031-3.446,0a.7.7,0,0,1-.6-.911,4.415,4.415,0,0,1,.749-1.122c.614-.669,1.272-1.3,1.923-1.935a.6.6,0,0,0,.067-.873c-.095-.122-.185-.474-.507-.152a4.624,4.624,0,0,1-.992.714.668.668,0,0,1-.978-.494,1.456,1.456,0,0,1,.756-1.54,2.614,2.614,0,0,1,2.159-.243,2.325,2.325,0,0,1,1.318,1.215,2.109,2.109,0,0,1-.372,2.208C328.885,6216.392,328.456,6216.777,327.752,6217.48Z" transform="translate(-308.409 -6197.236)" fill="#040b37"/><path d="M335.044,6214.745c0,.43-.016.862.008,1.29.009.164.075.436.174.465.709.215.438.752.288,1.092a4.552,4.552,0,0,1-.892,1.2c-.547.584-1.083.443-1.28-.376-.082-.342-.127-.493-.5-.471a10.718,10.718,0,0,1-1.433,0,.653.653,0,0,1-.68-.711,1.855,1.855,0,0,1,.375-1.289c.815-1.015,1.484-2.148,2.215-3.23a1.606,1.606,0,0,1,1.278-.211,1.092,1.092,0,0,1,.428.664A12.873,12.873,0,0,1,335.044,6214.745Zm-1.9,1.528a2.03,2.03,0,0,0,.16-.4c.012-.062-.085-.144-.132-.216l-.38.483Z" transform="translate(-309.41 -6197.241)" fill="#040b37"/></svg>