<svg xmlns="http://www.w3.org/2000/svg" width="1260.082" height="105.354" viewBox="0 0 1260.082 105.354">
  <g id="Group_436" data-name="Group 436" transform="translate(0.041 0.498)">
    <rect id="Rectangle_149" data-name="Rectangle 149" width="1260" height="104.358" fill="#d4d4d4"/>
    <line id="Line_43" data-name="Line 43" x2="1260" y2="104.358" fill="none" stroke="#b1b1b1" stroke-miterlimit="10" stroke-width="1"/>
    <line id="Line_44" data-name="Line 44" x1="1260" y2="104.358" fill="none" stroke="#b1b1b1" stroke-miterlimit="10" stroke-width="1"/>
    <g id="Group_259" data-name="Group 259" transform="translate(556.982 72.3)">
      <path id="Path_1746" data-name="Path 1746" d="M885.7,5492.115v1.754h-8.464a8.2,8.2,0,0,1-3.557-.636,3.756,3.756,0,0,1-1.868-2.021,10.119,10.119,0,0,1-.572-3.774,10.793,10.793,0,0,1,.547-3.787,3.791,3.791,0,0,1,1.8-2.084,7.339,7.339,0,0,1,3.394-.661q.939,0,2.884.09t2.937.189v10.929Zm-12.086-1.957a2.786,2.786,0,0,0,1.36,1.487,5.874,5.874,0,0,0,2.593.47h3.278v-9.276q-2.236-.152-3.456-.153a4.116,4.116,0,0,0-3.253,1.093,5.521,5.521,0,0,0-.941,3.609A7.435,7.435,0,0,0,873.614,5490.158Zm1.562-13.5h1.933v2.135h-1.933Zm3.178,0h1.932v2.135h-1.932Z" transform="translate(-871.237 -5475.621)" fill="#757575"/>
      <path id="Path_1747" data-name="Path 1747" d="M898.355,5493.087v1.754h-9.532v-1.754h3.787v-10.955h1.958v10.955Zm-7.346,3.788h1.932v2.134h-1.932Zm3.177,0h1.931v2.134h-1.931Z" transform="translate(-874.361 -5476.593)" fill="#757575"/>
      <path id="Path_1748" data-name="Path 1748" d="M906.157,5481.162v12.708h-5.743v-1.754H904.2v-10.954Zm-1.956-4.5h1.931v2.135H904.2Z" transform="translate(-876.421 -5475.621)" fill="#757575"/>
      <path id="Path_1749" data-name="Path 1749" d="M925.391,5491.89v1.754H911.107v-1.754h3.253v-13.064h1.957v13.064h4.88V5475.4h1.932v16.495Z" transform="translate(-878.32 -5475.396)" fill="#757575"/>
      <path id="Path_1750" data-name="Path 1750" d="M941.872,5493.033v1.754H928.477v-1.754h4.753a6.607,6.607,0,0,1-1.194-2.187,9.1,9.1,0,0,1-.484-3.049,6.5,6.5,0,0,1,1.385-4.321,4.9,4.9,0,0,1,3.978-1.652,9.316,9.316,0,0,1,2.122.267,9.106,9.106,0,0,1,2.072.75l-.077,1.729a5.982,5.982,0,0,0-1.626-.635,8.333,8.333,0,0,0-2.262-.356,3.258,3.258,0,0,0-2.695,1.169,4.927,4.927,0,0,0-.94,3.177,7.233,7.233,0,0,0,.6,2.987,6.142,6.142,0,0,0,1.487,2.122Z" transform="translate(-881.406 -5476.538)" fill="#757575"/>
      <path id="Path_1751" data-name="Path 1751" d="M948.474,5475.4h1.957v18.249h-1.957Z" transform="translate(-884.959 -5475.396)" fill="#757575"/>
      <path id="Path_1752" data-name="Path 1752" d="M976.131,5492.115v1.754h-8.463a8.213,8.213,0,0,1-3.559-.636,3.766,3.766,0,0,1-1.868-2.021,10.138,10.138,0,0,1-.571-3.774,10.8,10.8,0,0,1,.546-3.787,3.8,3.8,0,0,1,1.805-2.084,7.337,7.337,0,0,1,3.394-.661q.94,0,2.885.09t2.934.189v10.929Zm-12.084-1.957a2.784,2.784,0,0,0,1.359,1.487,5.882,5.882,0,0,0,2.594.47h3.279v-9.276q-2.239-.152-3.457-.153a4.118,4.118,0,0,0-3.254,1.093,5.532,5.532,0,0,0-.939,3.609A7.436,7.436,0,0,0,964.047,5490.158Zm1.562-13.5h1.932v2.135H965.61Zm3.177,0h1.932v2.135h-1.932Z" transform="translate(-887.304 -5475.621)" fill="#757575"/>
      <path id="Path_1753" data-name="Path 1753" d="M991.4,5486.17v8.616H979.256v-1.754h10.191v-6.888a2.571,2.571,0,0,0-.66-1.918,2.724,2.724,0,0,0-1.982-.648q-1.145,0-4.525.407l-.712.076-.076-1.449a31.585,31.585,0,0,1,5.744-.788Q991.4,5481.824,991.4,5486.17Z" transform="translate(-890.428 -5476.538)" fill="#757575"/>
      <path id="Path_1754" data-name="Path 1754" d="M1003.011,5491.89v1.754h-4.346V5475.4h1.957v16.495Z" transform="translate(-893.876 -5475.396)" fill="#757575"/>
      <path id="Path_1755" data-name="Path 1755" d="M1025.5,5493.087v1.754h-7.116a4.28,4.28,0,0,1-2.821-1.068,3.026,3.026,0,0,1-2.414,1.068h-9.2v-1.754h4.117V5483.4h1.957v9.683h2.516a1.766,1.766,0,0,0,1.691-1,5.461,5.461,0,0,0,.521-2.529V5483.4h1.957v6.124a9.108,9.108,0,0,1-.356,2.694,3.965,3.965,0,0,0,.965.6,2.794,2.794,0,0,0,1.169.267h2.668v-5.516q0-.965-.14-2.427t-.317-2.936l1.6-.077q.329,1.449.572,3.076a18.593,18.593,0,0,1,.241,2.567v5.312Z" transform="translate(-894.816 -5476.593)" fill="#757575"/>
      <path id="Path_1756" data-name="Path 1756" d="M1043.478,5483.35q1.475,1.524,1.474,5.083v6.354H1030.16v-1.754h4.194a27.99,27.99,0,0,1-.153-7.815,24.242,24.242,0,0,1,.458-2.707,9.28,9.28,0,0,1,1.779-.471,13.641,13.641,0,0,1,2.465-.216A6.1,6.1,0,0,1,1043.478,5483.35Zm-7.408,7.713c.076.822.156,1.478.242,1.97H1043v-4.626a5.2,5.2,0,0,0-1.094-3.711,4.469,4.469,0,0,0-3.329-1.118,8.764,8.764,0,0,0-2.212.254,26.31,26.31,0,0,0-.406,4.752Q1035.955,5489.831,1036.069,5491.063Z" transform="translate(-899.472 -5476.538)" fill="#757575"/>
    </g>
  </g>
</svg>
