<svg xmlns="http://www.w3.org/2000/svg" width="440" height="464.184" viewBox="0 0 440 464.184">
  <g id="empty-address" transform="translate(-565.724 -486.777)">
    <g id="Group_3323" data-name="Group 3323" transform="translate(863.737 814.227)">
      <g id="Group_3322" data-name="Group 3322" transform="translate(0 0)">
        <path id="Path_13533" data-name="Path 13533" d="M853.845,868.087a1.409,1.409,0,0,1-.711-2.627,99.053,99.053,0,0,0,9.171-6.315,1.41,1.41,0,1,1,1.715,2.238,99.791,99.791,0,0,1-9.467,6.512A1.412,1.412,0,0,1,853.845,868.087Zm17.934-13.7a1.409,1.409,0,0,1-.962-2.437,92.185,92.185,0,0,0,7.654-8.05,1.409,1.409,0,0,1,2.161,1.81,95.288,95.288,0,0,1-7.889,8.3A1.4,1.4,0,0,1,871.779,854.384ZM886.1,837.038a1.409,1.409,0,0,1-1.211-2.127,49.186,49.186,0,0,0,4.545-9.945,1.409,1.409,0,0,1,2.684.863,51.991,51.991,0,0,1-4.8,10.518A1.409,1.409,0,0,1,886.1,837.038Zm6.577-21.29h-.031a1.41,1.41,0,0,1-1.377-1.441c.005-.232.008-.464.006-.7a34.861,34.861,0,0,0-1.476-9.991,1.409,1.409,0,0,1,2.7-.806,37.665,37.665,0,0,1,1.6,10.789c0,.252,0,.509-.007.767A1.41,1.41,0,0,1,892.674,815.749Z" transform="translate(-852.434 -801.808)" fill="#040b37"/>
      </g>
    </g>
    <g id="Group_3325" data-name="Group 3325" transform="translate(565.724 633.837)">
      <g id="Group_3324" data-name="Group 3324" transform="translate(0 0)">
        <path id="Path_13534" data-name="Path 13534" d="M633.692,744.146a1.409,1.409,0,0,1,0-2.818c3.606-.005,7.366-.137,11.175-.392a1.408,1.408,0,1,1,.187,2.811c-3.869.261-7.691.4-11.359.4Zm-11.269-.416c-.037,0-.075,0-.111,0a113.41,113.41,0,0,1-11.329-1.439,1.409,1.409,0,1,1,.5-2.773,110.426,110.426,0,0,0,11.044,1.4,1.409,1.409,0,0,1-.108,2.814Zm33.762-1.066a1.409,1.409,0,0,1-.175-2.807c4.808-.6,8.667-1.273,11.058-1.728a1.409,1.409,0,0,1,.525,2.769c-2.43.462-6.352,1.14-11.231,1.755A1.474,1.474,0,0,1,656.184,742.664ZM600.3,739.6a1.413,1.413,0,0,1-.435-.07,63.259,63.259,0,0,1-10.6-4.488,1.409,1.409,0,1,1,1.343-2.478,60.407,60.407,0,0,0,10.129,4.286,1.41,1.41,0,0,1-.436,2.75Zm-19.561-10.846a1.408,1.408,0,0,1-.948-.367,41.309,41.309,0,0,1-7.424-8.934,1.409,1.409,0,1,1,2.4-1.475,38.49,38.49,0,0,0,6.92,8.324,1.409,1.409,0,0,1-.949,2.452Zm-11.684-18.9a1.411,1.411,0,0,1-1.352-1.017,54.434,54.434,0,0,1-1.973-11.36,1.409,1.409,0,0,1,1.305-1.506,1.425,1.425,0,0,1,1.5,1.307,51.825,51.825,0,0,0,1.869,10.773,1.412,1.412,0,0,1-1.353,1.8Zm-1.874-22.324c-.033,0-.068,0-.1,0a1.41,1.41,0,0,1-1.307-1.506,74.071,74.071,0,0,1,1.663-11.339,1.409,1.409,0,0,1,2.746.633,71.162,71.162,0,0,0-1.6,10.906A1.409,1.409,0,0,1,567.178,687.529Zm5.154-21.786a1.412,1.412,0,0,1-1.287-1.982,53.278,53.278,0,0,1,5.785-9.982,1.409,1.409,0,0,1,2.268,1.672,50.47,50.47,0,0,0-5.477,9.453A1.411,1.411,0,0,1,572.332,665.743Zm13.256-17.974a1.409,1.409,0,0,1-.926-2.471,58.927,58.927,0,0,1,9.41-6.66,1.409,1.409,0,1,1,1.4,2.446,55.944,55.944,0,0,0-8.959,6.338A1.408,1.408,0,0,1,585.587,647.769Zm19.4-11.244a1.41,1.41,0,0,1-.49-2.732,84.92,84.92,0,0,1,11.005-3.228,1.41,1.41,0,0,1,.614,2.751,81.936,81.936,0,0,0-10.64,3.119A1.4,1.4,0,0,1,604.987,636.525Zm21.966-4.966a1.409,1.409,0,0,1-.14-2.811,80.588,80.588,0,0,1,11.508-.441,1.409,1.409,0,0,1,1.327,1.484,1.428,1.428,0,0,1-1.483,1.329,78.766,78.766,0,0,0-11.068.431C627.049,631.556,627,631.558,626.953,631.558Z" transform="translate(-565.724 -628.259)" fill="#040b37"/>
      </g>
    </g>
    <g id="Group_3326" data-name="Group 3326" transform="translate(664.149 525.321)">
      <path id="Path_13535" data-name="Path 13535" d="M677.348,550.838a2.14,2.14,0,0,1-.6.22,2.115,2.115,0,0,1-1.587-.315l-13.8-9.21a2.114,2.114,0,0,1-.584-2.931l9.21-13.8a2.114,2.114,0,0,1,2.932-.585l13.8,9.21a2.114,2.114,0,0,1,.584,2.931l-9.21,13.8A2.126,2.126,0,0,1,677.348,550.838ZM665.461,539.19l10.283,6.864,6.864-10.286L672.326,528.9Z" transform="translate(-660.416 -523.86)" fill="#43b2ef"/>
    </g>
    <g id="Group_3327" data-name="Group 3327" transform="translate(822.081 486.777)">
      <path id="Path_13536" data-name="Path 13536" d="M823.109,508.279a10.751,10.751,0,1,1,10.752-10.751A10.763,10.763,0,0,1,823.109,508.279Zm0-17.816a7.064,7.064,0,1,0,7.064,7.065A7.072,7.072,0,0,0,823.109,490.463Z" transform="translate(-812.358 -486.777)" fill="#23e2dd"/>
    </g>
    <g id="Group_3328" data-name="Group 3328" transform="translate(977.898 694.426)">
      <path id="Path_13537" data-name="Path 13537" d="M962.919,696.822a.784.784,0,0,1-.517.225c-.106-.014-.151-.085-.134-.212a1.3,1.3,0,0,1,.086-.282c.048-.124.087-.216.119-.276q.382-.924.765-1.736a5.531,5.531,0,0,1,.916-1.391,9.238,9.238,0,0,1,2.747-2.09,5.557,5.557,0,0,1,3.291-.556,7.8,7.8,0,0,1,1.423.3q.56.189,1.087.388t1.181.4a10.87,10.87,0,0,0,1.711.34,21.618,21.618,0,0,0,3.341.182,12.907,12.907,0,0,0,3.44-.569,14.692,14.692,0,0,0,3.587-1.688,20.685,20.685,0,0,0,3.789-3.2.262.262,0,0,1,.209-.1c.106.015.149.106.126.276a.445.445,0,0,1-.058.187l-2.368,3.653a16.272,16.272,0,0,1-6.784,4.353,16.947,16.947,0,0,1-7.265.615,14.145,14.145,0,0,1-2.622-.575,12,12,0,0,0-2.3-.532,5.106,5.106,0,0,0-2.794.476A15.261,15.261,0,0,0,962.919,696.822Z" transform="translate(-962.265 -686.55)" fill="#5fe896"/>
    </g>
    <g id="Group_3329" data-name="Group 3329" transform="translate(921.137 828.539)">
      <path id="Path_13538" data-name="Path 13538" d="M931.648,840.065l-22.094-2.28a2.114,2.114,0,0,1-1.5-3.341l13.022-17.993a2.11,2.11,0,0,1,1.929-.863h0a2.11,2.11,0,0,1,1.712,1.239l9.072,20.272a2.112,2.112,0,0,1-2.145,2.965Zm-18.018-6.108,14.811,1.527L922.359,821.9Z" transform="translate(-907.657 -815.577)" fill="#ff2c63"/>
    </g>
    <ellipse id="Ellipse_61" data-name="Ellipse 61" cx="87.708" cy="11.474" rx="87.708" ry="11.474" transform="translate(704.401 928.013)" fill="#d4d4d4"/>
    <g id="Group_3331" data-name="Group 3331" transform="translate(939.36 550.81)">
      <g id="Group_3330" data-name="Group 3330" transform="translate(0 0)">
        <path id="Path_13539" data-name="Path 13539" d="M930.218,665.471a1.409,1.409,0,0,1-.541-2.662,87.857,87.857,0,0,0,9.557-5.668,1.409,1.409,0,1,1,1.584,2.331,90.759,90.759,0,0,1-9.868,5.85A1.388,1.388,0,0,1,930.218,665.471ZM948.839,652.8a1.409,1.409,0,0,1-.837-2.459,72.107,72.107,0,0,0,7.7-7.934,1.409,1.409,0,1,1,2.172,1.794,74.678,74.678,0,0,1-8,8.247A1.4,1.4,0,0,1,948.839,652.8ZM963.024,635.4a1.409,1.409,0,0,1-1.138-2.081,48.987,48.987,0,0,0,4.154-10.106,1.408,1.408,0,1,1,2.711.765,51.733,51.733,0,0,1-4.39,10.693A1.411,1.411,0,0,1,963.024,635.4Zm6.019-21.555a1.356,1.356,0,0,1-1.306-1.4,43.309,43.309,0,0,0-.987-10.837,1.41,1.41,0,0,1,2.754-.6,45.939,45.939,0,0,1,1.052,11.422,1.46,1.46,0,0,1-1.459,1.416Zm-4.6-21.783a1.412,1.412,0,0,1-1.187-.823,67.991,67.991,0,0,0-5.4-9.622,1.41,1.41,0,0,1,2.344-1.566,71.1,71.1,0,0,1,5.623,10.023,1.41,1.41,0,0,1-1.38,1.988ZM952.065,573.3a1.4,1.4,0,0,1-.966-.482c-2.345-2.7-4.946-5.4-7.728-8.027a1.409,1.409,0,0,1,1.933-2.05c2.851,2.688,5.518,5.457,7.924,8.23a1.409,1.409,0,0,1-1.163,2.329Zm-16.374-15.5a1.4,1.4,0,0,1-.774-.3,106.638,106.638,0,0,0-9.057-6.5,1.409,1.409,0,1,1,1.477-2.4,107.358,107.358,0,0,1,9.329,6.693,1.409,1.409,0,0,1-.974,2.511Z" transform="translate(-925.189 -548.381)" fill="#040b37"/>
      </g>
    </g>
    <g id="Group_3332" data-name="Group 3332" transform="translate(668.239 548.64)">
      <path id="Path_13540" data-name="Path 13540" d="M701.6,735.9l-12.338,10.883c2.827,5.488,5.779,10.914,8.8,16.3l12.265-10.82Q705.814,744.148,701.6,735.9Zm0,0-12.338,10.883c2.827,5.488,5.779,10.914,8.8,16.3l12.265-10.82Q705.814,744.148,701.6,735.9Zm0,0-12.338,10.883c2.827,5.488,5.779,10.914,8.8,16.3l12.265-10.82Q705.814,744.148,701.6,735.9ZM879.127,579.3l-11.891,10.477a109.87,109.87,0,0,1,12.608,12.941l11.912-10.5A126.4,126.4,0,0,0,879.127,579.3Zm-10.03-8.139a125.634,125.634,0,0,0-60.588-23.875c-3.025-.364-6.049-.665-9.064-.987H786.078c-3.2.343-6.4.634-9.594,1.029-54.913,6.767-99.5,48.136-109.669,101.25-1.1,5.79-1.466,11.725-2.183,17.6-.073.624-.187,1.258-.281,1.892V675.1c.291,2.37.54,4.76.883,7.13,1.653,11.132,5.072,21.766,9.2,32.181,3.243,8.2,6.829,16.225,10.685,24.115l12.421-10.956c-3.69-7.754-7.078-15.654-10.051-23.761-3.212-8.752-5.925-17.66-6.736-27.015a90.6,90.6,0,0,1,1.382-23.283c7.193-41.39,38.251-75.576,79.62-87.322a117.459,117.459,0,0,1,31.058-4.293,113.572,113.572,0,0,1,67.365,22.2l12.005-10.592C871.165,572.706,870.136,571.926,869.1,571.157ZM689.266,746.778c2.827,5.488,5.779,10.914,8.8,16.3l12.265-10.82q-4.522-8.107-8.731-16.36Zm229.3-99.192a126.083,126.083,0,0,0-21.287-48.344L885.27,609.834a109.616,109.616,0,0,1,13.876,27.326,106.415,106.415,0,0,1,5.821,34.862c-.021,9.739-2.609,19-5.738,28.106-6.559,19.063-15.622,36.972-25.424,54.528-18.273,32.742-39.176,63.789-61.118,94.151-2.474,3.43-4.937,6.85-7.484,10.218a15.326,15.326,0,0,1-24.884,0c-23.491-31.848-45.818-64.465-65.5-98.818l-12.2,10.768q3.212,5.535,6.528,11.028c21.36,35.423,45.163,69.184,70.12,102.144,7.12,9.407,19.936,9.448,26.994-.021,8.866-11.881,17.712-23.792,26.329-35.85,20.165-28.251,39.259-57.2,56.118-87.561a385.52,385.52,0,0,0,25.289-54.04C921.078,687.354,922.918,667.751,918.563,647.586ZM701.6,735.9l-12.338,10.883c2.827,5.488,5.779,10.914,8.8,16.3l12.265-10.82Q705.814,744.148,701.6,735.9Zm0,0-12.338,10.883c2.827,5.488,5.779,10.914,8.8,16.3l12.265-10.82Q705.814,744.148,701.6,735.9Zm0,0-12.338,10.883c2.827,5.488,5.779,10.914,8.8,16.3l12.265-10.82Q705.814,744.148,701.6,735.9Z" transform="translate(-664.351 -546.294)" fill="#040b37"/>
      <path id="Path_13541" data-name="Path 13541" d="M759,680.188,746.967,690.81a50.517,50.517,0,0,0,12.878,12.7l12.328-10.872A36.39,36.39,0,0,1,759,680.188Zm0,0L746.967,690.81a50.517,50.517,0,0,0,12.878,12.7l12.328-10.872A36.39,36.39,0,0,1,759,680.188Zm0,0L746.967,690.81a50.517,50.517,0,0,0,12.878,12.7l12.328-10.872A36.39,36.39,0,0,1,759,680.188Zm1.185-60.806c-21.111,14.49-28.366,41.005-17.795,63.55l12.743-11.247a34.73,34.73,0,0,1-1.5-10.124c0-19.635,16.277-35.673,36.2-35.673a36.469,36.469,0,0,1,14.032,2.806l12.66-11.163A52.5,52.5,0,0,0,760.188,619.381ZM759,680.188,746.967,690.81a50.517,50.517,0,0,0,12.878,12.7l12.328-10.872A36.39,36.39,0,0,1,759,680.188Zm0,0L746.967,690.81a50.517,50.517,0,0,0,12.878,12.7l12.328-10.872A36.39,36.39,0,0,1,759,680.188Zm80.379-34.935-13.6,11.995a34.816,34.816,0,0,1,.27,4.314c.01,19.624-16.267,35.642-36.213,35.642a36.281,36.281,0,0,1-8.284-.946l-13.45,11.87a54.319,54.319,0,0,0,30.684,3.887,51.511,51.511,0,0,0,43.25-50.433A49.8,49.8,0,0,0,839.382,645.253Zm-15.363-22.42-11.995,10.592a35.954,35.954,0,0,1,11.143,14.23l12.359-10.9A51.278,51.278,0,0,0,824.019,622.832Z" transform="translate(-661.464 -543.774)" fill="#040b37"/>
    </g>
    <path id="Path_13542" data-name="Path 13542" d="M665.878,794.785a13.028,13.028,0,0,1-11.573-4.744,13.953,13.953,0,0,1,1.395-19.218l248.91-219.577a12.879,12.879,0,0,1,18.571,1.6,13.953,13.953,0,0,1-1.395,19.218L672.875,791.644A12.763,12.763,0,0,1,665.878,794.785Z" transform="translate(3.366 2.414)" fill="#040b37"/>
  </g>
</svg>
