<svg xmlns="http://www.w3.org/2000/svg" width="542.397" height="540.278" viewBox="0 0 542.397 540.278"><g transform="translate(-391.144 -410.722)"><g transform="translate(776.585 736.296) rotate(19)"><path d="M1040.463,805.06a1.407,1.407,0,0,1-.711-2.622,98.355,98.355,0,0,0,9.156-6.3,1.407,1.407,0,0,1,1.711,2.234,99.652,99.652,0,0,1-9.45,6.5A1.4,1.4,0,0,1,1040.463,805.06Zm17.9-13.678a1.407,1.407,0,0,1-.962-2.434,91.931,91.931,0,0,0,7.642-8.036,1.406,1.406,0,1,1,2.156,1.806,95.248,95.248,0,0,1-7.874,8.284A1.41,1.41,0,0,1,1058.366,791.383Zm14.293-17.316a1.406,1.406,0,0,1-1.209-2.123,49.067,49.067,0,0,0,4.537-9.927,1.407,1.407,0,1,1,2.678.861,51.832,51.832,0,0,1-4.8,10.5A1.4,1.4,0,0,1,1072.658,774.066Zm6.566-21.251h-.031a1.408,1.408,0,0,1-1.376-1.437q.009-.349.007-.7a34.791,34.791,0,0,0-1.474-9.973,1.407,1.407,0,1,1,2.7-.805,37.6,37.6,0,0,1,1.592,10.77c0,.251,0,.508-.006.766A1.408,1.408,0,0,1,1079.224,752.815Z" transform="translate(-1039.055 -738.898)" fill="#040b37"/></g><g transform="translate(391.144 637.026) rotate(-16)"><path d="M812.194,693.167a1.406,1.406,0,0,1,0-2.813c3.6-.005,7.353-.137,11.155-.391a1.406,1.406,0,1,1,.187,2.806c-3.863.259-7.677.394-11.34.4Zm-11.25-.415c-.037,0-.075,0-.112,0a113.229,113.229,0,0,1-11.308-1.436,1.407,1.407,0,1,1,.5-2.768,110.256,110.256,0,0,0,11.024,1.4,1.406,1.406,0,0,1-.108,2.809Zm33.7-1.065a1.407,1.407,0,0,1-.174-2.8c4.8-.6,8.651-1.271,11.039-1.724a1.407,1.407,0,0,1,.524,2.764c-2.426.461-6.341,1.138-11.211,1.751A1.468,1.468,0,0,1,834.647,691.688Zm-55.788-3.061a1.413,1.413,0,0,1-.434-.069,63.168,63.168,0,0,1-10.584-4.48,1.407,1.407,0,0,1,1.341-2.474,60.346,60.346,0,0,0,10.112,4.278,1.407,1.407,0,0,1-.435,2.745ZM759.332,677.8a1.405,1.405,0,0,1-.946-.366,41.234,41.234,0,0,1-7.411-8.918,1.406,1.406,0,0,1,2.4-1.472,38.447,38.447,0,0,0,6.907,8.309,1.406,1.406,0,0,1-.946,2.448Zm-11.664-18.867a1.407,1.407,0,0,1-1.35-1.014,54.335,54.335,0,0,1-1.97-11.341,1.407,1.407,0,0,1,1.3-1.5,1.422,1.422,0,0,1,1.5,1.3,51.739,51.739,0,0,0,1.866,10.754,1.407,1.407,0,0,1-1.351,1.8ZM745.8,636.65c-.033,0-.067,0-.1,0a1.406,1.406,0,0,1-1.3-1.5,74.056,74.056,0,0,1,1.659-11.319,1.407,1.407,0,0,1,2.742.632,71.17,71.17,0,0,0-1.6,10.886A1.405,1.405,0,0,1,745.8,636.65Zm5.144-21.749a1.407,1.407,0,0,1-1.285-1.978,53.185,53.185,0,0,1,5.775-9.964,1.406,1.406,0,1,1,2.263,1.669,50.432,50.432,0,0,0-5.467,9.436A1.407,1.407,0,0,1,750.942,614.9Zm13.232-17.941a1.406,1.406,0,0,1-.924-2.466,58.814,58.814,0,0,1,9.393-6.648,1.407,1.407,0,0,1,1.4,2.441,55.837,55.837,0,0,0-8.942,6.327A1.408,1.408,0,0,1,764.174,596.96Zm19.366-11.225a1.407,1.407,0,0,1-.489-2.727,84.717,84.717,0,0,1,10.986-3.223,1.407,1.407,0,0,1,.613,2.747,81.845,81.845,0,0,0-10.622,3.114A1.4,1.4,0,0,1,783.54,585.735Zm21.927-4.958a1.406,1.406,0,0,1-.14-2.806,80.4,80.4,0,0,1,11.486-.44,1.407,1.407,0,0,1,1.326,1.482,1.425,1.425,0,0,1-1.481,1.327,78.639,78.639,0,0,0-11.048.431Q805.538,580.777,805.468,580.777Z" transform="translate(-744.345 -577.484)" fill="#040b37"/></g><g transform="translate(848.826 469.463) rotate(-19)"><path d="M1131.4,592.111a1.407,1.407,0,0,1-.723-2.615,87.647,87.647,0,0,0,9.125-6.307,1.407,1.407,0,0,1,1.739,2.211,90.686,90.686,0,0,1-9.421,6.512A1.394,1.394,0,0,1,1131.4,592.111Zm17.663-13.915a1.405,1.405,0,0,1-1-2.391,71.933,71.933,0,0,0,7.113-8.435,1.406,1.406,0,1,1,2.288,1.636,74.4,74.4,0,0,1-7.393,8.767A1.394,1.394,0,0,1,1149.066,578.2Zm12.918-18.305a1.406,1.406,0,0,1-1.277-1.993,48.887,48.887,0,0,0,3.434-10.353,1.406,1.406,0,1,1,2.753.575,51.623,51.623,0,0,1-3.63,10.952A1.408,1.408,0,0,1,1161.984,559.89Zm4.5-21.883a1.353,1.353,0,0,1-1.4-1.3,43.2,43.2,0,0,0-1.735-10.725,1.407,1.407,0,1,1,2.7-.79,45.833,45.833,0,0,1,1.841,11.3,1.457,1.457,0,0,1-1.354,1.512Zm-6.093-21.372a1.407,1.407,0,0,1-1.239-.738,67.908,67.908,0,0,0-6.045-9.207,1.407,1.407,0,0,1,2.224-1.722,70.942,70.942,0,0,1,6.3,9.591,1.406,1.406,0,0,1-1.237,2.075Zm-13.629-17.83a1.4,1.4,0,0,1-1-.413c-2.522-2.529-5.3-5.037-8.253-7.457a1.406,1.406,0,0,1,1.783-2.176,114.008,114.008,0,0,1,8.462,7.646,1.406,1.406,0,0,1-.995,2.4Zm-17.383-14.3a1.4,1.4,0,0,1-.793-.246,106,106,0,0,0-9.471-5.847,1.407,1.407,0,0,1,1.305-2.492,106.921,106.921,0,0,1,9.754,6.017,1.407,1.407,0,0,1-.8,2.568Z" transform="translate(-1118.36 -475.757)" fill="#040b37"/></g><g transform="translate(542.887 410.722)"><path d="M857.554,432.986a2.11,2.11,0,0,1-1.872-1.136l-7.646-14.691a2.111,2.111,0,0,1,.9-2.846l14.692-7.646a2.11,2.11,0,0,1,2.846.9l7.646,14.692a2.109,2.109,0,0,1-.9,2.845l-14.692,7.647A2.112,2.112,0,0,1,857.554,432.986Zm-4.8-15.9,5.7,10.949,10.949-5.7-5.7-10.949Z" transform="translate(-847.798 -406.428)" fill="#43b2ef"/></g><g transform="translate(685.705 450.999)"><path d="M1001.969,474.506a10.732,10.732,0,1,1,10.732-10.733A10.745,10.745,0,0,1,1001.969,474.506Zm0-17.784a7.052,7.052,0,1,0,7.05,7.051A7.059,7.059,0,0,0,1001.969,456.721Z" transform="translate(-991.236 -453.041)" fill="#23e2dd"/></g><g transform="translate(878.641 621.672)"><path d="M1149.539,633.895a.79.79,0,0,1-.516.224c-.107-.015-.151-.085-.135-.213a1.457,1.457,0,0,1,.086-.281c.048-.124.088-.216.118-.276q.381-.923.764-1.733a5.546,5.546,0,0,1,.914-1.388,9.234,9.234,0,0,1,2.742-2.087,5.556,5.556,0,0,1,3.285-.555,7.69,7.69,0,0,1,1.421.3q.56.187,1.085.386c.35.133.744.267,1.179.4a10.868,10.868,0,0,0,1.709.339,21.553,21.553,0,0,0,3.334.182,12.853,12.853,0,0,0,3.434-.568,14.6,14.6,0,0,0,3.58-1.685,20.607,20.607,0,0,0,3.782-3.2.262.262,0,0,1,.208-.1c.107.015.148.107.126.276a.431.431,0,0,1-.057.187l-2.365,3.646a16.225,16.225,0,0,1-6.772,4.345,16.9,16.9,0,0,1-7.252.614,14,14,0,0,1-2.618-.574,11.969,11.969,0,0,0-2.3-.531,5.119,5.119,0,0,0-2.79.475A15.214,15.214,0,0,0,1149.539,633.895Z" transform="translate(-1148.885 -623.64)" fill="#5fe896"/></g><g transform="translate(836 724.068)"><path d="M1118.226,777.113l-22.055-2.275a2.11,2.11,0,0,1-1.492-3.336l13-17.961a2.108,2.108,0,0,1,1.926-.862h0a2.109,2.109,0,0,1,1.709,1.237l9.057,20.236a2.111,2.111,0,0,1-2.143,2.961Zm-17.986-6.1,14.785,1.525-6.072-13.565Z" transform="translate(-1094.277 -752.667)" fill="#ff2c63"/></g><ellipse cx="87.554" cy="11.454" rx="87.554" ry="11.454" transform="translate(595 854.849)" fill="#d4d4d4"/><g transform="translate(196.876 -173.033)"><g transform="translate(63.495 576.208)" fill="#040b37"><path d="M 422.3959350585938 397.1127319335938 C 420.0786743164062 397.1127319335938 416.7274780273438 396.6855163574219 413.922119140625 394.6502685546875 L 413.9280090332031 394.6545715332031 C 403.3290405273438 386.9416198730469 389.3984069824219 376.7125854492188 375.6380004882812 365.9837951660156 C 361.6610412597656 355.0862121582031 349.4409484863281 344.9248962402344 338.2793579101562 334.9191589355469 C 311.2265319824219 310.6678466796875 289.6830139160156 286.6051940917969 272.417724609375 261.3563232421875 C 262.5934143066406 246.9990997314453 255.4446258544922 233.5832061767578 250.5618896484375 220.340576171875 C 245.7239990234375 207.2195739746094 243.1496887207031 194.3648834228516 242.6918487548828 181.0420532226562 C 242.3327331542969 170.4632568359375 243.5110473632812 159.9163665771484 246.1941528320312 149.6964111328125 C 248.8167419433594 139.7068939208984 252.8272552490234 130.2061462402344 258.1143188476562 121.4582061767578 C 263.3934326171875 112.7233657836914 269.8341064453125 104.9229965209961 277.2575378417969 98.27378845214844 C 284.8318481445312 91.48936462402344 293.2963562011719 86.02762603759766 302.4158325195312 82.04020690917969 C 308.2996826171875 79.46804809570312 314.479736328125 77.50662994384766 320.7841186523438 76.2105712890625 C 326.9849853515625 74.93583679199219 333.3784790039062 74.28946685791016 339.7868957519531 74.28946685791016 C 346.396484375 74.28946685791016 353.0889587402344 74.97583770751953 359.678466796875 76.32957458496094 C 366.2773132324219 77.68525695800781 372.82958984375 79.72173309326172 379.1532592773438 82.38241577148438 C 385.5448303222656 85.07178497314453 391.7608947753906 88.42346954345703 397.6285705566406 92.34441375732422 C 403.6104736328125 96.34162902832031 409.2930908203125 100.9729461669922 414.5186767578125 106.109733581543 L 414.5071105957031 106.098258972168 L 419.3579406738281 110.897834777832 L 422.9106750488281 114.4130477905273 L 426.4274291992188 110.8617858886719 C 429.4166259765625 107.8431549072266 431.7557983398438 105.5700454711914 434.0119934082031 103.4914169311523 L 434.0078430175781 103.4952087402344 C 439.1713562011719 98.74878692626953 444.7437438964844 94.47883605957031 450.5700988769531 90.80404663085938 C 456.2786254882812 87.20357513427734 462.2993774414062 84.13083648681641 468.4651489257812 81.67110443115234 C 474.5531616210938 79.24246978759766 480.8471984863281 77.38541412353516 487.1724243164062 76.15162658691406 C 493.4710083007812 74.92304992675781 499.863525390625 74.30010223388672 506.17236328125 74.30010223388672 C 514.441650390625 74.30010223388672 522.6160278320312 75.36420440673828 530.4684448242188 77.46283721923828 C 538.4840087890625 79.6051025390625 546.1702270507812 82.82857513427734 553.3135986328125 87.04373168945312 C 562.6973876953125 92.57546997070312 571.0816040039062 99.69362640380859 578.2352294921875 108.2014694213867 C 585.2279052734375 116.5179443359375 590.8883056640625 125.9680480957031 595.0592651367188 136.2892608642578 C 599.2365112304688 146.6261596679688 601.8052368164062 157.5532531738281 602.6941528320312 168.7671051025391 C 603.60595703125 180.2695159912109 602.7236328125 191.8012084960938 600.0716552734375 203.0417327880859 C 591.4616088867188 239.5073699951172 570.1226196289062 268.0400390625 552.4940795898438 288.8235168457031 C 516.9285278320312 330.7618408203125 473.9534301757812 364.1722717285156 432.8105163574219 394.0298461914062 L 432.8062133789062 394.0329284667969 L 432.8019409179688 394.0360412597656 C 430.198486328125 395.933837890625 426.2111511230469 397.1127319335938 422.3959350585938 397.1127319335938 Z M 339.7802124023438 93.06789398193359 C 329.3376159667969 93.06789398193359 319.2934875488281 95.14089202880859 309.9266357421875 99.22925567626953 C 279.7176208496094 112.4382095336914 260.2349853515625 145.0582580566406 261.4436950683594 180.4014129638672 C 262.2286987304688 203.1753082275391 270.6365356445312 225.5338897705078 287.9037475585938 250.7665252685547 C 323.8948974609375 303.407470703125 374.9547424316406 342.9407348632812 419.9885864257812 375.8635864257812 L 422.9365234375 378.0187377929688 L 425.886474609375 375.8664245605469 C 462.4625854492188 349.1802673339844 504.4084167480469 316.52978515625 538.1922607421875 276.7016296386719 C 554.4623413085938 257.5082702636719 574.1223754882812 231.3028411865234 581.8084106445312 198.7405700683594 C 590.7295532226562 160.944580078125 575.0948486328125 121.6586303710938 543.7877807617188 103.2042617797852 C 532.56103515625 96.58299255371094 519.5537719726562 93.08283996582031 506.1730651855469 93.08283996582031 C 484.8129577636719 93.08283996582031 463.6955261230469 101.682731628418 446.7107238769531 117.2983627319336 C 442.8652954101562 120.8330459594727 439.1906127929688 124.6098785400391 435.6370849609375 128.2624359130859 C 433.5494384765625 130.3918609619141 431.6558837890625 132.3210906982422 429.6263122558594 134.3634643554688 L 429.63525390625 134.3545227050781 L 423.0364685058594 140.9615020751953 L 401.3728942871094 119.5092086791992 L 401.366943359375 119.5033111572266 L 401.3609619140625 119.4974136352539 C 384.0337219238281 102.4541015625 362.1639404296875 93.06789398193359 339.7802124023438 93.06789398193359 Z" stroke="none"/><path d="M 422.3959350585938 392.1127014160156 C 425.7590026855469 392.1127014160156 428.5168762207031 390.9722290039062 429.8738403320312 389.9831237792969 C 470.7637023925781 360.3091735839844 513.4574584960938 327.1242980957031 548.6810302734375 285.5892333984375 C 565.9476928710938 265.2322998046875 586.840087890625 237.3221282958984 595.2052612304688 201.8936004638672 C 605.4917602539062 158.2932434082031 587.2218627929688 112.8369522094727 550.7725219726562 91.34995269775391 C 537.4132080078125 83.46688842773438 521.9906616210938 79.30012512207031 506.1724243164062 79.30012512207031 C 481.3742980957031 79.30012512207031 456.9474182128906 89.20006561279297 437.3998413085938 107.1687164306641 C 434.8853149414062 109.4853591918945 432.4461364746094 111.8897705078125 429.9803466796875 114.3798294067383 L 422.9468994140625 121.4827117919922 L 411.0136413574219 109.675422668457 C 391.080078125 90.08077239990234 365.7846069335938 79.28948211669922 339.7868957519531 79.28948211669922 C 327.4475402832031 79.28948211669922 315.5477600097656 81.75641632080078 304.4188842773438 86.62147521972656 C 269.0975952148438 102.065299987793 246.2995910644531 139.9426574707031 247.6888885498047 180.8703002929688 C 248.5650634765625 206.3659515380859 257.7337646484375 231.0432434082031 276.5450744628906 258.5339965820312 C 314.1779479980469 313.5687866210938 366.5020751953125 353.9587707519531 416.8581848144531 390.6031188964844 C 418.2000122070312 391.5765991210938 420.1667175292969 392.1127014160156 422.3959350585938 392.1127014160156 M 339.7801818847656 88.06789398193359 C 363.4839477539062 88.06789398193359 386.5989379882812 97.96382904052734 404.8910522460938 115.9563598632812 L 423.0170288085938 133.9055023193359 L 426.0796508789062 130.8390655517578 L 432.0469970703125 124.7821884155273 C 435.8950805664062 120.8269500732422 439.5057678222656 117.1297760009766 443.32666015625 113.6176528930664 C 461.2367248535156 97.15130615234375 483.5559997558594 88.08289337158203 506.1730041503906 88.08289337158203 C 520.4464111328125 88.08289337158203 534.3320922851562 91.82271575927734 546.3267822265625 98.89694976806641 C 579.5023803710938 118.4526519775391 596.0940551757812 159.982177734375 586.6746826171875 199.8892364501953 C 578.7440795898438 233.4874725341797 558.6378173828125 260.3150634765625 542.0053100585938 279.9359436035156 C 507.8821716308594 320.1640625 465.6474914550781 353.0459594726562 428.8335266113281 379.9056701660156 L 422.93359375 384.2102355957031 L 417.0377197265625 379.8999938964844 C 371.6689453125 346.7322998046875 320.21435546875 306.8831176757812 283.7774353027344 253.5902404785156 C 265.9503173828125 227.5394134521484 257.2657775878906 204.3383026123047 256.446533203125 180.5722503662109 C 255.1685333251953 143.2001190185547 275.8543701171875 108.6703643798828 307.9264831542969 94.64677429199219 C 317.9280090332031 90.28136444091797 328.6451721191406 88.06789398193359 339.7801818847656 88.06789398193359 M 422.3959350585938 402.1127014160156 C 418.3595275878906 402.1127014160156 414.2848815917969 401.0906677246094 410.9860229492188 398.6974182128906 C 359.9101867675781 361.5293579101562 306.8427734375 320.5579528808594 268.2904052734375 264.1785278320312 C 248.3546600341797 235.0445404052734 238.6386566162109 208.6788330078125 237.6947784423828 181.2137756347656 C 236.1678924560547 136.2317657470703 261.3565979003906 94.53583526611328 300.4127197265625 77.45900726318359 C 339.1203918457031 60.53768920898438 385.3060302734375 70.38246917724609 418.0238342285156 102.5440063476562 L 422.8746643066406 107.3435974121094 C 425.4496459960938 104.7431869506836 427.9981384277344 102.2334823608398 430.6240539550781 99.81418609619141 C 466.6668701171875 66.68272399902344 517.0045166015625 59.81304931640625 555.8545532226562 82.73754119873047 C 596.0369262695312 106.4251861572266 616.2189331054688 156.3748321533203 604.9380493164062 204.1898345947266 C 596.0888671875 241.6681823730469 574.302978515625 270.8412475585938 556.3071899414062 292.0577697753906 C 520.4205932617188 334.3746643066406 477.1590576171875 368.0237731933594 435.7472534179688 398.0765380859375 C 432.3577880859375 400.5472412109375 427.4030151367188 402.1127014160156 422.3959350585938 402.1127014160156 Z M 418.94189453125 374.7251892089844 L 418.8387145996094 374.8158264160156 L 418.94189453125 374.7251892089844 Z M 339.7801818847656 98.06789398193359 C 330.2328796386719 98.06789398193359 320.7892456054688 99.94353485107422 311.9267883300781 103.8117752075195 C 283.5822448730469 116.2054824829102 265.3015441894531 146.9177703857422 266.4407043457031 180.2304840087891 C 267.1907653808594 201.9903564453125 275.3153686523438 223.5175323486328 292.0300598144531 247.9427795410156 C 326.7914123535156 298.7849426269531 375.4609985351562 337.1172485351562 422.9394836425781 371.8272399902344 C 461.6473083496094 343.5857849121094 501.6228942871094 312.0841979980469 534.3792724609375 273.4672546386719 C 550.291748046875 254.6957702636719 569.5033569335938 229.1064758300781 576.942138671875 197.5919494628906 C 585.3638305664062 161.9117126464844 570.68017578125 124.8603591918945 541.2487182617188 107.5116577148438 C 513.3689575195312 91.06880950927734 476.7315979003906 96.48960876464844 450.0947875976562 120.9791870117188 C 446.407470703125 124.368537902832 442.9273071289062 127.9393005371094 439.2145385742188 131.7554779052734 C 437.2738342285156 133.7351226806641 435.2685241699219 135.7790069580078 433.1729431152344 137.8878326416016 L 423.0559387207031 148.0174255371094 L 397.8547058105469 123.06201171875 C 381.2825927734375 106.761360168457 360.2983093261719 98.06789398193359 339.7801818847656 98.06789398193359 Z" stroke="none" fill="#f6f2ee"/></g></g><text transform="translate(683 942)" fill="#040b37" font-size="34" font-family="SegoeUI, Segoe UI"><tspan x="-101.187" y="0">المفضلة فارغة</tspan></text></g></svg>