<svg xmlns="http://www.w3.org/2000/svg" width="447.525" height="558.208" viewBox="0 0 447.525 558.208"><g transform="translate(-744.345 -406.429)"><g transform="translate(841.618 933.207)"><path d="M839.894,937.127v2.243H829.072a10.5,10.5,0,0,1-4.551-.812,4.816,4.816,0,0,1-2.389-2.585,12.947,12.947,0,0,1-.732-4.826,13.794,13.794,0,0,1,.7-4.843,4.855,4.855,0,0,1,2.307-2.664,9.393,9.393,0,0,1,4.339-.845q1.2,0,3.689.114t3.755.244v13.975Zm-15.454-2.5a3.566,3.566,0,0,0,1.739,1.9,7.525,7.525,0,0,0,3.316.6h4.191V925.263q-2.86-.2-4.42-.2-2.959,0-4.161,1.4t-1.2,4.616A9.526,9.526,0,0,0,824.439,934.624Zm2-17.259h2.47v2.73h-2.47Zm4.063,0h2.47v2.73H830.5Z" transform="translate(-821.4 -916.032)" fill="#040b37"/><path d="M858.79,937.127v2.243H841.661v-2.243h6.077a8.51,8.51,0,0,1-1.527-2.795,11.7,11.7,0,0,1-.617-3.9,8.311,8.311,0,0,1,1.771-5.526,6.266,6.266,0,0,1,5.086-2.112,11.869,11.869,0,0,1,2.715.341,11.65,11.65,0,0,1,2.649.958l-.1,2.21a7.617,7.617,0,0,0-2.079-.812,10.641,10.641,0,0,0-2.893-.454,4.164,4.164,0,0,0-3.446,1.495,6.3,6.3,0,0,0-1.2,4.062,9.25,9.25,0,0,0,.763,3.82,7.822,7.822,0,0,0,1.9,2.714Zm-7.964-19.762h2.47v2.73h-2.47Z" transform="translate(-823.167 -916.032)" fill="#040b37"/><path d="M864.365,947.982c-.292-.022-.548-.044-.764-.065l-.683-.065v-2.21q1.625.129,2.048.13a2.656,2.656,0,0,0,2.421-1.283,6.816,6.816,0,0,0,.8-3.592V923.7h2.5v16.575q0,7.736-5.363,7.736C864.977,948.015,864.657,948,864.365,947.982Z" transform="translate(-825.021 -916.585)" fill="#040b37"/><path d="M882.72,937v2.243h-5.558V915.9h2.5V937Z" transform="translate(-826.263 -915.905)" fill="#040b37"/><path d="M900.085,923.476v15.893H883.25v-2.243h4.616a12.774,12.774,0,0,1-.878-5.493,15,15,0,0,1,.7-5.168,4.436,4.436,0,0,1,2.34-2.568,11.6,11.6,0,0,1,4.664-.747,40.256,40.256,0,0,1,4.484.227Zm-9.425,13.651h6.923V925.458q-2.211-.162-3.121-.162a6.355,6.355,0,0,0-3.12.617,3.231,3.231,0,0,0-1.479,1.951,13.249,13.249,0,0,0-.406,3.705Q889.458,935.7,890.66,937.127Zm2.276-19.762h2.47v2.73h-2.47Z" transform="translate(-826.794 -916.032)" fill="#040b37"/><path d="M937.368,923.476v17.1a6.531,6.531,0,0,1-2.016,5.006,7.816,7.816,0,0,1-5.557,1.885h-9.133a7.818,7.818,0,0,1-5.558-1.885,6.57,6.57,0,0,1-2.015-5.039,67.633,67.633,0,0,1,1.17-9.2l2.373.39q-.554,3.542-.8,5.33a22.405,22.405,0,0,0-.245,2.925,5.456,5.456,0,0,0,1.283,3.835,5.026,5.026,0,0,0,3.885,1.4h8.905a5.069,5.069,0,0,0,3.917-1.4,5.452,5.452,0,0,0,1.283-3.835v-.617h-4.713a7.692,7.692,0,0,1-3.494-.65,3.847,3.847,0,0,1-1.819-2.276,14.711,14.711,0,0,1-.57-4.648,15.566,15.566,0,0,1,.651-4.989,4.974,4.974,0,0,1,2.21-2.778,8.765,8.765,0,0,1,4.388-.91q.975,0,2.47.081c1,.054,1.821.113,2.47.179Zm-10.19,11.537a2.76,2.76,0,0,0,1.317,1.642,5.5,5.5,0,0,0,2.5.471h3.867V925.49q-2.241-.194-3.054-.194a5.824,5.824,0,0,0-3.039.666,3.622,3.622,0,0,0-1.543,2.047,11.978,11.978,0,0,0-.456,3.657A10.7,10.7,0,0,0,927.178,935.013Zm1.511-17.649h2.47v2.73h-2.47Zm4.063,0h2.47v2.73h-2.47Z" transform="translate(-829.397 -916.032)" fill="#040b37"/><path d="M960.732,939.86H956.67a12.242,12.242,0,0,1-1.511,6.077,4.618,4.618,0,0,1-4.144,1.983,39.341,39.341,0,0,1-4.908-.488v-2.21a33.937,33.937,0,0,0,4.745.455,3.633,3.633,0,0,0,1.837-.406,2.908,2.908,0,0,0,1.121-1.674,12.538,12.538,0,0,0,.422-3.737h-4.777q-3.543,0-4.7-2.243A12.713,12.713,0,0,1,943.6,931.8a17.106,17.106,0,0,1,.585-4.923,5.1,5.1,0,0,1,2.113-2.894,7.79,7.79,0,0,1,4.257-.991,30.523,30.523,0,0,1,3.136.2q1.836.2,3.039.423v14.008h4Zm-13.781-3.884q.846,1.642,3.446,1.641h3.835V925.462a24.24,24.24,0,0,0-3.056-.228,5.55,5.55,0,0,0-3.087.732,3.829,3.829,0,0,0-1.544,2.145,12.5,12.5,0,0,0-.438,3.624A9.264,9.264,0,0,0,946.951,935.976Z" transform="translate(-832.059 -916.523)" fill="#040b37"/><path d="M989.929,937.676v2.243h-9.1a5.475,5.475,0,0,1-3.608-1.366,3.869,3.869,0,0,1-3.088,1.366H962.368v-2.243h5.266V925.293h2.5v12.384h3.218a2.26,2.26,0,0,0,2.161-1.284,6.974,6.974,0,0,0,.666-3.234v-7.865h2.5v7.833a11.65,11.65,0,0,1-.455,3.445,5.112,5.112,0,0,0,1.235.764,3.574,3.574,0,0,0,1.494.341h3.414v-7.053q0-1.235-.18-3.1t-.405-3.753l2.047-.1q.422,1.852.731,3.933a23.631,23.631,0,0,1,.309,3.282v6.793Z" transform="translate(-833.695 -916.582)" fill="#040b37"/><path d="M1004.751,937.127v2.243H992.563v-2.243h4.843V923.118h2.5v14.008Zm-9.361-19.762h2.47v2.73h-2.47Zm4.063,0h2.47v2.73h-2.47Z" transform="translate(-836.329 -916.032)" fill="#040b37"/><path d="M1012.416,915.9v23.337h-6.5V937h4V915.9Z" transform="translate(-837.493 -915.905)" fill="#040b37"/><path d="M1019.447,915.9h2.5v23.337h-2.5Z" transform="translate(-838.673 -915.905)" fill="#040b37"/><path d="M1053.144,937.127v2.243h-10.822a10.5,10.5,0,0,1-4.551-.812,4.816,4.816,0,0,1-2.389-2.585,12.945,12.945,0,0,1-.732-4.826,13.791,13.791,0,0,1,.7-4.843,4.853,4.853,0,0,1,2.307-2.664,9.394,9.394,0,0,1,4.34-.845q1.2,0,3.688.114t3.755.244v13.975Zm-15.454-2.5a3.566,3.566,0,0,0,1.739,1.9,7.525,7.525,0,0,0,3.316.6h4.192V925.263q-2.86-.2-4.42-.2-2.959,0-4.161,1.4t-1.2,4.616A9.523,9.523,0,0,0,1037.689,934.624Zm2-17.259h2.47v2.73h-2.47Zm4.063,0h2.47v2.73h-2.47Z" transform="translate(-840 -916.032)" fill="#040b37"/><path d="M1062.256,923.668v16.251h-7.345v-2.243h4.843V923.668Zm-2.5,18.851h2.47v2.731h-2.47Z" transform="translate(-841.767 -916.582)" fill="#040b37"/><path d="M1079.062,939.922H1075v.357q0,7.736-5.363,7.736-.52,0-.959-.033t-.763-.065l-.684-.065v-2.21c1.084.086,1.766.13,2.049.13a2.656,2.656,0,0,0,2.42-1.283,6.822,6.822,0,0,0,.8-3.592V923.7h2.5v13.976h4.063Z" transform="translate(-842.841 -916.585)" fill="#040b37"/><path d="M1097.321,937.645v2.243h-17.129v-2.243h6.078a8.493,8.493,0,0,1-1.527-2.795,11.7,11.7,0,0,1-.618-3.9,8.313,8.313,0,0,1,1.77-5.526,6.267,6.267,0,0,1,5.087-2.112,11.862,11.862,0,0,1,2.714.341,11.667,11.667,0,0,1,2.65.958l-.1,2.21a7.606,7.606,0,0,0-2.079-.812,10.643,10.643,0,0,0-2.893-.455,4.161,4.161,0,0,0-3.445,1.5,6.3,6.3,0,0,0-1.2,4.062,9.247,9.247,0,0,0,.763,3.82,7.833,7.833,0,0,0,1.9,2.714Z" transform="translate(-843.972 -916.551)" fill="#040b37"/></g><g transform="translate(744.345 406.429)"><g transform="translate(157.072 331.648)"><g transform="translate(84.939)"><path d="M1010,790.881a32.41,32.41,0,1,1,32.41-32.409A32.448,32.448,0,0,1,1010,790.881ZM1010,730a28.476,28.476,0,1,0,28.476,28.477A28.509,28.509,0,0,0,1010,730Z" transform="translate(-977.588 -726.061)" fill="#040b37"/></g><path d="M928.135,790.881a32.41,32.41,0,1,1,32.411-32.409A32.446,32.446,0,0,1,928.135,790.881Zm0-60.886a28.476,28.476,0,1,0,28.478,28.477A28.508,28.508,0,0,0,928.135,730Z" transform="translate(-895.726 -726.061)" fill="#040b37"/></g><g transform="translate(305.789 344.968)"><path d="M1040.463,805.06a1.407,1.407,0,0,1-.711-2.622,98.355,98.355,0,0,0,9.156-6.3,1.407,1.407,0,0,1,1.711,2.234,99.652,99.652,0,0,1-9.45,6.5A1.4,1.4,0,0,1,1040.463,805.06Zm17.9-13.678a1.407,1.407,0,0,1-.962-2.434,91.931,91.931,0,0,0,7.642-8.036,1.406,1.406,0,1,1,2.156,1.806,95.248,95.248,0,0,1-7.874,8.284A1.41,1.41,0,0,1,1058.366,791.383Zm14.293-17.316a1.406,1.406,0,0,1-1.209-2.123,49.067,49.067,0,0,0,4.537-9.927,1.407,1.407,0,1,1,2.678.861,51.832,51.832,0,0,1-4.8,10.5A1.4,1.4,0,0,1,1072.658,774.066Zm6.566-21.251h-.031a1.408,1.408,0,0,1-1.376-1.437q.009-.349.007-.7a34.791,34.791,0,0,0-1.474-9.973,1.407,1.407,0,1,1,2.7-.805,37.6,37.6,0,0,1,1.592,10.77c0,.251,0,.508-.006.766A1.408,1.408,0,0,1,1079.224,752.815Z" transform="translate(-1039.055 -738.898)" fill="#040b37"/></g><g transform="translate(0 177.486)"><path d="M812.194,693.167a1.406,1.406,0,0,1,0-2.813c3.6-.005,7.353-.137,11.155-.391a1.406,1.406,0,1,1,.187,2.806c-3.863.259-7.677.394-11.34.4Zm-11.25-.415c-.037,0-.075,0-.112,0a113.229,113.229,0,0,1-11.308-1.436,1.407,1.407,0,1,1,.5-2.768,110.256,110.256,0,0,0,11.024,1.4,1.406,1.406,0,0,1-.108,2.809Zm33.7-1.065a1.407,1.407,0,0,1-.174-2.8c4.8-.6,8.651-1.271,11.039-1.724a1.407,1.407,0,0,1,.524,2.764c-2.426.461-6.341,1.138-11.211,1.751A1.468,1.468,0,0,1,834.647,691.688Zm-55.788-3.061a1.413,1.413,0,0,1-.434-.069,63.168,63.168,0,0,1-10.584-4.48,1.407,1.407,0,0,1,1.341-2.474,60.346,60.346,0,0,0,10.112,4.278,1.407,1.407,0,0,1-.435,2.745ZM759.332,677.8a1.405,1.405,0,0,1-.946-.366,41.234,41.234,0,0,1-7.411-8.918,1.406,1.406,0,0,1,2.4-1.472,38.447,38.447,0,0,0,6.907,8.309,1.406,1.406,0,0,1-.946,2.448Zm-11.664-18.867a1.407,1.407,0,0,1-1.35-1.014,54.335,54.335,0,0,1-1.97-11.341,1.407,1.407,0,0,1,1.3-1.5,1.422,1.422,0,0,1,1.5,1.3,51.739,51.739,0,0,0,1.866,10.754,1.407,1.407,0,0,1-1.351,1.8ZM745.8,636.65c-.033,0-.067,0-.1,0a1.406,1.406,0,0,1-1.3-1.5,74.056,74.056,0,0,1,1.659-11.319,1.407,1.407,0,0,1,2.742.632,71.17,71.17,0,0,0-1.6,10.886A1.405,1.405,0,0,1,745.8,636.65Zm5.144-21.749a1.407,1.407,0,0,1-1.285-1.978,53.185,53.185,0,0,1,5.775-9.964,1.406,1.406,0,1,1,2.263,1.669,50.432,50.432,0,0,0-5.467,9.436A1.407,1.407,0,0,1,750.942,614.9Zm13.232-17.941a1.406,1.406,0,0,1-.924-2.466,58.814,58.814,0,0,1,9.393-6.648,1.407,1.407,0,0,1,1.4,2.441,55.837,55.837,0,0,0-8.942,6.327A1.408,1.408,0,0,1,764.174,596.96Zm19.366-11.225a1.407,1.407,0,0,1-.489-2.727,84.717,84.717,0,0,1,10.986-3.223,1.407,1.407,0,0,1,.613,2.747,81.845,81.845,0,0,0-10.622,3.114A1.4,1.4,0,0,1,783.54,585.735Zm21.927-4.958a1.406,1.406,0,0,1-.14-2.806,80.4,80.4,0,0,1,11.486-.44,1.407,1.407,0,0,1,1.326,1.482,1.425,1.425,0,0,1-1.481,1.327,78.639,78.639,0,0,0-11.048.431Q805.538,580.777,805.468,580.777Z" transform="translate(-744.345 -577.484)" fill="#040b37"/></g><g transform="translate(388.076 71.935)"><path d="M1131.4,592.111a1.407,1.407,0,0,1-.723-2.615,87.647,87.647,0,0,0,9.125-6.307,1.407,1.407,0,0,1,1.739,2.211,90.686,90.686,0,0,1-9.421,6.512A1.394,1.394,0,0,1,1131.4,592.111Zm17.663-13.915a1.405,1.405,0,0,1-1-2.391,71.933,71.933,0,0,0,7.113-8.435,1.406,1.406,0,1,1,2.288,1.636,74.4,74.4,0,0,1-7.393,8.767A1.394,1.394,0,0,1,1149.066,578.2Zm12.918-18.305a1.406,1.406,0,0,1-1.277-1.993,48.887,48.887,0,0,0,3.434-10.353,1.406,1.406,0,1,1,2.753.575,51.623,51.623,0,0,1-3.63,10.952A1.408,1.408,0,0,1,1161.984,559.89Zm4.5-21.883a1.353,1.353,0,0,1-1.4-1.3,43.2,43.2,0,0,0-1.735-10.725,1.407,1.407,0,1,1,2.7-.79,45.833,45.833,0,0,1,1.841,11.3,1.457,1.457,0,0,1-1.354,1.512Zm-6.093-21.372a1.407,1.407,0,0,1-1.239-.738,67.908,67.908,0,0,0-6.045-9.207,1.407,1.407,0,0,1,2.224-1.722,70.942,70.942,0,0,1,6.3,9.591,1.406,1.406,0,0,1-1.237,2.075Zm-13.629-17.83a1.4,1.4,0,0,1-1-.413c-2.522-2.529-5.3-5.037-8.253-7.457a1.406,1.406,0,0,1,1.783-2.176,114.008,114.008,0,0,1,8.462,7.646,1.406,1.406,0,0,1-.995,2.4Zm-17.383-14.3a1.4,1.4,0,0,1-.793-.246,106,106,0,0,0-9.471-5.847,1.407,1.407,0,0,1,1.305-2.492,106.921,106.921,0,0,1,9.754,6.017,1.407,1.407,0,0,1-.8,2.568Z" transform="translate(-1118.36 -475.757)" fill="#040b37"/></g><g transform="translate(107.343)"><path d="M857.554,432.986a2.11,2.11,0,0,1-1.872-1.136l-7.646-14.691a2.111,2.111,0,0,1,.9-2.846l14.692-7.646a2.11,2.11,0,0,1,2.846.9l7.646,14.692a2.109,2.109,0,0,1-.9,2.845l-14.692,7.647A2.112,2.112,0,0,1,857.554,432.986Zm-4.8-15.9,5.7,10.949,10.949-5.7-5.7-10.949Z" transform="translate(-847.798 -406.428)" fill="#43b2ef"/></g><g transform="translate(256.173 48.365)"><path d="M1001.969,474.506a10.732,10.732,0,1,1,10.732-10.733A10.745,10.745,0,0,1,1001.969,474.506Zm0-17.784a7.052,7.052,0,1,0,7.05,7.051A7.059,7.059,0,0,0,1001.969,456.721Z" transform="translate(-991.236 -453.041)" fill="#23e2dd"/></g><g transform="translate(419.748 225.377)"><path d="M1149.539,633.895a.79.79,0,0,1-.516.224c-.107-.015-.151-.085-.135-.213a1.457,1.457,0,0,1,.086-.281c.048-.124.088-.216.118-.276q.381-.923.764-1.733a5.546,5.546,0,0,1,.914-1.388,9.234,9.234,0,0,1,2.742-2.087,5.556,5.556,0,0,1,3.285-.555,7.69,7.69,0,0,1,1.421.3q.56.187,1.085.386c.35.133.744.267,1.179.4a10.868,10.868,0,0,0,1.709.339,21.553,21.553,0,0,0,3.334.182,12.853,12.853,0,0,0,3.434-.568,14.6,14.6,0,0,0,3.58-1.685,20.607,20.607,0,0,0,3.782-3.2.262.262,0,0,1,.208-.1c.107.015.148.107.126.276a.431.431,0,0,1-.057.187l-2.365,3.646a16.225,16.225,0,0,1-6.772,4.345,16.9,16.9,0,0,1-7.252.614,14,14,0,0,1-2.618-.574,11.969,11.969,0,0,0-2.3-.531,5.119,5.119,0,0,0-2.79.475A15.214,15.214,0,0,0,1149.539,633.895Z" transform="translate(-1148.885 -623.64)" fill="#5fe896"/></g><g transform="translate(363.088 359.255)"><path d="M1118.226,777.113l-22.055-2.275a2.11,2.11,0,0,1-1.492-3.336l13-17.961a2.108,2.108,0,0,1,1.926-.862h0a2.109,2.109,0,0,1,1.709,1.237l9.057,20.236a2.111,2.111,0,0,1-2.143,2.961Zm-17.986-6.1,14.785,1.525-6.072-13.565Z" transform="translate(-1094.277 -752.667)" fill="#ff2c63"/></g><ellipse cx="87.554" cy="11.454" rx="87.554" ry="11.454" transform="translate(146.733 458.554)" fill="#d4d4d4"/><g transform="translate(92.029 83.344)"><g transform="translate(128.188)"><path d="M1108.243,544.813H956.583v-49.86a8.209,8.209,0,0,1,8.2-8.2h135.262a8.208,8.208,0,0,1,8.2,8.2Zm-147.75-3.91h143.839V494.952a4.293,4.293,0,0,0-4.288-4.289H964.782a4.3,4.3,0,0,0-4.289,4.289Z" transform="translate(-956.583 -486.753)" fill="#040b37"/></g><g transform="translate(0 76.376)"><path d="M1022.239,714.56H923.688a89.76,89.76,0,0,1-35.255-7.054,89.785,89.785,0,0,1-48.341-48.34,89.779,89.779,0,0,1-7.052-35.256v-9.7a12.057,12.057,0,0,1,11.811-11.81h34.492a12.057,12.057,0,0,1,11.81,11.81v5.764c0,10,2.921,18.71,8.684,25.875,5.74,7.136,13.543,10.6,23.853,10.6h98.551a33.388,33.388,0,0,0,22.6-8.871c6.684-5.907,9.934-13.647,9.934-23.666v-5.435h-62.1a31.4,31.4,0,0,1-31.519-31.521V560.362h110.358a41.493,41.493,0,0,1,41.375,41.375v22.172a89.733,89.733,0,0,1-7.055,35.256,89.776,89.776,0,0,1-48.338,48.34A89.761,89.761,0,0,1,1022.239,714.56ZM844.85,606.3a8.148,8.148,0,0,0-7.9,7.9v9.7a85.9,85.9,0,0,0,6.741,33.73,85.867,85.867,0,0,0,46.269,46.267,85.857,85.857,0,0,0,33.728,6.742h98.551a85.857,85.857,0,0,0,33.728-6.742,85.854,85.854,0,0,0,46.266-46.268,85.831,85.831,0,0,0,6.743-33.729V601.737a37.578,37.578,0,0,0-37.464-37.464H965.063v22.681a27.489,27.489,0,0,0,27.609,27.61h66.013v9.346c0,11.049-3.786,20-11.255,26.6a37.19,37.19,0,0,1-25.192,9.853H923.688c-11.409,0-20.46-4.059-26.9-12.063-6.335-7.877-9.546-17.409-9.546-28.326V614.2a8.152,8.152,0,0,0-7.9-7.9Z" transform="translate(-833.039 -560.362)" fill="#040b37"/></g></g></g></g></svg>