<svg xmlns="http://www.w3.org/2000/svg" width="423.311" height="446.579" viewBox="0 0 423.311 446.579">
  <g id="empty-wallet" transform="translate(-565.724 -486.777)">
    <g id="Group_3368" data-name="Group 3368">
      <g id="Group_3367" data-name="Group 3367">
        <path id="Path_13552" data-name="Path 13552" d="M853.791,865.573a1.356,1.356,0,0,1-.684-2.527,95.267,95.267,0,0,0,8.823-6.075,1.356,1.356,0,1,1,1.65,2.153,96.009,96.009,0,0,1-9.108,6.265A1.359,1.359,0,0,1,853.791,865.573Zm17.254-13.183a1.356,1.356,0,0,1-.926-2.345,88.706,88.706,0,0,0,7.364-7.745,1.356,1.356,0,0,1,2.079,1.741,91.684,91.684,0,0,1-7.59,7.983A1.351,1.351,0,0,1,871.045,852.39ZM884.82,835.7a1.355,1.355,0,0,1-1.165-2.046,47.32,47.32,0,0,0,4.373-9.568,1.356,1.356,0,0,1,2.582.83,50.018,50.018,0,0,1-4.622,10.119A1.355,1.355,0,0,1,884.82,835.7Zm6.328-20.482h-.03a1.357,1.357,0,0,1-1.325-1.386c0-.223.008-.446.006-.67a33.538,33.538,0,0,0-1.42-9.612,1.355,1.355,0,0,1,2.6-.775,36.235,36.235,0,0,1,1.535,10.38c0,.242,0,.49-.007.738A1.357,1.357,0,0,1,891.148,815.22Z" fill="#040b37"/>
      </g>
    </g>
    <g id="Group_3370" data-name="Group 3370">
      <g id="Group_3369" data-name="Group 3369">
        <path id="Path_13553" data-name="Path 13553" d="M631.114,739.751a1.355,1.355,0,0,1,0-2.711c3.469-.005,7.087-.132,10.751-.377a1.355,1.355,0,1,1,.18,2.7c-3.722.251-7.4.38-10.928.384Zm-10.842-.4c-.036,0-.072,0-.107,0a109.116,109.116,0,0,1-10.9-1.384,1.356,1.356,0,1,1,.485-2.668,106.241,106.241,0,0,0,10.625,1.349,1.356,1.356,0,0,1-.1,2.707Zm32.481-1.026a1.356,1.356,0,0,1-.168-2.7c4.626-.582,8.338-1.225,10.639-1.662a1.356,1.356,0,0,1,.505,2.664c-2.338.444-6.111,1.1-10.8,1.688A1.424,1.424,0,0,1,652.753,738.325Zm-53.767-2.95a1.361,1.361,0,0,1-.418-.067,60.868,60.868,0,0,1-10.2-4.318,1.356,1.356,0,0,1,1.292-2.384,58.111,58.111,0,0,0,9.745,4.123,1.356,1.356,0,0,1-.419,2.646ZM580.167,724.94a1.354,1.354,0,0,1-.912-.353,39.741,39.741,0,0,1-7.142-8.595,1.355,1.355,0,1,1,2.309-1.419,37.03,37.03,0,0,0,6.658,8.008,1.356,1.356,0,0,1-.913,2.359Zm-11.241-18.182a1.357,1.357,0,0,1-1.3-.978,52.373,52.373,0,0,1-1.9-10.929,1.355,1.355,0,0,1,1.256-1.449,1.371,1.371,0,0,1,1.447,1.257,49.862,49.862,0,0,0,1.8,10.364,1.359,1.359,0,0,1-1.3,1.735Zm-1.8-21.477c-.032,0-.065,0-.1,0a1.356,1.356,0,0,1-1.257-1.449,71.264,71.264,0,0,1,1.6-10.909,1.356,1.356,0,0,1,2.642.609,68.462,68.462,0,0,0-1.538,10.492A1.356,1.356,0,0,1,567.123,685.281Zm4.958-20.96a1.358,1.358,0,0,1-1.238-1.907,51.256,51.256,0,0,1,5.566-9.6,1.356,1.356,0,0,1,2.182,1.609,48.552,48.552,0,0,0-5.269,9.094A1.358,1.358,0,0,1,572.081,664.321Zm12.753-17.292a1.355,1.355,0,0,1-.891-2.377A56.691,56.691,0,0,1,593,638.245a1.356,1.356,0,1,1,1.348,2.353,53.823,53.823,0,0,0-8.619,6.1A1.354,1.354,0,0,1,584.834,647.029ZM603.5,636.211a1.356,1.356,0,0,1-.471-2.628,81.7,81.7,0,0,1,10.588-3.106,1.356,1.356,0,0,1,.591,2.647,78.828,78.828,0,0,0-10.236,3A1.351,1.351,0,0,1,603.5,636.211Zm21.133-4.778a1.355,1.355,0,0,1-.135-2.7,77.524,77.524,0,0,1,11.071-.424,1.356,1.356,0,0,1,1.277,1.428,1.374,1.374,0,0,1-1.427,1.279,75.779,75.779,0,0,0-10.648.415C624.723,631.431,624.676,631.433,624.631,631.433Z" fill="#040b37"/>
      </g>
    </g>
    <g id="Group_3371" data-name="Group 3371">
      <path id="Path_13554" data-name="Path 13554" d="M676.706,549.815a2.057,2.057,0,0,1-.582.212,2.035,2.035,0,0,1-1.527-.3l-13.277-8.861a2.034,2.034,0,0,1-.562-2.82l8.861-13.278a2.033,2.033,0,0,1,2.821-.563l13.277,8.861a2.034,2.034,0,0,1,.562,2.82l-8.861,13.278A2.045,2.045,0,0,1,676.706,549.815ZM665.27,538.609l9.893,6.6,6.6-9.9-9.893-6.6Z" fill="#43b2ef"/>
    </g>
    <g id="Group_3372" data-name="Group 3372">
      <path id="Path_13555" data-name="Path 13555" d="M822.7,507.463a10.343,10.343,0,1,1,10.344-10.343A10.355,10.355,0,0,1,822.7,507.463Zm0-17.14a6.8,6.8,0,1,0,6.8,6.8A6.8,6.8,0,0,0,822.7,490.323Z" fill="#23e2dd"/>
    </g>
    <g id="Group_3373" data-name="Group 3373">
      <path id="Path_13556" data-name="Path 13556" d="M962.894,696.432a.755.755,0,0,1-.5.216c-.1-.013-.145-.082-.129-.2a1.25,1.25,0,0,1,.083-.271c.046-.119.084-.208.114-.266.245-.593.489-1.15.736-1.67a5.321,5.321,0,0,1,.881-1.338,8.887,8.887,0,0,1,2.643-2.011,5.347,5.347,0,0,1,3.166-.535,7.5,7.5,0,0,1,1.369.29q.539.181,1.046.373t1.136.385a10.451,10.451,0,0,0,1.646.327,20.8,20.8,0,0,0,3.214.175,12.414,12.414,0,0,0,3.309-.547,14.132,14.132,0,0,0,3.451-1.624,19.9,19.9,0,0,0,3.645-3.083.252.252,0,0,1,.2-.1c.1.014.143.1.121.266a.428.428,0,0,1-.056.18l-2.278,3.514a15.654,15.654,0,0,1-6.527,4.188,16.3,16.3,0,0,1-6.989.592,13.613,13.613,0,0,1-2.523-.553,11.544,11.544,0,0,0-2.215-.512,4.912,4.912,0,0,0-2.688.458A14.684,14.684,0,0,0,962.894,696.432Z" fill="#5fe896"/>
    </g>
    <g id="Group_3374" data-name="Group 3374">
      <path id="Path_13557" data-name="Path 13557" d="M930.738,839.136l-21.256-2.193a2.034,2.034,0,0,1-1.439-3.214l12.528-17.311a2.03,2.03,0,0,1,1.856-.83h0a2.03,2.03,0,0,1,1.647,1.192l8.728,19.5a2.032,2.032,0,0,1-2.064,2.853ZM913.4,833.26l14.249,1.469L921.8,821.656Z" fill="#ff2c63"/>
    </g>
    <ellipse id="Ellipse_62" data-name="Ellipse 62" cx="84.382" cy="11.039" rx="84.382" ry="11.039" transform="translate(699.141 911.278)" fill="#d4d4d4"/>
    <g id="Group_3376" data-name="Group 3376">
      <g id="Group_3375" data-name="Group 3375">
        <path id="Path_13558" data-name="Path 13558" d="M930.027,661.03a1.355,1.355,0,0,1-.52-2.561,84.53,84.53,0,0,0,9.2-5.453,1.356,1.356,0,1,1,1.524,2.243,87.315,87.315,0,0,1-9.494,5.628A1.336,1.336,0,0,1,930.027,661.03Zm17.915-12.193a1.355,1.355,0,0,1-.8-2.366,69.365,69.365,0,0,0,7.4-7.633,1.355,1.355,0,1,1,2.09,1.726,71.836,71.836,0,0,1-7.7,7.934A1.351,1.351,0,0,1,947.942,648.837ZM961.589,632.1a1.356,1.356,0,0,1-1.095-2,47.128,47.128,0,0,0,4-9.723,1.355,1.355,0,1,1,2.608.736,49.776,49.776,0,0,1-4.223,10.287A1.358,1.358,0,0,1,961.589,632.1Zm5.791-20.737a1.3,1.3,0,0,1-1.256-1.343,41.67,41.67,0,0,0-.95-10.426,1.356,1.356,0,0,1,2.65-.579,44.2,44.2,0,0,1,1.012,10.989,1.4,1.4,0,0,1-1.4,1.362Zm-4.425-20.957a1.359,1.359,0,0,1-1.142-.792,65.413,65.413,0,0,0-5.2-9.257,1.356,1.356,0,0,1,2.255-1.507,68.415,68.415,0,0,1,5.41,9.643,1.356,1.356,0,0,1-1.328,1.913Zm-11.909-18.056a1.348,1.348,0,0,1-.929-.464c-2.256-2.6-4.758-5.2-7.435-7.723a1.355,1.355,0,1,1,1.86-1.972c2.743,2.586,5.309,5.25,7.623,7.918a1.356,1.356,0,0,1-1.119,2.241Zm-15.753-14.916a1.346,1.346,0,0,1-.745-.289,102.59,102.59,0,0,0-8.714-6.257,1.356,1.356,0,0,1,1.421-2.309,103.288,103.288,0,0,1,8.975,6.439,1.356,1.356,0,0,1-.937,2.416Z" fill="#040b37"/>
      </g>
    </g>
    <g id="Group_3385" data-name="Group 3385">
      <g id="Group_3378" data-name="Group 3378">
        <g id="Group_3377" data-name="Group 3377">
          <path id="Path_13559" data-name="Path 13559" d="M797.417,699.837A12.367,12.367,0,1,0,809.784,712.2,12.38,12.38,0,0,0,797.417,699.837Zm0,15.221a2.854,2.854,0,1,1,2.854-2.854A2.857,2.857,0,0,1,797.417,715.058Z" fill="#040b37"/>
        </g>
      </g>
      <g id="Group_3380" data-name="Group 3380">
        <g id="Group_3379" data-name="Group 3379">
          <path id="Path_13560" data-name="Path 13560" d="M835.6,684.073a4.754,4.754,0,1,0,1.394,3.363A4.792,4.792,0,0,0,835.6,684.073Z" fill="#040b37"/>
        </g>
      </g>
      <g id="Group_3382" data-name="Group 3382">
        <g id="Group_3381" data-name="Group 3381">
          <path id="Path_13561" data-name="Path 13561" d="M896.537,609.506h-5.129l-67.1-67.095a4.757,4.757,0,0,0-6.726,0L800.4,559.6l-68.745-18.42a4.756,4.756,0,0,0-5.826,3.364l-17.406,64.962H696.763a20,20,0,0,0-19.978,19.978c0,.264.01.526.02.788-.011.13-.02.262-.02.4V760.775a23.811,23.811,0,0,0,23.783,23.783H870.851c.074,0,.146-.005.22-.006h25.465a23.81,23.81,0,0,0,23.783-23.783V633.289A23.81,23.81,0,0,0,896.537,609.506Zm-4.25,9.513h4.25a14.286,14.286,0,0,1,14.269,14.27V671.41a11.287,11.287,0,0,1-11.274,11.274h-4.9V663.73a23.805,23.805,0,0,0-23.288-23.77Zm-87.1-50.75,0,0L820.95,552.5l62.2,62.2L858.06,639.793h-8.7l11.382-11.382a4.758,4.758,0,0,0,0-6.727,9.884,9.884,0,0,1,0-13.965,4.759,4.759,0,0,0,0-6.728l-26.08-26.078a4.756,4.756,0,0,0-6.727,0,9.886,9.886,0,0,1-13.966,0,4.756,4.756,0,0,0-6.727,0l-64.881,64.881h-8.7Zm-14,53.654a22.732,22.732,0,0,0-22.175,17.871h-13.2l55.209-55.209a19.458,19.458,0,0,0,19.858,0l20.188,20.188a19.457,19.457,0,0,0,0,19.858L835.9,639.794H813.36A22.732,22.732,0,0,0,791.185,621.923Zm12.265,17.871H778.921a13.177,13.177,0,0,1,24.529,0Zm-74.82-8.427,12.6-47.011a19.447,19.447,0,0,0,17.205-9.933l21.407,5.736-31.066,31.066Zm5.155-79.767,58.845,15.768-5.023,5.024-30.743-8.238a4.756,4.756,0,0,0-5.825,3.363,9.874,9.874,0,0,1-12.1,6.983,4.757,4.757,0,0,0-5.826,3.364l-16.636,62.084h-6.37Zm-37.022,67.419h9.108l-5.608,20.929h-3.5a10.465,10.465,0,1,1,0-20.929Zm214.043,141.75a14.285,14.285,0,0,1-14.269,14.27h-6.668a23.661,23.661,0,0,0,4.765-14.264V741.664h2.854a22.7,22.7,0,0,0,13.318-4.3Zm0-41.936a13.334,13.334,0,0,1-13.318,13.319H797.6a19.977,19.977,0,1,1,0-39.955h14.416a4.757,4.757,0,0,0,0-9.514H797.6a29.491,29.491,0,0,0,0,58.981h87.52v19.11a14.289,14.289,0,0,1-14.05,14.27H709.129V721.48a4.757,4.757,0,1,0-9.513,0v53.529A14.285,14.285,0,0,1,686.3,760.775V646.492a19.853,19.853,0,0,0,10.464,2.969H870.851A14.285,14.285,0,0,1,885.12,663.73v18.954H850.728a4.757,4.757,0,1,0,0,9.513h48.8a20.659,20.659,0,0,0,11.274-3.337v29.973Z" fill="#040b37"/>
        </g>
      </g>
      <g id="Group_3384" data-name="Group 3384">
        <g id="Group_3383" data-name="Group 3383">
          <path id="Path_13562" data-name="Path 13562" d="M707.736,699.565a4.754,4.754,0,1,0,1.394,3.363A4.792,4.792,0,0,0,707.736,699.565Z" fill="#040b37"/>
        </g>
      </g>
    </g>
  </g>
</svg>
