<svg xmlns="http://www.w3.org/2000/svg" width="477.717" height="482.049" viewBox="0 0 477.717 482.049">
  <g id="empty-talbya" transform="translate(-423.283 -391.813)">
    <g id="empty-talbya-2" data-name="empty-talbya" transform="translate(-142.44 -94.964)">
      <g id="Group_3141" data-name="Group 3141" transform="translate(758.332 687.004)">
        <g id="Group_3140" data-name="Group 3140">
          <g id="Group_3135" data-name="Group 3135" transform="translate(55.619 42.302)">
            <path id="Path_13484" data-name="Path 13484" d="M785.96,713.518q0-.685-.043-1.258c-.029-.381-.061-.733-.1-1.054s-.068-.618-.1-.893a7.332,7.332,0,0,1-.043-.779,1.911,1.911,0,0,1,.139-.563,9.131,9.131,0,0,1,.376-.875c.026-.051.234-.117.62-.2s.809-.152,1.266-.206a11.061,11.061,0,0,1,1.15-.086,4.457,4.457,0,0,1-.384-.449c-.114-.155-.225-.295-.329-.421a2.077,2.077,0,0,0-.316-.31.535.535,0,0,0-.333-.121.89.89,0,0,0-.55.207,2.982,2.982,0,0,0-.564.621l-.494-.257a4.615,4.615,0,0,1,.854-1.455,1.38,1.38,0,0,1,.981-.533.9.9,0,0,1,.565.225,3.529,3.529,0,0,1,.625.729,10.6,10.6,0,0,0,.754.989,3.789,3.789,0,0,0,.709.64l-.554,1.448a17.541,17.541,0,0,0-2.028.129,10.88,10.88,0,0,0-1.7.3q.171.923.55,2.658l.171.833A5.116,5.116,0,0,1,785.96,713.518Z" transform="translate(-785.682 -701.274)" fill="#f99f36"/>
            <path id="Path_13485" data-name="Path 13485" d="M795.759,709.434a3.487,3.487,0,0,1-1.1,1.792,2.714,2.714,0,0,1-1.814.688,1.9,1.9,0,0,1-.784-.313,6.348,6.348,0,0,1-.97-.68l.2-.5a5.358,5.358,0,0,0,1.331.167,3.061,3.061,0,0,0,1.379-.313,2.4,2.4,0,0,0,.976-.858,7.5,7.5,0,0,1-1.836-.239,1.529,1.529,0,0,1-.814-.576,1.723,1.723,0,0,1-.265-.991,3.526,3.526,0,0,1,.265-1.346,2.9,2.9,0,0,1,.673-1.036,1.219,1.219,0,0,1,.833-.386,1.3,1.3,0,0,1,.9.4,3.291,3.291,0,0,1,.735,1.148,5.549,5.549,0,0,1,.388,1.6h.65c.071,0,.106.033.106.1v1.24c0,.068-.035.1-.106.1Zm-.705-1.452a3.282,3.282,0,0,0-.635-1.254,1.152,1.152,0,0,0-.863-.441.848.848,0,0,0-.6.243.747.747,0,0,0-.254.554c0,.448.4.724,1.2.833A10.386,10.386,0,0,0,795.053,707.982Z" transform="translate(-784.987 -701.279)" fill="#f99f36"/>
            <path id="Path_13486" data-name="Path 13486" d="M795.807,709.84a.09.09,0,0,1-.1-.1V708.5a.089.089,0,0,1,.1-.1q1.478,0,2.343-.091a4.619,4.619,0,0,0,1.363-.313,3.379,3.379,0,0,0-.844-.993,9.091,9.091,0,0,0-1.5-1.034,1.165,1.165,0,0,1-.307.045.839.839,0,0,1-.582-.232.722.722,0,0,1-.255-.554,5.108,5.108,0,0,1,.126-.868,1.925,1.925,0,0,1,.191-.66q1.73-.858,2.237-1.089t1.148-.5q.64-.272,1.009-.419a.8.8,0,0,1,.237.6,1.087,1.087,0,0,1-.169.578,1.185,1.185,0,0,1-.466.431q-.3.156-.919.429t-1.23.486c-.406.143-.895.293-1.463.451a5.653,5.653,0,0,1,1.692.754,4.58,4.58,0,0,1,1.252,1.18,2.2,2.2,0,0,1,.466,1.248,1.424,1.424,0,0,1-.472,1.069,3.178,3.178,0,0,1-1.459.686A10.431,10.431,0,0,1,795.807,709.84Z" transform="translate(-784.394 -701.685)" fill="#f99f36"/>
            <path id="Path_13487" data-name="Path 13487" d="M801.7,708.943a.283.283,0,0,1-.088-.207v-1.255a.286.286,0,0,1,.088-.206.283.283,0,0,1,.206-.088h1.255a.3.3,0,0,1,.295.294v1.255a.3.3,0,0,1-.295.295H801.9A.283.283,0,0,1,801.7,708.943Z" transform="translate(-783.635 -700.978)" fill="#f99f36"/>
          </g>
          <g id="Group_3138" data-name="Group 3138" transform="translate(9.743 51.577)">
            <g id="Group_3136" data-name="Group 3136">
              <path id="Path_13488" data-name="Path 13488" d="M746.1,710.956a3.787,3.787,0,0,1,5.239,0,3.66,3.66,0,0,1,0,5.181,3.785,3.785,0,0,1-5.239,0,3.66,3.66,0,0,1,0-5.181Z" transform="translate(-745.03 -709.904)" fill="#f99f36"/>
            </g>
            <g id="Group_3137" data-name="Group 3137" transform="translate(10.069)">
              <path id="Path_13489" data-name="Path 13489" d="M755.026,710.956a3.787,3.787,0,0,1,5.239,0,3.66,3.66,0,0,1,0,5.181,3.785,3.785,0,0,1-5.239,0,3.66,3.66,0,0,1,0-5.181Z" transform="translate(-753.952 -709.904)" fill="#f99f36"/>
            </g>
          </g>
          <path id="Path_13490" data-name="Path 13490" d="M751.879,688.187h20.137v-1.975a5.406,5.406,0,0,0-5.407-5.406h-9.325a5.406,5.406,0,0,0-5.406,5.406Z" transform="translate(-734.407 -662.067)" fill="#f99f36"/>
          <g id="Group_3139" data-name="Group 3139">
            <path id="Path_13491" data-name="Path 13491" d="M768.633,690.03H753.859v3.358a4.011,4.011,0,0,0,4.029,4.029h8.731v1.008a4.344,4.344,0,0,1-1.445,3.425,4.789,4.789,0,0,1-3.257,1.276H748.486a4.194,4.194,0,0,1-3.459-1.545,5.712,5.712,0,0,1-1.243-3.694V697.1a1.377,1.377,0,0,0-1.343-1.343h-4.7A1.377,1.377,0,0,0,736.4,697.1v1.323a11.925,11.925,0,0,0,.94,4.7,11.967,11.967,0,0,0,6.447,6.447,11.92,11.92,0,0,0,4.7.94h13.432a11.924,11.924,0,0,0,4.7-.94,11.969,11.969,0,0,0,6.446-6.447,11.9,11.9,0,0,0,.941-4.7V695.4a5.39,5.39,0,0,0-5.373-5.373Z" transform="translate(-736.397 -660.881)" fill="#f99f36"/>
            <path id="Path_13492" data-name="Path 13492" d="M826.555,675.017a3.484,3.484,0,0,0,1.074,2.591,3.787,3.787,0,0,0,5.239,0,3.66,3.66,0,0,0,0-5.181,3.784,3.784,0,0,0-5.239,0A3.483,3.483,0,0,0,826.555,675.017Z" transform="translate(-724.81 -663.279)" fill="#f99f36"/>
            <path id="Path_13493" data-name="Path 13493" d="M822.512,678.66a3.6,3.6,0,0,0,2.619-1.052,3.66,3.66,0,0,0,0-5.181,3.783,3.783,0,0,0-5.237,0,3.658,3.658,0,0,0,0,5.181A3.6,3.6,0,0,0,822.512,678.66Z" transform="translate(-725.804 -663.279)" fill="#f99f36"/>
            <path id="Path_13494" data-name="Path 13494" d="M826.38,671.487a3.6,3.6,0,0,0,2.62-1.053,3.663,3.663,0,0,0,0-5.181,3.787,3.787,0,0,0-5.239,0,3.658,3.658,0,0,0,0,5.181A3.6,3.6,0,0,0,826.38,671.487Z" transform="translate(-725.307 -664.201)" fill="#f99f36"/>
            <path id="Path_13495" data-name="Path 13495" d="M848.877,680.806h-4.7a1.377,1.377,0,0,0-1.343,1.343v13.432h-6.045V682.149a1.375,1.375,0,0,0-1.342-1.343h-4.7a1.379,1.379,0,0,0-1.344,1.343v13.432h-6.043V682.149a1.377,1.377,0,0,0-1.344-1.343h-4.7a1.377,1.377,0,0,0-1.344,1.343v13.432H803.21V682.149a1.377,1.377,0,0,0-1.343-1.343h-4.7a1.377,1.377,0,0,0-1.343,1.343v13.432H785.749V682.149a1.377,1.377,0,0,0-1.343-1.343h-4.7a1.377,1.377,0,0,0-1.344,1.343v20.819a4.773,4.773,0,0,1-1.209,3.661A4.492,4.492,0,0,1,774,707.737a9.941,9.941,0,0,1-1.948-.2l-1.611,6.381a18.023,18.023,0,0,0,4.836.671,12.415,12.415,0,0,0,4.13-.671,8.729,8.729,0,0,0,3.323-2.082,9.738,9.738,0,0,0,2.216-3.627,15.336,15.336,0,0,0,.806-5.239h59.1a5.388,5.388,0,0,0,5.373-5.372V682.149a1.377,1.377,0,0,0-1.344-1.343Z" transform="translate(-732.022 -662.067)" fill="#f99f36"/>
            <path id="Path_13496" data-name="Path 13496" d="M853.471,664.6a1.289,1.289,0,0,0-.94-.4h-4.7a1.377,1.377,0,0,0-1.343,1.343v38.215a1.377,1.377,0,0,0,1.343,1.343h4.7a1.377,1.377,0,0,0,1.343-1.343V665.544A1.289,1.289,0,0,0,853.471,664.6Z" transform="translate(-722.248 -664.201)" fill="#f99f36"/>
            <path id="Path_13497" data-name="Path 13497" d="M789.03,679.276a3.433,3.433,0,0,0,2.494-1,3.487,3.487,0,0,0,0-4.934,3.6,3.6,0,0,0-4.988,0,3.485,3.485,0,0,0,0,4.934A3.43,3.43,0,0,0,789.03,679.276Z" transform="translate(-730.085 -663.155)" fill="#f99f36"/>
            <path id="Path_13498" data-name="Path 13498" d="M796.4,679.276a3.431,3.431,0,0,0,2.494-1,3.488,3.488,0,0,0,0-4.934,3.6,3.6,0,0,0-4.988,0,3.485,3.485,0,0,0,0,4.934A3.429,3.429,0,0,0,796.4,679.276Z" transform="translate(-729.138 -663.155)" fill="#f99f36"/>
            <path id="Path_13499" data-name="Path 13499" d="M851.478,705.786h-.165a2.345,2.345,0,0,1-.992-.176,1.722,1.722,0,0,1-.578-.441,1.037,1.037,0,0,1-.207-.573,1.535,1.535,0,0,1,.082-.441,1.236,1.236,0,0,1,.413-.352l.908-.133h.5a.928.928,0,0,0,.7-.22,1.055,1.055,0,0,0,.248-.749.887.887,0,0,0-.248-.75.916.916,0,0,0-.7-.264h-.826a3.687,3.687,0,0,0-1.24.22,2.715,2.715,0,0,0-.908.485,1.867,1.867,0,0,0-.537.75,2.5,2.5,0,0,0-.206.881,2.025,2.025,0,0,0,.289,1.059,2.582,2.582,0,0,0,.744.927h-.372a.643.643,0,0,0-.413.132.381.381,0,0,0-.247.265,1.5,1.5,0,0,0-.082.352,1.06,1.06,0,0,0,.247.75.87.87,0,0,0,.661.22h2.933a1.193,1.193,0,0,0,.744-.22,1.32,1.32,0,0,0,.207-.75.883.883,0,0,0-.247-.749A1.122,1.122,0,0,0,851.478,705.786Z" transform="translate(-722.1 -659.383)" fill="#f99f36"/>
          </g>
        </g>
      </g>
      <g id="Group_3146" data-name="Group 3146" transform="translate(704.361 573.349)">
        <g id="Group_3142" data-name="Group 3142">
          <path id="Path_13500" data-name="Path 13500" d="M922.707,608.308h-228.7a5.4,5.4,0,0,1-5.276-3.977,5.162,5.162,0,0,1,2.749-5.883l23.271-11.768-18.679-13.812a5.117,5.117,0,0,1-1.835-5.83,5.423,5.423,0,0,1,5.146-3.548H914.888a5.433,5.433,0,0,1,5.078,3.369,5.1,5.1,0,0,1-1.464,5.767l-14.685,12.591,21.821,13.459a5.136,5.136,0,0,1,2.283,5.874A5.409,5.409,0,0,1,922.707,608.308Zm-206.673-10.46H904.155L891.921,590.3a5.205,5.205,0,0,1-2.486-3.992,5.132,5.132,0,0,1,1.8-4.318l9.38-8.044H715.375l12.729,9.412a5.148,5.148,0,0,1,2.1,4.6,5.225,5.225,0,0,1-2.887,4.182Z" transform="translate(-688.572 -563.49)" fill="#040b37"/>
        </g>
        <g id="Group_3143" data-name="Group 3143" transform="translate(0.001 34.358)">
          <path id="Path_13501" data-name="Path 13501" d="M873.351,837.922H743.364c-30.213,0-54.791-26.67-54.791-59.452v-179.3a5.335,5.335,0,0,1,5.434-5.231h228.7a5.335,5.335,0,0,1,5.435,5.231v179.3C928.142,811.251,903.562,837.922,873.351,837.922ZM699.442,604.4V778.47c0,27.015,19.7,48.992,43.922,48.992H873.351c24.219,0,43.922-21.977,43.922-48.992V604.4Z" transform="translate(-688.573 -593.935)" fill="#040b37"/>
        </g>
        <g id="Group_3144" data-name="Group 3144" transform="translate(223.326)">
          <path id="Path_13502" data-name="Path 13502" d="M891.9,606.391a5.335,5.335,0,0,1-5.434-5.231V568.721a5.438,5.438,0,0,1,10.868,0V601.16A5.335,5.335,0,0,1,891.9,606.391Z" transform="translate(-886.464 -563.49)" fill="#040b37"/>
        </g>
        <g id="Group_3145" data-name="Group 3145" transform="translate(5.865)">
          <path id="Path_13503" data-name="Path 13503" d="M699.2,606.391a5.335,5.335,0,0,1-5.434-5.231V568.721a5.438,5.438,0,0,1,10.869,0V601.16A5.336,5.336,0,0,1,699.2,606.391Z" transform="translate(-693.769 -563.49)" fill="#040b37"/>
        </g>
      </g>
      <g id="Group_3148" data-name="Group 3148" transform="translate(889.283 842.296)">
        <g id="Group_3147" data-name="Group 3147">
          <path id="Path_13504" data-name="Path 13504" d="M853.965,873.768a1.53,1.53,0,0,1-.772-2.852,107.524,107.524,0,0,0,9.957-6.856,1.531,1.531,0,1,1,1.862,2.43,108.351,108.351,0,0,1-10.279,7.07A1.533,1.533,0,0,1,853.965,873.768Zm19.471-14.877a1.53,1.53,0,0,1-1.045-2.646,100.109,100.109,0,0,0,8.31-8.74,1.53,1.53,0,0,1,2.346,1.965,103.447,103.447,0,0,1-8.565,9.009A1.525,1.525,0,0,1,873.437,858.891Zm15.545-18.833a1.53,1.53,0,0,1-1.315-2.309,53.4,53.4,0,0,0,4.935-10.8,1.53,1.53,0,0,1,2.914.937,56.451,56.451,0,0,1-5.216,11.419A1.53,1.53,0,0,1,888.982,840.058Zm7.141-23.114h-.034a1.531,1.531,0,0,1-1.5-1.564c.006-.252.009-.5.007-.756a37.848,37.848,0,0,0-1.6-10.847,1.529,1.529,0,1,1,2.931-.875,40.892,40.892,0,0,1,1.732,11.714c0,.273,0,.553-.008.833A1.531,1.531,0,0,1,896.124,816.944Z" transform="translate(-852.434 -801.808)" fill="#040b37"/>
        </g>
      </g>
      <g id="Group_3150" data-name="Group 3150" transform="translate(565.724 646.443)">
        <g id="Group_3149" data-name="Group 3149">
          <path id="Path_13505" data-name="Path 13505" d="M639.518,754.08a1.53,1.53,0,0,1,0-3.059c3.915-.006,8-.149,12.133-.425a1.529,1.529,0,1,1,.2,3.052c-4.2.283-8.35.429-12.332.433Zm-12.235-.451c-.041,0-.081,0-.121,0a123.154,123.154,0,0,1-12.3-1.562,1.53,1.53,0,1,1,.547-3.011,119.89,119.89,0,0,0,11.99,1.522,1.53,1.53,0,0,1-.117,3.055Zm36.656-1.158a1.53,1.53,0,0,1-.19-3.048c5.22-.657,9.41-1.383,12.006-1.876a1.53,1.53,0,0,1,.57,3.006c-2.638.5-6.9,1.238-12.194,1.9A1.6,1.6,0,0,1,663.938,752.471Zm-60.677-3.329a1.537,1.537,0,0,1-.472-.076,68.694,68.694,0,0,1-11.511-4.873,1.53,1.53,0,0,1,1.458-2.69,65.584,65.584,0,0,0,11,4.653,1.53,1.53,0,0,1-.473,2.986Zm-21.238-11.776a1.528,1.528,0,0,1-1.029-.4,44.844,44.844,0,0,1-8.06-9.7,1.529,1.529,0,1,1,2.606-1.6,41.79,41.79,0,0,0,7.514,9.037,1.53,1.53,0,0,1-1.03,2.662Zm-12.686-20.519a1.532,1.532,0,0,1-1.468-1.1,59.1,59.1,0,0,1-2.142-12.334,1.53,1.53,0,0,1,1.417-1.635,1.547,1.547,0,0,1,1.633,1.419,56.266,56.266,0,0,0,2.029,11.7,1.534,1.534,0,0,1-1.469,1.958ZM567.3,692.61c-.036,0-.073,0-.108,0a1.53,1.53,0,0,1-1.418-1.635,80.427,80.427,0,0,1,1.806-12.311,1.53,1.53,0,0,1,2.982.687,77.254,77.254,0,0,0-1.736,11.84A1.53,1.53,0,0,1,567.3,692.61Zm5.6-23.654a1.533,1.533,0,0,1-1.4-2.152,57.841,57.841,0,0,1,6.281-10.837,1.53,1.53,0,0,1,2.462,1.816,54.8,54.8,0,0,0-5.946,10.263A1.532,1.532,0,0,1,572.9,668.956Zm14.392-19.514a1.53,1.53,0,0,1-1.005-2.682,63.971,63.971,0,0,1,10.216-7.23,1.53,1.53,0,1,1,1.521,2.655,60.738,60.738,0,0,0-9.727,6.882A1.528,1.528,0,0,1,587.29,649.441Zm21.063-12.208a1.531,1.531,0,0,1-.532-2.966,92.208,92.208,0,0,1,11.949-3.505,1.53,1.53,0,0,1,.667,2.987,88.945,88.945,0,0,0-11.552,3.387A1.524,1.524,0,0,1,608.353,637.233Zm23.849-5.392a1.53,1.53,0,0,1-.152-3.052,87.487,87.487,0,0,1,12.494-.478,1.53,1.53,0,0,1,1.441,1.612,1.55,1.55,0,0,1-1.61,1.443,85.513,85.513,0,0,0-12.016.468C632.306,631.839,632.253,631.841,632.2,631.841Z" transform="translate(-565.724 -628.259)" fill="#040b37"/>
        </g>
      </g>
      <g id="Group_3151" data-name="Group 3151" transform="translate(672.586 528.626)">
        <path id="Path_13506" data-name="Path 13506" d="M678.8,553.151a2.324,2.324,0,0,1-.657.239,2.3,2.3,0,0,1-1.723-.342l-14.983-10a2.3,2.3,0,0,1-.634-3.182l10-14.985a2.295,2.295,0,0,1,3.184-.635l14.983,10a2.3,2.3,0,0,1,.634,3.182l-10,14.985A2.309,2.309,0,0,1,678.8,553.151ZM665.894,540.5l11.164,7.453,7.453-11.168-11.165-7.453Z" transform="translate(-660.416 -523.86)" fill="#43b2ef"/>
      </g>
      <g id="Group_3152" data-name="Group 3152" transform="translate(844.056 486.777)">
        <path id="Path_13507" data-name="Path 13507" d="M824.03,510.122A11.672,11.672,0,1,1,835.7,498.449,11.686,11.686,0,0,1,824.03,510.122Zm0-19.343a7.67,7.67,0,1,0,7.669,7.671A7.678,7.678,0,0,0,824.03,490.779Z" transform="translate(-812.358 -486.777)" fill="#23e2dd"/>
      </g>
      <g id="Group_3153" data-name="Group 3153" transform="translate(1013.23 712.225)">
        <path id="Path_13508" data-name="Path 13508" d="M962.975,697.7a.852.852,0,0,1-.561.244c-.115-.015-.164-.093-.145-.23a1.41,1.41,0,0,1,.094-.306,3.265,3.265,0,0,1,.129-.3q.415-1,.831-1.885a6,6,0,0,1,.994-1.51,10.029,10.029,0,0,1,2.983-2.269,6.034,6.034,0,0,1,3.573-.6,8.468,8.468,0,0,1,1.545.327q.608.2,1.18.421t1.282.435a11.8,11.8,0,0,0,1.858.369,23.464,23.464,0,0,0,3.627.2,14.012,14.012,0,0,0,3.734-.617,15.953,15.953,0,0,0,3.895-1.833,22.45,22.45,0,0,0,4.113-3.479.284.284,0,0,1,.227-.111c.115.016.161.115.136.3a.482.482,0,0,1-.063.2l-2.571,3.966a17.666,17.666,0,0,1-7.366,4.726,18.4,18.4,0,0,1-7.887.668,15.368,15.368,0,0,1-2.847-.624,13.019,13.019,0,0,0-2.5-.578,5.544,5.544,0,0,0-3.033.517A16.569,16.569,0,0,0,962.975,697.7Z" transform="translate(-962.265 -686.55)" fill="#5fe896"/>
      </g>
      <g id="Group_3154" data-name="Group 3154" transform="translate(951.603 857.836)">
        <path id="Path_13509" data-name="Path 13509" d="M933.7,842.164l-23.988-2.475a2.295,2.295,0,0,1-1.624-3.627l14.138-19.536a2.29,2.29,0,0,1,2.095-.937h0a2.291,2.291,0,0,1,1.859,1.345l9.85,22.01a2.293,2.293,0,0,1-2.329,3.22Zm-19.563-6.631,16.08,1.658-6.6-14.753Z" transform="translate(-907.657 -815.577)" fill="#ff2c63"/>
      </g>
      <g id="Group_3156" data-name="Group 3156" transform="translate(971.388 556.299)">
        <g id="Group_3155" data-name="Group 3155">
          <path id="Path_13510" data-name="Path 13510" d="M930.649,675.508a1.53,1.53,0,0,1-.587-2.89,95.379,95.379,0,0,0,10.377-6.154,1.53,1.53,0,1,1,1.72,2.531,98.515,98.515,0,0,1-10.714,6.351A1.507,1.507,0,0,1,930.649,675.508Zm20.218-13.76a1.529,1.529,0,0,1-.909-2.67,78.284,78.284,0,0,0,8.356-8.614,1.529,1.529,0,1,1,2.359,1.948,81.054,81.054,0,0,1-8.684,8.954A1.524,1.524,0,0,1,950.866,661.748Zm15.4-18.885a1.53,1.53,0,0,1-1.236-2.259,53.182,53.182,0,0,0,4.51-10.973,1.529,1.529,0,1,1,2.943.831,56.167,56.167,0,0,1-4.766,11.609A1.532,1.532,0,0,1,966.267,642.863Zm6.535-23.4a1.472,1.472,0,0,1-1.417-1.516,47.022,47.022,0,0,0-1.072-11.766,1.531,1.531,0,0,1,2.991-.653,49.88,49.88,0,0,1,1.142,12.4,1.585,1.585,0,0,1-1.584,1.537Zm-4.994-23.651a1.533,1.533,0,0,1-1.289-.894,73.827,73.827,0,0,0-5.863-10.447,1.53,1.53,0,0,1,2.545-1.7,77.2,77.2,0,0,1,6.105,10.882,1.531,1.531,0,0,1-1.5,2.159Zm-13.44-20.377a1.521,1.521,0,0,1-1.048-.524c-2.546-2.934-5.37-5.866-8.391-8.716a1.53,1.53,0,1,1,2.1-2.226c3.1,2.918,5.991,5.925,8.6,8.936a1.53,1.53,0,0,1-1.263,2.529ZM936.592,558.6a1.52,1.52,0,0,1-.841-.326,115.78,115.78,0,0,0-9.834-7.061,1.53,1.53,0,0,1,1.6-2.606,116.544,116.544,0,0,1,10.128,7.267,1.53,1.53,0,0,1-1.057,2.727Z" transform="translate(-925.189 -548.381)" fill="#040b37"/>
        </g>
      </g>
      <g id="Group_3157" data-name="Group 3157" transform="translate(773.696 512.969)">
        <path id="Path_13511" data-name="Path 13511" d="M841.428,624.444V556.638a37.17,37.17,0,0,0-37.17-37.17h-7.6a37.169,37.169,0,0,0-37.169,37.17v67.806a4.741,4.741,0,0,1-4.741,4.741h0a4.741,4.741,0,0,1-4.741-4.741V556.638a46.652,46.652,0,0,1,46.652-46.652h7.6a46.652,46.652,0,0,1,46.652,46.652v67.806a4.741,4.741,0,0,1-4.741,4.741h0A4.741,4.741,0,0,1,841.428,624.444Z" transform="translate(-750.011 -509.986)" fill="#040b37"/>
      </g>
      <g id="Group_3158" data-name="Group 3158" transform="translate(773.696 535.412)">
        <path id="Path_13512" data-name="Path 13512" d="M841.428,622.819V567.758c0-16.671-16.641-30.185-37.17-30.185h-7.6c-20.528,0-37.169,13.513-37.169,30.184v55.063c0,2.126-2.123,3.851-4.741,3.851h0c-2.618,0-4.741-1.724-4.741-3.851V567.758c0-20.923,20.887-37.885,46.652-37.885h7.6c25.765,0,46.652,16.962,46.652,37.885v55.062c0,2.126-2.123,3.851-4.741,3.851h0C843.551,626.67,841.428,624.945,841.428,622.819Z" transform="translate(-750.011 -529.873)" fill="#040b37"/>
      </g>
    </g>
    <ellipse id="Ellipse_60" data-name="Ellipse 60" cx="90.157" cy="11.794" rx="90.157" ry="11.794" transform="translate(593 850.273)" fill="#d4d4d4"/>
  </g>
</svg>
