<?xml version="1.0" encoding="utf-8"?>
<!-- Generator: Adobe Illustrator 24.1.3, SVG Export Plug-In . SVG Version: 6.00 Build 0)  -->
<svg version="1.1" id="Layer_1" xmlns="http://www.w3.org/2000/svg" xmlns:xlink="http://www.w3.org/1999/xlink" x="0px" y="0px"
	 viewBox="0 0 28.6 25.7" style="enable-background:new 0 0 28.6 25.7;" xml:space="preserve">
<style type="text/css">
	.st0{fill:#F2F2F2;}
	.st1{fill:#515151;}
	.st2{fill:#040B37;}
	.st3{fill-rule:evenodd;clip-rule:evenodd;fill:#FFFFFF;}
	.st4{fill:#FFFFFF;}
	.st5{opacity:0.22;fill:none;stroke:#FFFFFF;stroke-width:2;stroke-miterlimit:10;}
	.st6{clip-path:url(#SVGID_2_);fill:#FFFFFF;}
	.st7{clip-path:url(#SVGID_2_);fill:#E30520;stroke:#000000;stroke-width:3.671543e-02;}
	.st8{clip-path:url(#SVGID_2_);stroke:#000000;stroke-width:3.671543e-02;}
	.st9{clip-path:url(#SVGID_2_);fill:#FFFFFF;stroke:#FFD039;stroke-width:1.835771e-02;stroke-linecap:round;}
	.st10{clip-path:url(#SVGID_2_);fill:#FFD039;}
	.st11{clip-path:url(#SVGID_2_);fill:none;stroke:#FFD039;stroke-width:1.835771e-02;stroke-linecap:round;stroke-linejoin:round;}
	.st12{clip-path:url(#SVGID_2_);fill:none;stroke:#FFD039;stroke-width:1.835771e-02;stroke-linecap:round;}
	.st13{clip-path:url(#SVGID_2_);fill:#FFD039;stroke:#FFD039;stroke-width:1.835771e-02;stroke-linecap:round;}
	.st14{clip-path:url(#SVGID_2_);}
	.st15{fill:none;stroke:#FFD039;stroke-width:1.835771e-02;stroke-linecap:round;}
	.st16{fill:#FFFFFF;stroke:#FFD039;stroke-width:1.835771e-02;stroke-linecap:round;}
	.st17{fill:#F99F36;}
	.st18{fill:none;stroke:#D2D2D2;stroke-miterlimit:10;}
	.st19{fill:#D2D2D2;}
	.st20{fill:none;stroke:#FFFFFF;stroke-width:1.3048;stroke-linecap:round;stroke-linejoin:round;stroke-miterlimit:10;}
	.st21{opacity:0.5;fill:#040B37;}
	.st22{fill:#E6007E;}
	.st23{fill:none;stroke:#F99F36;stroke-miterlimit:10;}
	.st24{clip-path:url(#SVGID_28_);fill:#E6007E;}
	.st25{clip-path:url(#SVGID_30_);fill:#FFFFFF;}
	.st26{opacity:0.5;clip-path:url(#SVGID_36_);fill:#040B37;}
	.st27{clip-path:url(#SVGID_36_);fill:#FFC805;}
	.st28{fill:#D40B6B;}
	.st29{fill:#BD1328;}
	.st30{fill:#707070;}
	.st31{clip-path:url(#SVGID_48_);fill:#FFFFFF;}
	.st32{clip-path:url(#SVGID_50_);fill:#FFFFFF;}
	.st33{clip-path:url(#SVGID_52_);fill:#FFFFFF;}
	.st34{fill:none;stroke:#FFFFFF;stroke-width:2;stroke-linecap:round;stroke-linejoin:round;stroke-miterlimit:10;}
	.st35{fill:none;stroke:#040B37;stroke-miterlimit:10;}
	.st36{fill:#8190FF;}
	.st37{fill:#D4D4D4;}
	.st38{fill:none;stroke:#B1B1B1;stroke-miterlimit:10;}
	.st39{fill:#757575;}
	.st40{fill:none;stroke:#F99F36;stroke-width:3;stroke-miterlimit:10;}
	.st41{fill:none;stroke:#858287;stroke-miterlimit:10;}
	.st42{fill:none;stroke:#B1B1B1;stroke-width:0.7126;stroke-miterlimit:10;}
	.st43{fill:#D3D3D3;}
	.st44{opacity:0.65;fill:#040B37;}
	.st45{fill:none;stroke:#858287;stroke-width:1.1503;stroke-miterlimit:10;}
</style>
<path class="st4" d="M14.3,25.7c-0.3,0-0.6-0.1-0.9-0.3c-3.9-2.9-8.1-6-11-10.4C0.8,12.8,0.1,10.8,0,8.7c-0.1-3.5,1.8-6.7,4.8-8
	c3-1.3,6.6-0.5,9.1,1.9l0.4,0.4c0.2-0.2,0.4-0.4,0.6-0.6c2.8-2.6,6.7-3.1,9.7-1.3c3.1,1.8,4.7,5.7,3.8,9.4c-0.7,2.9-2.4,5.2-3.8,6.8
	c-2.8,3.3-6.1,5.9-9.3,8.2C15.1,25.6,14.7,25.7,14.3,25.7z M14,23.6C14,23.6,14,23.6,14,23.6C14,23.6,14,23.6,14,23.6z M7.9,2.2
	c-0.7,0-1.5,0.1-2.2,0.4C3.6,3.6,2.1,6,2.2,8.6c0.1,1.7,0.7,3.3,2,5.2c2.7,3.9,6.4,6.9,10.1,9.6c3-2.2,6.1-4.6,8.6-7.6
	c1.2-1.5,2.7-3.4,3.3-5.9c0.7-2.8-0.5-5.6-2.8-7c-2.2-1.3-5-0.9-7,1c-0.3,0.3-0.6,0.5-0.8,0.8c-0.1,0.2-0.3,0.3-0.5,0.5l-0.8,0.8
	l-1.9-1.9C11.1,2.9,9.5,2.2,7.9,2.2z"/>
</svg>
