<?xml version="1.0" encoding="utf-8"?>
<!-- Generator: Adobe Illustrator 24.1.3, SVG Export Plug-In . SVG Version: 6.00 Build 0)  -->
<svg version="1.1" id="Layer_1" xmlns="http://www.w3.org/2000/svg" xmlns:xlink="http://www.w3.org/1999/xlink" x="0px" y="0px"
	 viewBox="0 0 31.7 21.1" style="enable-background:new 0 0 31.7 21.1;" xml:space="preserve">
<style type="text/css">
	.st0{fill:#F2F2F2;}
	.st1{fill:#515151;}
	.st2{fill:#040B37;}
	.st3{fill-rule:evenodd;clip-rule:evenodd;fill:#FFFFFF;}
	.st4{fill:#FFFFFF;}
	.st5{opacity:0.22;fill:none;stroke:#FFFFFF;stroke-width:2;stroke-miterlimit:10;}
	.st6{clip-path:url(#SVGID_2_);fill:#FFFFFF;}
	.st7{clip-path:url(#SVGID_2_);fill:#E30520;stroke:#000000;stroke-width:3.671543e-02;}
	.st8{clip-path:url(#SVGID_2_);stroke:#000000;stroke-width:3.671543e-02;}
	.st9{clip-path:url(#SVGID_2_);fill:#FFFFFF;stroke:#FFD039;stroke-width:1.835771e-02;stroke-linecap:round;}
	.st10{clip-path:url(#SVGID_2_);fill:#FFD039;}
	.st11{clip-path:url(#SVGID_2_);fill:none;stroke:#FFD039;stroke-width:1.835771e-02;stroke-linecap:round;stroke-linejoin:round;}
	.st12{clip-path:url(#SVGID_2_);fill:none;stroke:#FFD039;stroke-width:1.835771e-02;stroke-linecap:round;}
	.st13{clip-path:url(#SVGID_2_);fill:#FFD039;stroke:#FFD039;stroke-width:1.835771e-02;stroke-linecap:round;}
	.st14{clip-path:url(#SVGID_2_);}
	.st15{fill:none;stroke:#FFD039;stroke-width:1.835771e-02;stroke-linecap:round;}
	.st16{fill:#FFFFFF;stroke:#FFD039;stroke-width:1.835771e-02;stroke-linecap:round;}
	.st17{fill:#F99F36;}
	.st18{fill:none;stroke:#D2D2D2;stroke-miterlimit:10;}
	.st19{fill:#D2D2D2;}
	.st20{fill:none;stroke:#FFFFFF;stroke-width:1.3048;stroke-linecap:round;stroke-linejoin:round;stroke-miterlimit:10;}
	.st21{opacity:0.5;fill:#040B37;}
	.st22{fill:#E6007E;}
	.st23{fill:none;stroke:#F99F36;stroke-miterlimit:10;}
	.st24{clip-path:url(#SVGID_28_);fill:#E6007E;}
	.st25{clip-path:url(#SVGID_30_);fill:#FFFFFF;}
	.st26{opacity:0.5;clip-path:url(#SVGID_36_);fill:#040B37;}
	.st27{clip-path:url(#SVGID_36_);fill:#FFC805;}
	.st28{fill:#D40B6B;}
	.st29{fill:#BD1328;}
	.st30{fill:#707070;}
	.st31{clip-path:url(#SVGID_48_);fill:#FFFFFF;}
	.st32{clip-path:url(#SVGID_50_);fill:#FFFFFF;}
	.st33{clip-path:url(#SVGID_52_);fill:#FFFFFF;}
	.st34{fill:none;stroke:#FFFFFF;stroke-width:2;stroke-linecap:round;stroke-linejoin:round;stroke-miterlimit:10;}
	.st35{fill:none;stroke:#040B37;stroke-miterlimit:10;}
	.st36{fill:#8190FF;}
	.st37{fill:#D4D4D4;}
	.st38{fill:none;stroke:#B1B1B1;stroke-miterlimit:10;}
	.st39{fill:#757575;}
	.st40{fill:none;stroke:#F99F36;stroke-width:3;stroke-miterlimit:10;}
	.st41{fill:none;stroke:#858287;stroke-miterlimit:10;}
	.st42{fill:none;stroke:#B1B1B1;stroke-width:0.7126;stroke-miterlimit:10;}
	.st43{fill:#D3D3D3;}
	.st44{opacity:0.65;fill:#040B37;}
	.st45{fill:none;stroke:#858287;stroke-width:1.1503;stroke-miterlimit:10;}
</style>
<g>
	<defs>
		<path id="SVGID_1_" d="M28.4,21.1H3.3c-1.8,0-3.3-1.5-3.3-3.3V3.3C0,1.5,1.5,0,3.3,0h25.1c1.8,0,3.3,1.5,3.3,3.3v14.5
			C31.7,19.7,30.2,21.1,28.4,21.1z"/>
	</defs>
	<clipPath id="SVGID_2_">
		<use xlink:href="#SVGID_1_"  style="overflow:visible;"/>
	</clipPath>
	<rect y="7" class="st6" width="31.7" height="7"/>
	<rect class="st7" width="31.7" height="7"/>
	<rect y="14.1" class="st8" width="31.7" height="7"/>
	<path class="st9" d="M15.9,13.6c0.6,0,1.2-0.1,1.6-0.2c0.1,0,0.1-0.1,0.1-0.2c0.1-0.1,0.1-0.2,0.2-0.2c-0.1,0-0.1-0.2-0.2-0.1
		c0-0.2-0.2-0.2-0.3-0.1c-0.3,0.1-0.8,0.1-1.3,0.1c-0.5,0-1,0-1.3-0.1c-0.2-0.1-0.3,0-0.3,0.1c-0.1,0-0.1,0.2-0.2,0.1
		c0.1,0,0,0.2,0.2,0.2c0,0.1,0,0.2,0.1,0.2C14.6,13.5,15.2,13.6,15.9,13.6z"/>
	<path class="st10" d="M14.4,12.9C14.4,12.9,14.4,13,14.4,12.9C14.5,13,14.5,12.9,14.4,12.9z"/>
	<path class="st10" d="M14.5,12.8C14.4,12.8,14.4,12.9,14.5,12.8C14.5,12.9,14.5,12.8,14.5,12.8z"/>
	<path class="st10" d="M14.4,13.2C14.4,13.2,14.4,13.3,14.4,13.2C14.5,13.3,14.5,13.2,14.4,13.2z"/>
	<path class="st10" d="M14.5,13.2C14.5,13.2,14.5,13.3,14.5,13.2C14.6,13.3,14.6,13.2,14.5,13.2z"/>
	<path class="st10" d="M14.7,13.3C14.6,13.3,14.6,13.3,14.7,13.3C14.7,13.3,14.7,13.3,14.7,13.3z"/>
	<path class="st10" d="M16.2,13C16.2,13,16.2,13.1,16.2,13C16.2,13.1,16.2,13,16.2,13z"/>
	<path class="st10" d="M16.2,13.1C16.2,13.1,16.2,13.1,16.2,13.1C16.2,13.1,16.2,13.1,16.2,13.1z"/>
	<path class="st10" d="M16.3,13.4C16.3,13.4,16.3,13.4,16.3,13.4C16.3,13.4,16.3,13.4,16.3,13.4z"/>
	<path class="st10" d="M16.4,13.4C16.3,13.4,16.3,13.4,16.4,13.4C16.4,13.4,16.4,13.4,16.4,13.4z"/>
	<path class="st10" d="M17.4,13.2C17.4,13.2,17.4,13.2,17.4,13.2C17.4,13.2,17.4,13.2,17.4,13.2z"/>
	<path class="st11" d="M14.5,12.9c0,0.1-0.1,0.2-0.1,0.3c0,0,0,0.1,0,0.1c0.1,0,0.1,0,0.1-0.1c0,0,0-0.1,0,0c0,0.1-0.1,0.1,0,0.1
		c0.1,0,0.1,0,0.1-0.1c0-0.1,0,0,0,0"/>
	<path class="st11" d="M14.5,13c-0.1,0-0.1,0.1,0,0.1"/>
	<path class="st11" d="M14.8,13.3c0,0,0.1-0.1,0.1-0.1c0-0.1,0-0.1,0,0c0,0.1,0,0.1,0.1,0.1c0.1,0,0.1,0,0.2,0c0.1,0,0.1-0.1,0-0.1
		c-0.1,0-0.1,0.1,0,0.1c0,0,0.1,0.1,0.1,0.1c0,0,0,0.1,0,0.1c0,0,0.1,0,0.1-0.1c0-0.1,0-0.2,0-0.2"/>
	<path class="st11" d="M15.4,13c0,0.1,0,0.2,0,0.3"/>
	<path class="st11" d="M15.4,13.4c0.1-0.1,0.1-0.1,0.1-0.2c0-0.1-0.1-0.1,0,0c0,0,0.1,0.1,0.1,0.1c0,0,0.1,0,0.1-0.1c0,0,0,0,0,0
		c0,0,0.1,0,0.1,0c0,0,0.2,0,0.2,0c0,0,0,0,0,0.1c0,0,0,0.1,0,0.1c0,0,0,0-0.1,0c0,0,0,0-0.1,0c0,0-0.1,0-0.2,0"/>
	<path class="st11" d="M15.9,13.3c0,0,0.1,0,0.1,0c0,0,0.1,0,0.1-0.1c0-0.1-0.1-0.1-0.1,0.1"/>
	<path class="st11" d="M16.3,13c0,0.1,0,0.2,0,0.3s-0.1,0-0.1,0c0,0,0.1,0,0.1,0c0,0,0,0,0.1,0c0.1,0,0.1,0,0.1-0.1c0,0-0.1,0,0,0"
		/>
	<path class="st11" d="M16.5,13.4c0.1,0,0.1-0.1,0.1-0.2c0-0.1-0.1,0-0.1,0c0,0,0,0.1,0.1,0.1"/>
	<path class="st11" d="M16.7,13.3c0.1,0,0.1-0.1,0.1-0.1c0,0,0-0.1-0.1,0c0,0,0,0.1,0,0.1c0.1,0,0.3,0,0.4-0.1"/>
	<path class="st11" d="M16.9,13.2c0,0,0-0.1,0.1-0.1c0,0,0.1,0,0.1,0.1c0,0.1,0,0.1-0.1,0.1c0,0-0.1-0.2-0.1-0.3"/>
	<path class="st11" d="M17.3,13.1c0-0.1-0.2,0-0.1,0.1C17.2,13.2,17.3,13.2,17.3,13.1z"/>
	<path class="st11" d="M17.3,13.1C17.3,13.1,17.3,13.1,17.3,13.1"/>
	<path class="st11" d="M17.2,12.8c0.1,0,0.1,0,0.1,0.1c0,0.2,0.1,0.2,0.2,0.2c0,0,0,0,0,0"/>
	<path class="st11" d="M15,13.1C15,13.1,15,13.1,15,13.1"/>
	<path class="st11" d="M15.2,13.2C15.2,13.2,15.2,13.2,15.2,13.2"/>
	<path class="st9" d="M18,12.7l-0.2-3.6c0-0.5-0.5-0.4-0.8-0.2c-0.3,0.2-0.7,0.2-1.2,0.1c-0.4,0.2-0.8,0.1-1.2-0.1
		c-0.3-0.2-0.8-0.3-0.8,0.2l-0.2,3.6"/>
	<path class="st9" d="M16.2,9.1c0.1,0.1,0.2,0.1,0.3,0.1c-0.3-0.2-0.3-0.6-0.3-0.8c0-0.4-0.1-0.6-0.3-0.7c-0.1,0-0.1,0-0.2,0
		c-0.1,0-0.1,0.1-0.2,0.1c-0.1,0-0.1,0-0.2-0.1c-0.1,0-0.2,0-0.2,0.2l0,0c0,0,0.1,0,0.1,0.1c0.1,0,0.2,0.1,0.2,0.3
		c0,0.4,0,0.7-0.4,1c0.1,0,0.2,0,0.3-0.1c0,0.1-0.1,0.1-0.1,0.1c0.2,0,0.3-0.1,0.3-0.2c0,0,0.1,0.1,0.1,0.2C15.9,9.1,16,9.1,16,9
		c0.1,0.1,0.2,0.2,0.3,0.2C16.3,9.2,16.3,9.1,16.2,9.1z"/>
	<path class="st12" d="M16.1,8.6c0,0.2,0.1,0.3,0.1,0.5"/>
	<path class="st12" d="M16,9c-0.1-0.1-0.1-0.2-0.1-0.4"/>
	<path class="st12" d="M15.6,8.6c0,0.2-0.1,0.3-0.1,0.5"/>
	<path class="st12" d="M15.7,9c0.1-0.1,0.1-0.2,0.1-0.4"/>
	<path class="st10" d="M15.2,7.8c0,0,0.1,0,0.1,0.1c0.1,0,0.1,0.1,0.2,0.2c0-0.1,0-0.1,0.1-0.1C15.5,7.8,15.3,7.7,15.2,7.8z"/>
	<polygon class="st13" points="16,11.1 16.3,12.5 16.2,12.6 16.1,12.5 15.9,11.3 16,12.5 15.9,12.6 15.8,12.5 15.8,11.3 15.7,12.5 
		15.6,12.6 15.5,12.5 15.8,11.1 	"/>
	<path class="st13" d="M14.1,9l-0.2,3.5l-0.2,0.2l0.2-3.6C13.9,9,14.1,9,14.1,9z"/>
	<path class="st13" d="M14.4,9.2l-0.1,2.9L14,12.4L14.2,9C14.2,9.1,14.4,9.2,14.4,9.2z"/>
	<path class="st13" d="M14.7,9.4l-0.1,2.4l-0.2,0.2l0.1-2.8C14.5,9.3,14.7,9.4,14.7,9.4z"/>
	<path class="st13" d="M15,9.6l-0.1,2l-0.2,0.2l0.1-2.3C14.8,9.5,14.9,9.6,15,9.6z"/>
	<path class="st13" d="M15.2,9.6l-0.1,1.7L15,11.5L15,9.6C15.1,9.6,15.2,9.6,15.2,9.6z"/>
	<path class="st13" d="M17.6,9l0.2,3.5l0.2,0.2l-0.2-3.6C17.8,9,17.7,9,17.6,9z"/>
	<path class="st13" d="M17.3,9.2l0.1,2.9l0.2,0.2L17.5,9C17.5,9.1,17.4,9.2,17.3,9.2z"/>
	<path class="st13" d="M17,9.4l0.1,2.4l0.2,0.2l-0.1-2.8C17.2,9.3,17.1,9.4,17,9.4z"/>
	<path class="st13" d="M16.8,9.6l0.1,2l0.2,0.2L17,9.5C16.9,9.5,16.8,9.6,16.8,9.6z"/>
	<path class="st13" d="M16.5,9.6l0.1,1.7l0.2,0.2l-0.1-1.9C16.6,9.6,16.5,9.6,16.5,9.6z"/>
	<polygon class="st9" points="15.2,10.5 14.6,12.6 15.4,12.7 15.8,11.2 	"/>
	<polygon class="st9" points="16.5,10.5 17.1,12.6 16.3,12.7 16,11.2 	"/>
	<g class="st14">
		<polyline class="st15" points="15,11.2 15.1,11.4 15.3,11.2 		"/>
		<polyline class="st15" points="15.3,10.8 15.3,11.5 15.6,11.2 		"/>
		<line class="st15" x1="15.5" y1="11.3" x2="15.6" y2="11.7"/>
		<polyline class="st15" points="15.6,11.8 15.4,12 15.3,11.6 15.2,11.9 15.1,11.6 14.8,11.8 		"/>
		<polyline class="st15" points="14.8,11.9 14.9,12.3 15.1,12.1 15.2,12.4 15.4,12.1 15.5,12.5 		"/>
		<polyline class="st15" points="14.8,12.6 14.9,12.4 15,12.7 15.2,12.4 15.3,12.7 15.4,12.6 		"/>
	</g>
	<g class="st14">
		<polyline class="st15" points="16.7,11.2 16.6,11.4 16.4,11.2 		"/>
		<polyline class="st15" points="16.5,10.8 16.4,11.5 16.1,11.2 		"/>
		<line class="st15" x1="16.2" y1="11.3" x2="16.1" y2="11.7"/>
		<polyline class="st15" points="16.1,11.8 16.3,12 16.4,11.6 16.6,11.9 16.7,11.6 16.9,11.8 		"/>
		<polyline class="st15" points="16.9,11.9 16.8,12.3 16.6,12.1 16.5,12.4 16.3,12.1 16.2,12.5 		"/>
		<polyline class="st15" points="17,12.6 16.8,12.4 16.7,12.7 16.5,12.4 16.4,12.7 16.3,12.6 		"/>
	</g>
	<path class="st9" d="M15.9,9.3c0.2,0.2,0.6,0.3,1,0.3c0,0.9-0.3,1.5-1,1.9c-0.7-0.4-0.9-1.1-1-1.9C15.3,9.6,15.6,9.5,15.9,9.3z"/>
	<path class="st9" d="M15.9,11.4c0.5-0.3,0.8-0.9,0.9-1.7c-0.3,0-0.6-0.1-0.9-0.2c-0.2,0.2-0.5,0.3-0.9,0.2
		C15,10.4,15.3,11,15.9,11.4z"/>
	<path class="st13" d="M16.1,9.5c0.2,0.1,0.4,0.1,0.6,0.1c0,0.6-0.2,1.2-0.6,1.5L16.1,9.5z"/>
	<path class="st13" d="M15.6,9.5c-0.2,0.1-0.4,0.1-0.6,0.1c0,0.6,0.2,1.2,0.6,1.5L15.6,9.5z"/>
	<g class="st14">
		<path class="st16" d="M15,12.6c0.2,0,0.4,0,0.6,0c0.1,0,0.2,0.2,0,0.2c-0.2,0-0.4,0-0.6,0c-0.1,0-0.4-0.1-0.6-0.1
			c-0.2-0.1-0.1-0.2,0-0.2C14.6,12.5,14.8,12.6,15,12.6z"/>
		<path class="st16" d="M16.7,12.6c-0.2,0-0.4,0-0.6,0c-0.1,0-0.2,0.2,0,0.2c0.2,0,0.4,0,0.6,0c0.1,0,0.4-0.1,0.6-0.1
			c0.2-0.1,0.1-0.2,0-0.2C17.1,12.5,16.9,12.6,16.7,12.6z"/>
	</g>
	<g class="st14">
		<path class="st16" d="M14.4,12.5c-0.1,0-0.2,0.1-0.2,0.2c0-0.1,0.1-0.1,0.1-0.1C14.4,12.6,14.3,12.6,14.4,12.5z"/>
		<path class="st16" d="M15,12.9c0-0.1,0.1,0,0.1-0.1c0-0.1,0-0.1-0.1-0.1c-0.1,0-0.1,0-0.1,0.1C14.9,12.9,15,12.8,15,12.9z"/>
		<path class="st16" d="M15.7,12.7c0.1,0,0.2,0.2,0.1,0.3c0-0.1-0.1-0.1-0.1-0.1C15.6,12.8,15.7,12.8,15.7,12.7z"/>
		<path class="st16" d="M17.3,12.5c0.1,0,0.2,0.1,0.2,0.2c0-0.1-0.1-0.1-0.1-0.1C17.3,12.6,17.4,12.6,17.3,12.5z"/>
		<path class="st16" d="M16.7,12.9c0-0.1-0.1,0-0.1-0.1c0-0.1,0-0.1,0.1-0.1c0.1,0,0.1,0,0.1,0.1C16.8,12.9,16.7,12.8,16.7,12.9z"/>
		<path class="st16" d="M16.1,12.7c-0.1,0-0.2,0.2-0.1,0.3c0-0.1,0.1-0.1,0.1-0.1C16.1,12.8,16,12.8,16.1,12.7z"/>
	</g>
	<g class="st14">
		<path class="st16" d="M14.4,12.6c0,0,0.1,0,0.1,0.1"/>
		<path class="st16" d="M14.7,12.7c0,0,0.1,0,0.2,0"/>
		<path class="st16" d="M15.6,12.8c0,0-0.1,0-0.2,0"/>
		<path class="st16" d="M15.3,12.8c0,0-0.1,0-0.2,0"/>
		<path class="st16" d="M17.3,12.6c0,0-0.1,0-0.1,0.1"/>
		<path class="st16" d="M17,12.7c0,0-0.1,0-0.2,0"/>
		<path class="st16" d="M16.1,12.8c0,0,0.1,0,0.2,0"/>
		<path class="st16" d="M16.4,12.8c0,0,0.1,0,0.2,0"/>
	</g>
	<path class="st10" d="M16.2,7.8c0-0.1-0.1-0.2-0.3-0.2c-0.1,0-0.1,0-0.2,0c-0.1,0-0.1,0.1-0.2,0.1c0.1,0,0.1,0.1,0.2,0.1
		c0.1,0,0.1,0,0.2-0.1C16,7.7,16.2,7.7,16.2,7.8z"/>
	<path class="st6" d="M15.7,7.7C15.7,7.7,15.7,7.8,15.7,7.7C15.8,7.8,15.8,7.7,15.7,7.7z"/>
</g>
</svg>
