<svg xmlns="http://www.w3.org/2000/svg" width="404.277" height="463.012" viewBox="0 0 404.277 463.012">
  <g id="Group_3132" data-name="Group 3132" transform="translate(0.268 0.234)">
    <rect id="Rectangle_158" data-name="Rectangle 158" width="403.74" height="462.543" transform="translate(0)" fill="#d4d4d4"/>
    <line id="Line_46" data-name="Line 46" x2="403.74" y2="462.543" transform="translate(0)" fill="none" stroke="#b1b1b1" stroke-miterlimit="10" stroke-width="0.713"/>
    <line id="Line_47" data-name="Line 47" x1="403.74" y2="462.543" transform="translate(0)" fill="none" stroke="#b1b1b1" stroke-miterlimit="10" stroke-width="0.713"/>
    <g id="Group_279" data-name="Group 279" transform="translate(122.405 423.559)">
      <path id="Path_1777" data-name="Path 1777" d="M520.583,858.253v2.133h-9.23a8.16,8.16,0,0,1-3.88-.772,4.428,4.428,0,0,1-2.037-2.457,13.63,13.63,0,0,1-.623-4.59,14.506,14.506,0,0,1,.6-4.606,4.5,4.5,0,0,1,1.968-2.534,7.3,7.3,0,0,1,3.7-.8q1.026,0,3.147.108t3.2.231v13.29ZM507.4,855.874a3.288,3.288,0,0,0,1.482,1.808,5.847,5.847,0,0,0,2.828.571h3.576V846.972q-2.44-.184-3.77-.185a4.22,4.22,0,0,0-3.548,1.329,7.282,7.282,0,0,0-1.026,4.388A10,10,0,0,0,507.4,855.874Zm1.706-16.412h2.106v2.6h-2.106Zm3.464,0h2.106v2.6h-2.106Z" transform="translate(-504.813 -838.195)" fill="#757575"/>
      <path id="Path_1778" data-name="Path 1778" d="M532.792,858.253v2.133H522.4v-2.133h4.131V844.932h2.133v13.321Zm-8.009,4.606h2.106v2.6h-2.106Zm3.464,0h2.107v2.6h-2.107Z" transform="translate(-506.628 -838.195)" fill="#757575"/>
      <path id="Path_1779" data-name="Path 1779" d="M540.253,844.932v15.454h-6.265v-2.133h4.131V844.932Zm-2.134-5.47h2.107v2.6h-2.107Z" transform="translate(-507.824 -838.195)" fill="#757575"/>
      <path id="Path_1780" data-name="Path 1780" d="M560.26,858.253v2.133H544.683v-2.133h3.548V842.368h2.134v15.885h5.322V838.2h2.107v20.058Z" transform="translate(-508.928 -838.195)" fill="#757575"/>
      <path id="Path_1781" data-name="Path 1781" d="M576.659,858.253v2.133H562.053v-2.133h5.182a8.381,8.381,0,0,1-1.3-2.658,12.291,12.291,0,0,1-.526-3.708,8.52,8.52,0,0,1,1.511-5.255,5.1,5.1,0,0,1,4.337-2.008,9.143,9.143,0,0,1,2.315.324,9.291,9.291,0,0,1,2.258.912l-.083,2.1a6.137,6.137,0,0,0-1.774-.772,8.214,8.214,0,0,0-2.466-.433,3.4,3.4,0,0,0-2.939,1.422,6.485,6.485,0,0,0-1.025,3.864,9.675,9.675,0,0,0,.651,3.631,7.493,7.493,0,0,0,1.621,2.58Z" transform="translate(-510.721 -838.195)" fill="#757575"/>
      <path id="Path_1782" data-name="Path 1782" d="M582.049,838.2h2.134v22.191h-2.134Z" transform="translate(-512.785 -838.195)" fill="#757575"/>
      <path id="Path_1783" data-name="Path 1783" d="M611.016,858.253v2.133h-9.229a8.165,8.165,0,0,1-3.881-.772,4.429,4.429,0,0,1-2.037-2.457,13.653,13.653,0,0,1-.623-4.59,14.532,14.532,0,0,1,.6-4.606,4.509,4.509,0,0,1,1.968-2.534,7.3,7.3,0,0,1,3.7-.8q1.025,0,3.146.108t3.2.231v13.29Zm-13.178-2.379a3.28,3.28,0,0,0,1.482,1.808,5.855,5.855,0,0,0,2.828.571h3.576V846.972q-2.441-.184-3.769-.185a4.221,4.221,0,0,0-3.549,1.329,7.29,7.29,0,0,0-1.025,4.388A10,10,0,0,0,597.838,855.874Zm1.7-16.412h2.107v2.6h-2.107Zm3.464,0h2.107v2.6h-2.107Z" transform="translate(-514.147 -838.195)" fill="#757575"/>
      <path id="Path_1784" data-name="Path 1784" d="M626.079,849.909v10.477H612.831v-2.133h11.115v-8.376a3.351,3.351,0,0,0-.721-2.333,2.787,2.787,0,0,0-2.161-.788,46.491,46.491,0,0,0-4.934.494l-.776.093-.083-1.761a31.008,31.008,0,0,1,6.264-.958Q626.08,844.624,626.079,849.909Z" transform="translate(-515.962 -838.195)" fill="#757575"/>
      <path id="Path_1785" data-name="Path 1785" d="M636.98,858.253v2.133h-4.74V838.2h2.134v20.058Z" transform="translate(-517.966 -838.195)" fill="#757575"/>
      <path id="Path_1786" data-name="Path 1786" d="M661.029,858.253v2.133h-7.76a4.4,4.4,0,0,1-3.077-1.3,3.158,3.158,0,0,1-2.633,1.3H637.525v-2.133h4.49V846.478h2.134v11.775h2.744a1.91,1.91,0,0,0,1.843-1.22,7.3,7.3,0,0,0,.569-3.075v-7.48h2.134v7.448a12.285,12.285,0,0,1-.388,3.277,4.357,4.357,0,0,0,1.053.726,2.8,2.8,0,0,0,1.275.324h2.91v-6.707q0-1.173-.152-2.951t-.345-3.57l1.746-.093q.359,1.762.623,3.74a25.218,25.218,0,0,1,.263,3.122v6.459Z" transform="translate(-518.511 -838.195)" fill="#757575"/>
      <path id="Path_1787" data-name="Path 1787" d="M678.259,846.478q1.607,1.854,1.608,6.182v7.726H663.735v-2.133h4.574a37.9,37.9,0,0,1-.167-9.5,32.584,32.584,0,0,1,.5-3.292,9.33,9.33,0,0,1,1.94-.572,13.311,13.311,0,0,1,2.689-.262A6.26,6.26,0,0,1,678.259,846.478Zm-8.08,9.38q.125,1.5.264,2.4h7.29v-5.625q0-3.152-1.192-4.512a4.577,4.577,0,0,0-3.631-1.36,8.624,8.624,0,0,0-2.412.309,35.637,35.637,0,0,0-.443,5.78Q670.055,854.36,670.179,855.858Z" transform="translate(-521.216 -838.195)" fill="#757575"/>
    </g>
  </g>
</svg>
