<svg xmlns="http://www.w3.org/2000/svg" width="19.592" height="19.592" viewBox="0 0 19.592 19.592">
  <g id="icon-logout" transform="translate(0 0)">
    <g id="Group_2672" data-name="Group 2672" transform="translate(0 0)">
      <path id="Path_13086" data-name="Path 13086" d="M1257.471-98.05h-7.755a.612.612,0,0,1-.612-.612.613.613,0,0,1,.612-.612h7.755a.613.613,0,0,1,.612.612A.612.612,0,0,1,1257.471-98.05Z" transform="translate(-1238.492 107.233)" fill="#f99f36"/>
      <path id="Path_13087" data-name="Path 13087" d="M1255.238-95.529a.606.606,0,0,1-.432-.179.612.612,0,0,1,0-.866l2.628-2.628-2.628-2.628a.612.612,0,0,1,0-.866.613.613,0,0,1,.866,0l3.061,3.061a.613.613,0,0,1,0,.866l-3.061,3.061A.609.609,0,0,1,1255.238-95.529Z" transform="translate(-1239.32 107.773)" fill="#f99f36"/>
      <path id="Path_13088" data-name="Path 13088" d="M1243.151-89.045a1.67,1.67,0,0,1-.507-.077l-4.913-1.636a1.647,1.647,0,0,1-1.111-1.552V-107a1.634,1.634,0,0,1,1.632-1.633,1.671,1.671,0,0,1,.507.077l4.912,1.636a1.647,1.647,0,0,1,1.112,1.552v14.694A1.634,1.634,0,0,1,1243.151-89.045Zm-4.9-18.367a.409.409,0,0,0-.408.408V-92.31a.425.425,0,0,0,.283.394l4.89,1.629a.426.426,0,0,0,.134.018.409.409,0,0,0,.408-.408v-14.694a.425.425,0,0,0-.283-.393l-4.89-1.63A.429.429,0,0,0,1238.253-107.412Z" transform="translate(-1236.621 108.637)" fill="#040b37"/>
      <path id="Path_13089" data-name="Path 13089" d="M1249.25-102.106a.613.613,0,0,1-.613-.613v-3.673a1.021,1.021,0,0,0-1.02-1.02h-9.184a.613.613,0,0,1-.612-.613.613.613,0,0,1,.612-.612h9.184a2.247,2.247,0,0,1,2.245,2.245v3.673A.613.613,0,0,1,1249.25-102.106Z" transform="translate(-1236.801 108.637)" fill="#040b37"/>
      <path id="Path_13090" data-name="Path 13090" d="M1248.66-89.623H1245.4a.612.612,0,0,1-.612-.612.612.612,0,0,1,.612-.612h3.265a1.021,1.021,0,0,0,1.02-1.021v-3.673a.613.613,0,0,1,.613-.612.612.612,0,0,1,.612.612v3.673A2.247,2.247,0,0,1,1248.66-89.623Z" transform="translate(-1237.844 106.766)" fill="#040b37"/>
    </g>
  </g>
</svg>
