<svg xmlns="http://www.w3.org/2000/svg" width="14.847" height="14.847" viewBox="0 0 14.847 14.847">
  <g id="icon-clock" transform="translate(-528.098 -36.985)">
    <path id="Path_13532" data-name="Path 13532" d="M535.522,51.832a7.424,7.424,0,1,0-7.424-7.423A7.423,7.423,0,0,0,535.522,51.832Zm-4.5-2.316-.606-.606,1.4-1.4.605.606Zm4.93,1.688h-.856V49.23h.856Zm6.369-7.223v.856h-1.974v-.856ZM540.024,39.3l.606.606-1.4,1.4-.6-.606Zm-.791,8.214,1.4,1.4-.606.606-1.4-1.4Zm-4.139-9.9h.856v1.974h-.856Zm-.762,5.059,1.274,1.234,2.326-2.285.6.61L535.61,45.1l-1.875-1.814ZM531.019,39.3l1.4,1.4-.605.606-1.4-1.4Zm-.319,4.681v.856h-1.974v-.856Z" fill="#fff"/>
  </g>
</svg>
