<svg xmlns="http://www.w3.org/2000/svg" width="15.998" height="20.176" viewBox="0 0 15.998 20.176">
  <g id="icon-order" transform="translate(0 0)">
    <g id="Group_2677" data-name="Group 2677" transform="translate(0 0)">
      <g id="Group_2676" data-name="Group 2676">
        <path id="Path_13096" data-name="Path 13096" d="M1253.153-312.12l-.9-11.354a1.419,1.419,0,0,0-1.408-1.3h-1.779v-.08a3.9,3.9,0,0,0-3.9-3.9,3.9,3.9,0,0,0-3.9,3.9v.08h-1.779a1.419,1.419,0,0,0-1.409,1.3l-.9,11.357a3.294,3.294,0,0,0,.865,2.483,3.3,3.3,0,0,0,2.41,1.053h9.427a3.3,3.3,0,0,0,2.41-1.053A3.3,3.3,0,0,0,1253.153-312.12Zm-10.708-12.738a2.722,2.722,0,0,1,2.719-2.719,2.721,2.721,0,0,1,2.718,2.719v.08h-5.436Zm8.975,14.42a2.082,2.082,0,0,1-1.543.673h-9.427a2.082,2.082,0,0,1-1.543-.673,2.082,2.082,0,0,1-.554-1.589l.9-11.356a.232.232,0,0,1,.23-.213h1.779v1.455a.591.591,0,0,0,.591.591.591.591,0,0,0,.591-.591V-323.6h5.436v1.455a.591.591,0,0,0,.592.591.591.591,0,0,0,.591-.591V-323.6h1.779a.232.232,0,0,1,.23.214l.9,11.354A2.082,2.082,0,0,1,1251.42-310.438Z" transform="translate(-1237.165 328.758)" fill="#040b37"/>
      </g>
    </g>
    <g id="Group_2679" data-name="Group 2679" transform="translate(5.164 9.847)">
      <g id="Group_2678" data-name="Group 2678">
        <path id="Path_13097" data-name="Path 13097" d="M1248.736-317a.592.592,0,0,0-.836,0l-2.638,2.639-1.015-1.014a.59.59,0,0,0-.836,0,.591.591,0,0,0,0,.836l1.432,1.432a.592.592,0,0,0,.418.173.59.59,0,0,0,.417-.173l3.056-3.057A.59.59,0,0,0,1248.736-317Z" transform="translate(-1243.239 317.174)" fill="#f99f36"/>
      </g>
    </g>
  </g>
</svg>
