<svg xmlns="http://www.w3.org/2000/svg" width="18.121" height="18.121" viewBox="0 0 18.121 18.121">
  <g id="icon-profile" transform="translate(0 0)">
    <path id="Path_13094" data-name="Path 13094" d="M1254.037-144a9.055,9.055,0,0,0-9.061-9.06,9.055,9.055,0,0,0-9.06,9.06,9.062,9.062,0,0,0,9.06,9.06A9.061,9.061,0,0,0,1254.037-144Zm-9.061-8a8.008,8.008,0,0,1,8,8,7.964,7.964,0,0,1-1.37,4.477,9.057,9.057,0,0,0-13.258,0,7.959,7.959,0,0,1-1.369-4.477A8.008,8.008,0,0,1,1244.976-152Zm-5.967,13.325a8,8,0,0,1,11.933,0A7.991,7.991,0,0,1,1239.009-138.678Z" transform="translate(-1235.916 153.065)" fill="#040b37"/>
    <path id="Path_13095" data-name="Path 13095" d="M1246.012-143.094a3.189,3.189,0,0,0,3.185-3.185v-1.062a3.189,3.189,0,0,0-3.185-3.185,3.189,3.189,0,0,0-3.185,3.185v1.062A3.188,3.188,0,0,0,1246.012-143.094Zm-2.124-4.247a2.126,2.126,0,0,1,2.124-2.124,2.126,2.126,0,0,1,2.124,2.124v1.062a2.126,2.126,0,0,1-2.124,2.124,2.125,2.125,0,0,1-2.124-2.124Z" transform="translate(-1236.952 152.685)" fill="#f99f36"/>
  </g>
</svg>
