<svg xmlns="http://www.w3.org/2000/svg" width="19.467" height="19.467" viewBox="0 0 19.467 19.467">
  <g id="icon-wallet" transform="translate(0 0)">
    <path id="Path_13091" data-name="Path 13091" d="M1253.2-190.954h-.08v-2.292a2.448,2.448,0,0,0-1.768-2.338l-1.619-2.8a2.115,2.115,0,0,0-1.294-.993,2.125,2.125,0,0,0-.994-.027l-1.1-1.1a2.134,2.134,0,0,0-3.015,0l-4.835,4.835h-.932a2.432,2.432,0,0,0-2.43,2.43v9.149a2.432,2.432,0,0,0,2.43,2.43h4.906a.659.659,0,0,0,.659-.659.659.659,0,0,0-.659-.659h-4.906a1.113,1.113,0,0,1-1.112-1.112v-9.149a1.113,1.113,0,0,1,1.112-1.112h13.133a1.113,1.113,0,0,1,1.112,1.112v2.292h-2.441a2.285,2.285,0,0,0-2.282,2.282,2.284,2.284,0,0,0,2.282,2.282h2.441v2.293a1.113,1.113,0,0,1-1.112,1.112h-4.907a.66.66,0,0,0-.659.659.66.66,0,0,0,.659.659h4.907a2.432,2.432,0,0,0,2.429-2.43v-2.293h.08a1.4,1.4,0,0,0,1.4-1.4v-1.771A1.4,1.4,0,0,0,1253.2-190.954Zm.078,1.4v1.771a.078.078,0,0,1-.078.079h-3.837a.965.965,0,0,1-.964-.964.966.966,0,0,1,.964-.965h3.837A.079.079,0,0,1,1253.274-189.558Zm-7.091-9.244-5.414,3.126h-.42l3.9-3.9a.834.834,0,0,1,1.152,0Zm3.59,3.126H1243.4l4.07-2.35a.8.8,0,0,1,.618-.082h0a.808.808,0,0,1,.495.379Z" transform="translate(-1235.124 201.135)" fill="#040b37"/>
    <path id="Path_13092" data-name="Path 13092" d="M1251.215-187.055a.661.661,0,0,0-.194.467.66.66,0,0,0,.192.465.662.662,0,0,0,.467.194.664.664,0,0,0,.465-.192.666.666,0,0,0,.194-.467.665.665,0,0,0-.193-.466A.682.682,0,0,0,1251.215-187.055Z" transform="translate(-1237.507 199.051)" fill="#f99f36"/>
    <path id="Path_13093" data-name="Path 13093" d="M1245.124-179.59a.663.663,0,0,0-.193.466.665.665,0,0,0,.193.466.665.665,0,0,0,.466.193.662.662,0,0,0,.466-.193.666.666,0,0,0,.193-.466.664.664,0,0,0-.193-.466A.682.682,0,0,0,1245.124-179.59Z" transform="translate(-1236.594 197.933)" fill="#f99f36"/>
  </g>
</svg>
