<svg xmlns="http://www.w3.org/2000/svg" width="19.202" height="19.202" viewBox="0 0 19.202 19.202">
  <g id="icon-returned" transform="translate(0 0)">
    <path id="Path_13098" data-name="Path 13098" d="M1245.824-237.719a1.836,1.836,0,0,0-1.834,1.834v1.388h-1.975l-.445,8.178h8.508l-.446-8.178h-1.974v-1.388A1.836,1.836,0,0,0,1245.824-237.719Zm-1.309,1.834a1.31,1.31,0,0,1,1.309-1.31,1.312,1.312,0,0,1,1.31,1.31v1.388h-2.619Zm3.422,4.577v1.8h-4.228v-1.8Z" transform="translate(-1236.223 240.859)" fill="#f99f36"/>
    <path id="Path_13099" data-name="Path 13099" d="M1238.092-238.6a9.537,9.537,0,0,0-2.812,6.789,9.539,9.539,0,0,0,2.812,6.789,9.537,9.537,0,0,0,6.789,2.812,9.542,9.542,0,0,0,6.789-2.812,9.539,9.539,0,0,0,2.812-6.789,9.63,9.63,0,0,0-1.291-4.807l-.341-.591,1.483.26.09-.517-3-.525-.525,3,.516.091.3-1.7.437.787a8.164,8.164,0,0,1,1.029,4.01,8.311,8.311,0,0,1-8.3,8.3,8.311,8.311,0,0,1-8.3-8.3,8.311,8.311,0,0,1,8.3-8.3,8.274,8.274,0,0,1,4.223,1.153l.7-1.092a9.562,9.562,0,0,0-4.927-1.359A9.534,9.534,0,0,0,1238.092-238.6Z" transform="translate(-1235.28 241.413)" fill="#040b37"/>
  </g>
</svg>
