<svg xmlns="http://www.w3.org/2000/svg" width="100.623" height="44.998" viewBox="0 0 100.623 44.998"><g transform="translate(42.519 32.338)"><path d="M1565.069,107.185q0-.524-.033-.962t-.073-.806q-.041-.368-.073-.682a5.71,5.71,0,0,1-.032-.6,1.452,1.452,0,0,1,.106-.43,6.858,6.858,0,0,1,.287-.669q.031-.059.474-.155t.968-.158q.525-.061.879-.066a3.253,3.253,0,0,1-.293-.343c-.087-.118-.172-.226-.252-.322a1.557,1.557,0,0,0-.241-.237.408.408,0,0,0-.254-.093.681.681,0,0,0-.42.158,2.324,2.324,0,0,0-.432.474l-.378-.2a3.535,3.535,0,0,1,.654-1.112,1.053,1.053,0,0,1,.75-.406.683.683,0,0,1,.431.171,2.739,2.739,0,0,1,.478.557,8.153,8.153,0,0,0,.576.756,2.9,2.9,0,0,0,.542.49l-.424,1.107a13.5,13.5,0,0,0-1.55.1,8.278,8.278,0,0,0-1.3.234q.132.7.421,2.032l.13.636A3.885,3.885,0,0,1,1565.069,107.185Z" transform="translate(-1564.857 -97.825)" fill="#fff"/><path d="M1574.156,104.049a2.662,2.662,0,0,1-.843,1.371,2.077,2.077,0,0,1-1.386.526,1.455,1.455,0,0,1-.6-.239,4.836,4.836,0,0,1-.742-.52l.15-.385a4.1,4.1,0,0,0,1.018.127,2.329,2.329,0,0,0,1.054-.239,1.825,1.825,0,0,0,.746-.656,5.667,5.667,0,0,1-1.4-.182,1.172,1.172,0,0,1-.623-.44,1.329,1.329,0,0,1-.2-.758,2.722,2.722,0,0,1,.2-1.029,2.227,2.227,0,0,1,.515-.791.93.93,0,0,1,.636-.3,1,1,0,0,1,.689.309,2.537,2.537,0,0,1,.561.877,4.221,4.221,0,0,1,.3,1.224h.5c.054,0,.081.026.081.077v.949c0,.051-.027.077-.081.077Zm-.54-1.11a2.509,2.509,0,0,0-.486-.958.877.877,0,0,0-.659-.337.649.649,0,0,0-.461.185.572.572,0,0,0-.195.424q0,.513.918.636A7.782,7.782,0,0,0,1573.616,102.939Z" transform="translate(-1565.921 -97.816)" fill="#fff"/><path d="M1575.553,103.428a.068.068,0,0,1-.077-.077V102.4a.069.069,0,0,1,.077-.077q1.13,0,1.791-.069a3.55,3.55,0,0,0,1.043-.239,2.592,2.592,0,0,0-.646-.76,7.012,7.012,0,0,0-1.147-.791.858.858,0,0,1-.235.035.642.642,0,0,1-.446-.178.552.552,0,0,1-.195-.424,3.93,3.93,0,0,1,.1-.663,1.457,1.457,0,0,1,.147-.5q1.323-.656,1.71-.833t.877-.385q.49-.209.771-.32a.611.611,0,0,1,.181.463.836.836,0,0,1-.129.441.905.905,0,0,1-.357.33q-.229.12-.7.327t-.941.372q-.467.164-1.118.345a4.3,4.3,0,0,1,1.293.577,3.5,3.5,0,0,1,.956.9,1.682,1.682,0,0,1,.357.954,1.09,1.09,0,0,1-.36.818,2.425,2.425,0,0,1-1.117.524A7.984,7.984,0,0,1,1575.553,103.428Z" transform="translate(-1566.829 -97.195)" fill="#fff"/><path d="M1581.8,104.367a.219.219,0,0,1-.068-.158v-.959a.231.231,0,0,1,.226-.226h.958a.232.232,0,0,1,.226.226v.959a.232.232,0,0,1-.226.226h-.958A.217.217,0,0,1,1581.8,104.367Z" transform="translate(-1567.991 -98.278)" fill="#fff"/></g><g transform="translate(7.448 39.428)"><path d="M1522.61,106.708a2.893,2.893,0,0,1,4,0,2.8,2.8,0,0,1,0,3.961,2.893,2.893,0,0,1-4,0,2.8,2.8,0,0,1,0-3.961Z" transform="translate(-1521.788 -105.903)" fill="#fff"/><path d="M1532.062,106.708a2.894,2.894,0,0,1,4,0,2.8,2.8,0,0,1,0,3.961,2.894,2.894,0,0,1-4,0,2.8,2.8,0,0,1,0-3.961Z" transform="translate(-1523.544 -105.903)" fill="#fff"/></g><path d="M4.79,0H10.6a4.79,4.79,0,0,1,4.79,4.79v.851a0,0,0,0,1,0,0H0a0,0,0,0,1,0,0V4.79A4.79,4.79,0,0,1,4.79,0Z" transform="translate(13.356 14.325)" fill="#fff"/><g transform="translate(0 0)"><path d="M1537.285,84.847H1525.99v2.567a3.069,3.069,0,0,0,3.08,3.08h6.674v.769a3.32,3.32,0,0,1-1.1,2.619,3.664,3.664,0,0,1-2.49.976h-10.268a3.206,3.206,0,0,1-2.644-1.181,4.37,4.37,0,0,1-.949-2.824v-.6a1.052,1.052,0,0,0-1.027-1.026h-3.594a1.053,1.053,0,0,0-1.027,1.026v1.011a9.114,9.114,0,0,0,.719,3.594,9.15,9.15,0,0,0,4.929,4.928,9.1,9.1,0,0,0,3.593.719h10.268a9.1,9.1,0,0,0,3.593-.719,9.145,9.145,0,0,0,4.929-4.928,9.1,9.1,0,0,0,.719-3.594v-2.31a4.12,4.12,0,0,0-4.107-4.107Z" transform="translate(-1512.641 -62.564)" fill="#fff"/><path d="M1608.16,67.867a2.662,2.662,0,0,0,.822,1.98,2.894,2.894,0,0,0,4,0,2.8,2.8,0,0,0,0-3.961,2.894,2.894,0,0,0-4,0A2.662,2.662,0,0,0,1608.16,67.867Z" transform="translate(-1530.38 -58.893)" fill="#fff"/><path d="M1602.787,70.652a2.752,2.752,0,0,0,2-.8,2.8,2.8,0,0,0,0-3.961,2.893,2.893,0,0,0-4,0,2.8,2.8,0,0,0,0,3.961A2.75,2.75,0,0,0,1602.787,70.652Z" transform="translate(-1528.859 -58.893)" fill="#fff"/><path d="M1606.885,63.052a2.755,2.755,0,0,0,2-.8,2.8,2.8,0,0,0,0-3.961,2.894,2.894,0,0,0-4,0,2.8,2.8,0,0,0,0,3.961A2.752,2.752,0,0,0,1606.885,63.052Z" transform="translate(-1529.62 -57.482)" fill="#fff"/><path d="M1608.67,75.075h-3.593a1.052,1.052,0,0,0-1.027,1.027V86.369h-4.621V76.1a1.052,1.052,0,0,0-1.027-1.027h-3.594a1.052,1.052,0,0,0-1.027,1.027V86.369h-4.621V76.1a1.052,1.052,0,0,0-1.027-1.027h-3.593a1.052,1.052,0,0,0-1.027,1.027V86.369h-9.754V76.1a1.052,1.052,0,0,0-1.027-1.027h-3.594a1.052,1.052,0,0,0-1.027,1.027V86.369h-7.7V76.1a1.052,1.052,0,0,0-1.027-1.027h-3.594a1.053,1.053,0,0,0-1.027,1.027V92.017a3.646,3.646,0,0,1-.924,2.8,3.427,3.427,0,0,1-2.413.847,7.589,7.589,0,0,1-1.489-.154l-1.233,4.878a13.775,13.775,0,0,0,3.7.513,9.483,9.483,0,0,0,3.158-.513,6.666,6.666,0,0,0,2.541-1.592,7.439,7.439,0,0,0,1.694-2.772,11.712,11.712,0,0,0,.617-4h45.178a4.121,4.121,0,0,0,4.108-4.107V76.1a1.052,1.052,0,0,0-1.027-1.027Z" transform="translate(-1519.339 -60.749)" fill="#fff"/><path d="M1634.617,57.79a.987.987,0,0,0-.719-.308H1630.3a1.052,1.052,0,0,0-1.027,1.027V87.723a1.054,1.054,0,0,0,1.027,1.027h3.594a1.054,1.054,0,0,0,1.027-1.027V58.509A.986.986,0,0,0,1634.617,57.79Z" transform="translate(-1534.303 -57.482)" fill="#fff"/><path d="M1567.366,71.407a2.623,2.623,0,0,0,1.906-.766,2.664,2.664,0,0,0,0-3.772,2.756,2.756,0,0,0-3.813,0,2.666,2.666,0,0,0,0,3.772A2.625,2.625,0,0,0,1567.366,71.407Z" transform="translate(-1522.305 -59.083)" fill="#fff"/><path d="M1575.171,71.407a2.621,2.621,0,0,0,1.906-.766,2.663,2.663,0,0,0,0-3.772,2.755,2.755,0,0,0-3.813,0,2.666,2.666,0,0,0,0,3.772A2.624,2.624,0,0,0,1575.171,71.407Z" transform="translate(-1523.755 -59.083)" fill="#fff"/><path d="M1633.433,100.331h-.127a1.792,1.792,0,0,1-.757-.135,1.329,1.329,0,0,1-.442-.337.8.8,0,0,1-.158-.438,1.167,1.167,0,0,1,.063-.337.949.949,0,0,1,.316-.27l.695-.1h.379a.709.709,0,0,0,.537-.169.807.807,0,0,0,.19-.573.677.677,0,0,0-.19-.573.7.7,0,0,0-.537-.2h-.632a2.815,2.815,0,0,0-.948.169,2.083,2.083,0,0,0-.695.37,1.439,1.439,0,0,0-.41.573,1.924,1.924,0,0,0-.158.674,1.55,1.55,0,0,0,.221.809,2,2,0,0,0,.569.708h-.284a.488.488,0,0,0-.316.1.289.289,0,0,0-.19.2,1.149,1.149,0,0,0-.063.27.809.809,0,0,0,.189.573.667.667,0,0,0,.506.169h2.243a.918.918,0,0,0,.568-.169,1.013,1.013,0,0,0,.158-.573.674.674,0,0,0-.19-.573A.854.854,0,0,0,1633.433,100.331Z" transform="translate(-1534.529 -64.857)" fill="#fff"/></g></svg>