<svg id="logo-eshtry" xmlns="http://www.w3.org/2000/svg" width="57.54" height="25.732" viewBox="0 0 57.54 25.732">
  <g id="Group_28" data-name="Group 28" transform="translate(24.314 18.492)">
    <path id="Path_160" data-name="Path 160" d="M1564.978,104.359q0-.3-.019-.55t-.042-.461q-.023-.21-.042-.39a3.262,3.262,0,0,1-.019-.34.829.829,0,0,1,.061-.246,3.913,3.913,0,0,1,.164-.382q.017-.034.271-.088t.553-.09q.3-.035.5-.038a1.876,1.876,0,0,1-.168-.2c-.05-.068-.1-.129-.144-.184a.888.888,0,0,0-.138-.136.233.233,0,0,0-.145-.053.39.39,0,0,0-.24.09,1.331,1.331,0,0,0-.247.271l-.216-.112a2.022,2.022,0,0,1,.374-.636.6.6,0,0,1,.429-.232.391.391,0,0,1,.247.1,1.561,1.561,0,0,1,.273.318,4.678,4.678,0,0,0,.33.432,1.659,1.659,0,0,0,.31.28l-.242.633a7.717,7.717,0,0,0-.886.056,4.733,4.733,0,0,0-.743.134q.075.4.241,1.162l.074.364A2.221,2.221,0,0,1,1564.978,104.359Z" transform="translate(-1564.857 -99.006)" fill="#fff"/>
    <path id="Path_161" data-name="Path 161" d="M1572.627,102.545a1.523,1.523,0,0,1-.482.784,1.188,1.188,0,0,1-.792.3.831.831,0,0,1-.343-.137,2.761,2.761,0,0,1-.424-.3l.086-.22a2.344,2.344,0,0,0,.582.073,1.332,1.332,0,0,0,.6-.137,1.044,1.044,0,0,0,.427-.375,3.242,3.242,0,0,1-.8-.1.67.67,0,0,1-.356-.251.76.76,0,0,1-.115-.434,1.557,1.557,0,0,1,.115-.589,1.272,1.272,0,0,1,.294-.453.532.532,0,0,1,.364-.169.57.57,0,0,1,.394.176,1.449,1.449,0,0,1,.321.5,2.41,2.41,0,0,1,.169.7h.285c.031,0,.046.015.046.044v.542c0,.029-.016.044-.046.044Zm-.309-.635a1.436,1.436,0,0,0-.278-.548.5.5,0,0,0-.377-.193.371.371,0,0,0-.264.106.327.327,0,0,0-.111.243q0,.293.525.364A4.449,4.449,0,0,0,1572.319,101.911Z" transform="translate(-1567.918 -98.981)" fill="#fff"/>
    <path id="Path_162" data-name="Path 162" d="M1575.52,100.759a.039.039,0,0,1-.044-.044v-.542a.039.039,0,0,1,.044-.044q.646,0,1.024-.04a2.03,2.03,0,0,0,.6-.136,1.482,1.482,0,0,0-.369-.434,4.006,4.006,0,0,0-.656-.452.491.491,0,0,1-.134.02.367.367,0,0,1-.255-.1.316.316,0,0,1-.111-.243,2.247,2.247,0,0,1,.055-.379.83.83,0,0,1,.084-.289q.756-.375.978-.476t.5-.22q.28-.119.441-.183a.349.349,0,0,1,.1.264.478.478,0,0,1-.074.252.518.518,0,0,1-.2.189q-.131.068-.4.187t-.538.213q-.267.094-.639.2a2.46,2.46,0,0,1,.739.33,2,2,0,0,1,.547.516.962.962,0,0,1,.2.545.623.623,0,0,1-.206.468,1.387,1.387,0,0,1-.639.3A4.566,4.566,0,0,1,1575.52,100.759Z" transform="translate(-1570.531 -97.195)" fill="#fff"/>
    <path id="Path_163" data-name="Path 163" d="M1581.77,103.792a.125.125,0,0,1-.039-.09v-.549a.132.132,0,0,1,.129-.129h.548a.133.133,0,0,1,.129.129v.549a.133.133,0,0,1-.129.129h-.548A.124.124,0,0,1,1581.77,103.792Z" transform="translate(-1573.874 -100.31)" fill="#fff"/>
  </g>
  <g id="Group_29" data-name="Group 29" transform="translate(4.259 22.547)">
    <path id="Path_164" data-name="Path 164" d="M1522.258,106.363a1.654,1.654,0,0,1,2.29,0,1.6,1.6,0,0,1,0,2.265,1.654,1.654,0,0,1-2.29,0,1.6,1.6,0,0,1,0-2.265Z" transform="translate(-1521.788 -105.903)" fill="#fff"/>
    <path id="Path_165" data-name="Path 165" d="M1531.71,106.363a1.655,1.655,0,0,1,2.29,0,1.6,1.6,0,0,1,0,2.265,1.655,1.655,0,0,1-2.29,0,1.6,1.6,0,0,1,0-2.265Z" transform="translate(-1526.839 -105.903)" fill="#fff"/>
  </g>
  <path id="Rectangle_8" data-name="Rectangle 8" d="M3.226,0H5.577A3.226,3.226,0,0,1,8.8,3.226v0a0,0,0,0,1,0,0H0a0,0,0,0,1,0,0v0A3.226,3.226,0,0,1,3.226,0Z" transform="translate(7.638 8.192)" fill="#fff"/>
  <g id="Group_30" data-name="Group 30" transform="translate(0 0)">
    <path id="Path_166" data-name="Path 166" d="M1526.733,84.847h-6.459v1.468a1.755,1.755,0,0,0,1.761,1.762h3.816v.44a1.9,1.9,0,0,1-.631,1.5,2.1,2.1,0,0,1-1.424.558h-5.872a1.833,1.833,0,0,1-1.512-.675,2.5,2.5,0,0,1-.543-1.615v-.344a.6.6,0,0,0-.587-.587h-2.055a.6.6,0,0,0-.587.587v.578a5.211,5.211,0,0,0,.411,2.055,5.232,5.232,0,0,0,2.818,2.818,5.2,5.2,0,0,0,2.055.411h5.872a5.2,5.2,0,0,0,2.055-.411,5.23,5.23,0,0,0,2.819-2.818,5.2,5.2,0,0,0,.411-2.055V87.2a2.356,2.356,0,0,0-2.349-2.349Z" transform="translate(-1512.641 -72.105)" fill="#fff"/>
    <path id="Path_167" data-name="Path 167" d="M1608.16,66.674a1.522,1.522,0,0,0,.47,1.132,1.655,1.655,0,0,0,2.29,0,1.6,1.6,0,0,0,0-2.265,1.655,1.655,0,0,0-2.29,0A1.522,1.522,0,0,0,1608.16,66.674Z" transform="translate(-1563.682 -61.543)" fill="#fff"/>
    <path id="Path_168" data-name="Path 168" d="M1601.578,68.267a1.573,1.573,0,0,0,1.145-.46,1.6,1.6,0,0,0,0-2.265,1.654,1.654,0,0,0-2.289,0,1.6,1.6,0,0,0,0,2.265A1.573,1.573,0,0,0,1601.578,68.267Z" transform="translate(-1559.303 -61.543)" fill="#fff"/>
    <path id="Path_169" data-name="Path 169" d="M1605.676,60.667a1.575,1.575,0,0,0,1.145-.46,1.6,1.6,0,0,0,0-2.265,1.655,1.655,0,0,0-2.29,0,1.6,1.6,0,0,0,0,2.265A1.574,1.574,0,0,0,1605.676,60.667Z" transform="translate(-1561.493 -57.482)" fill="#fff"/>
    <path id="Path_170" data-name="Path 170" d="M1583,75.075h-2.055a.6.6,0,0,0-.587.587v5.871h-2.643V75.662a.6.6,0,0,0-.587-.587h-2.055a.6.6,0,0,0-.587.587v5.871h-2.643V75.662a.6.6,0,0,0-.587-.587H1569.2a.6.6,0,0,0-.587.587v5.871h-5.578V75.662a.6.6,0,0,0-.587-.587h-2.055a.6.6,0,0,0-.587.587v5.871h-4.4V75.662a.6.6,0,0,0-.587-.587h-2.055a.6.6,0,0,0-.587.587v9.1a2.085,2.085,0,0,1-.529,1.6,1.959,1.959,0,0,1-1.379.484,4.339,4.339,0,0,1-.851-.088l-.705,2.789a7.877,7.877,0,0,0,2.114.293,5.423,5.423,0,0,0,1.806-.293,3.812,3.812,0,0,0,1.453-.91,4.254,4.254,0,0,0,.969-1.585,6.7,6.7,0,0,0,.353-2.29h25.834a2.356,2.356,0,0,0,2.349-2.349V75.662a.6.6,0,0,0-.587-.587Z" transform="translate(-1531.912 -66.883)" fill="#fff"/>
    <path id="Path_171" data-name="Path 171" d="M1632.331,57.658a.564.564,0,0,0-.411-.176h-2.055a.6.6,0,0,0-.587.587V74.775a.6.6,0,0,0,.587.587h2.055a.6.6,0,0,0,.587-.587V58.069A.564.564,0,0,0,1632.331,57.658Z" transform="translate(-1574.967 -57.482)" fill="#fff"/>
    <path id="Path_172" data-name="Path 172" d="M1566.215,69.136a1.5,1.5,0,0,0,1.09-.438,1.524,1.524,0,0,0,0-2.157,1.576,1.576,0,0,0-2.181,0,1.524,1.524,0,0,0,0,2.157A1.5,1.5,0,0,0,1566.215,69.136Z" transform="translate(-1540.447 -62.089)" fill="#fff"/>
    <path id="Path_173" data-name="Path 173" d="M1574.02,69.136a1.5,1.5,0,0,0,1.09-.438,1.523,1.523,0,0,0,0-2.157,1.576,1.576,0,0,0-2.181,0,1.524,1.524,0,0,0,0,2.157A1.5,1.5,0,0,0,1574.02,69.136Z" transform="translate(-1544.618 -62.089)" fill="#fff"/>
    <path id="Path_174" data-name="Path 174" d="M1632.176,98.988h-.073a1.025,1.025,0,0,1-.433-.077.759.759,0,0,1-.253-.193.456.456,0,0,1-.09-.251.667.667,0,0,1,.036-.193.542.542,0,0,1,.181-.155l.4-.058h.217a.406.406,0,0,0,.307-.1.462.462,0,0,0,.108-.328.387.387,0,0,0-.108-.328.4.4,0,0,0-.307-.115h-.361a1.61,1.61,0,0,0-.542.1,1.19,1.19,0,0,0-.4.212.822.822,0,0,0-.235.328,1.1,1.1,0,0,0-.09.386.886.886,0,0,0,.126.463,1.143,1.143,0,0,0,.325.405h-.163a.279.279,0,0,0-.181.058.166.166,0,0,0-.109.115.656.656,0,0,0-.036.155.462.462,0,0,0,.108.328.381.381,0,0,0,.289.1h1.282a.525.525,0,0,0,.325-.1.579.579,0,0,0,.09-.328.385.385,0,0,0-.109-.328A.488.488,0,0,0,1632.176,98.988Z" transform="translate(-1575.618 -78.703)" fill="#fff"/>
  </g>
</svg>
