<svg xmlns="http://www.w3.org/2000/svg" width="138.396" height="630.152" viewBox="0 0 138.396 630.152">
  <g id="Group_3036" data-name="Group 3036" transform="translate(0.348 630.076) rotate(-90)">
    <rect id="Rectangle_158" data-name="Rectangle 158" width="630" height="137.7" transform="translate(0)" fill="#d4d4d4"/>
    <line id="Line_46" data-name="Line 46" x2="630" y2="137.7" transform="translate(0)" fill="none" stroke="#b1b1b1" stroke-miterlimit="10" stroke-width="0.713"/>
    <line id="Line_47" data-name="Line 47" x1="630" y2="137.7" transform="translate(0)" fill="none" stroke="#b1b1b1" stroke-miterlimit="10" stroke-width="0.713"/>
    <g id="Group_279" data-name="Group 279" transform="translate(29.967 32.474) rotate(90)">
      <path id="Path_1777" data-name="Path 1777" d="M7.232,8.617V9.6H3A3.743,3.743,0,0,1,1.22,9.241,2.031,2.031,0,0,1,.286,8.114,6.25,6.25,0,0,1,0,6.009,6.651,6.651,0,0,1,.273,3.9a2.062,2.062,0,0,1,.9-1.162,3.346,3.346,0,0,1,1.7-.368q.471,0,1.443.049t1.468.106V8.617ZM1.188,7.526a1.508,1.508,0,0,0,.68.829,2.681,2.681,0,0,0,1.3.262H4.8V3.444q-1.119-.085-1.729-.085a1.936,1.936,0,0,0-1.627.609,3.339,3.339,0,0,0-.47,2.012A4.588,4.588,0,0,0,1.188,7.526ZM1.97,0h.966V1.19H1.97ZM3.559,0h.966V1.19H3.559Z" transform="translate(0 0.581)" fill="#757575"/>
      <path id="Path_1778" data-name="Path 1778" d="M4.766,6.109v.978H0V6.109H1.894V0h.978V6.109ZM1.093,8.221h.966v1.19H1.093Zm1.589,0h.966v1.19H2.682Z" transform="translate(7.232 3.089)" fill="#757575"/>
      <path id="Path_1779" data-name="Path 1779" d="M2.873,2.508V9.6H0V8.617H1.894V2.508ZM1.894,0H2.86V1.19H1.894Z" transform="translate(11.998 0.581)" fill="#757575"/>
      <path id="Path_1780" data-name="Path 1780" d="M7.143,9.2v.978H0V9.2H1.627V1.914h.979V9.2h2.44V0h.966V9.2Z" transform="translate(16.396)" fill="#757575"/>
      <path id="Path_1781" data-name="Path 1781" d="M6.7,6.25v.978H0V6.25H2.377a3.845,3.845,0,0,1-.6-1.219,5.637,5.637,0,0,1-.241-1.7A3.908,3.908,0,0,1,2.231.921,2.338,2.338,0,0,1,4.219,0,4.2,4.2,0,0,1,5.281.149,4.262,4.262,0,0,1,6.317.567l-.038.964a2.813,2.813,0,0,0-.813-.354,3.766,3.766,0,0,0-1.131-.2,1.561,1.561,0,0,0-1.348.652A2.973,2.973,0,0,0,2.516,3.4a4.437,4.437,0,0,0,.3,1.665A3.437,3.437,0,0,0,3.558,6.25Z" transform="translate(23.539 2.948)" fill="#757575"/>
      <path id="Path_1782" data-name="Path 1782" d="M0,0H.979V10.176H0Z" transform="translate(31.762)" fill="#757575"/>
      <path id="Path_1783" data-name="Path 1783" d="M7.232,8.617V9.6H3a3.745,3.745,0,0,1-1.78-.354A2.031,2.031,0,0,1,.286,8.114,6.259,6.259,0,0,1,0,6.009,6.663,6.663,0,0,1,.273,3.9a2.068,2.068,0,0,1,.9-1.162,3.35,3.35,0,0,1,1.7-.368q.47,0,1.443.049t1.468.106V8.617ZM1.189,7.526a1.5,1.5,0,0,0,.679.829,2.685,2.685,0,0,0,1.3.262H4.8V3.444q-1.12-.085-1.728-.085a1.936,1.936,0,0,0-1.627.609,3.343,3.343,0,0,0-.47,2.012A4.586,4.586,0,0,0,1.189,7.526ZM1.97,0h.966V1.19H1.97ZM3.559,0h.966V1.19H3.559Z" transform="translate(37.189 0.581)" fill="#757575"/>
      <path id="Path_1784" data-name="Path 1784" d="M6.075,2.424v4.8H0V6.25H5.1V2.409a1.536,1.536,0,0,0-.331-1.07A1.278,1.278,0,0,0,3.775.978,21.308,21.308,0,0,0,1.513,1.2l-.356.043L1.119.439A14.219,14.219,0,0,1,3.991,0Q6.075,0,6.075,2.424Z" transform="translate(44.421 2.948)" fill="#757575"/>
      <path id="Path_1785" data-name="Path 1785" d="M2.173,9.2v.978H0V0H.979V9.2Z" transform="translate(52.402)" fill="#757575"/>
      <path id="Path_1786" data-name="Path 1786" d="M10.778,6.109v.978H7.22a2.016,2.016,0,0,1-1.411-.6,1.448,1.448,0,0,1-1.207.6H0V6.109H2.059V.709h.979v5.4H4.3a.876.876,0,0,0,.845-.559A3.346,3.346,0,0,0,5.4,4.139V.709h.979V4.124a5.632,5.632,0,0,1-.178,1.5,2,2,0,0,0,.483.333,1.282,1.282,0,0,0,.585.149H8.6V3.033q0-.538-.07-1.353T8.376.043L9.177,0q.165.808.286,1.715a11.561,11.561,0,0,1,.12,1.432V6.109Z" transform="translate(54.576 3.089)" fill="#757575"/>
      <path id="Path_1787" data-name="Path 1787" d="M6.66.85A4.321,4.321,0,0,1,7.4,3.685V7.228H0V6.25H2.1a17.386,17.386,0,0,1-.076-4.358A14.945,14.945,0,0,1,2.25.382,4.279,4.279,0,0,1,3.139.12,6.107,6.107,0,0,1,4.372,0,2.87,2.87,0,0,1,6.66.85Zm-3.705,4.3q.057.688.121,1.1H6.419V3.67A3.129,3.129,0,0,0,5.872,1.6,2.1,2.1,0,0,0,4.207.978,3.956,3.956,0,0,0,3.1,1.119,16.344,16.344,0,0,0,2.9,3.77Q2.9,4.465,2.955,5.152Z" transform="translate(65.354 2.948)" fill="#757575"/>
    </g>
  </g>
</svg>
