<svg xmlns="http://www.w3.org/2000/svg" width="28.475" height="28.475" viewBox="0 0 28.475 28.475"><rect width="28.475" height="28.475" rx="12.033" transform="translate(0)" fill="#040b37"/><path d="M980.895,6200.848h-7.933l-.118-1.312a.416.416,0,0,0-.414-.379h-.847a.416.416,0,1,0,0,.833h.465c.255,2.836-.4-4.493.479,5.339a1.606,1.606,0,0,0,.6,1.087,1.263,1.263,0,1,0,2.182.347h2.281a1.263,1.263,0,1,0,1.187-.833h-4.654a.773.773,0,0,1-.711-.47l6.659-.392a.417.417,0,0,0,.38-.315l.847-3.385a.418.418,0,0,0-.4-.519Zm-6.773,6.774a.43.43,0,1,1,.429-.43A.431.431,0,0,1,974.122,6207.622Zm4.656,0a.43.43,0,1,1,.43-.43A.431.431,0,0,1,978.778,6207.622Zm.94-3.369-6.417.377-.265-2.949h7.325Z" transform="translate(-958.968 -6191.221)" fill="#f2f2f2"/><g transform="translate(3.374 4.905)"><g transform="translate(2.185 1.427)"><path d="M970.121,6214a9.974,9.974,0,0,1-4.158-16.531.88.88,0,1,1,1.252,1.236,8.105,8.105,0,0,0-2,3.34,8.214,8.214,0,1,0,15.7,4.853.88.88,0,1,1,1.681.52A9.984,9.984,0,0,1,970.121,6214Z" transform="translate(-963.092 -6197.206)" fill="#f2f2f2"/></g><path d="M966.775,6203.7a.881.881,0,0,1-.618-.891l.292-5.133-4.811,1.907a.879.879,0,0,1-.649-1.634l6.091-2.416a.878.878,0,0,1,1.2.868l-.369,6.507a.879.879,0,0,1-.929.828A.913.913,0,0,1,966.775,6203.7Z" transform="translate(-960.435 -6195.47)" fill="#f2f2f2"/></g></svg>