<svg xmlns="http://www.w3.org/2000/svg" width="28.475" height="28.475" viewBox="0 0 28.475 28.475"><rect width="28.475" height="28.475" rx="12.033" transform="translate(0)" fill="#040b37"/><path d="M1118.638,6200.053h-13.553l-.2-2.244a.712.712,0,0,0-.709-.648h-1.447a.712.712,0,0,0,0,1.424h.8c.435,4.843-.688-7.675.819,9.12a2.742,2.742,0,0,0,1.026,1.857,2.158,2.158,0,1,0,3.728.592h3.9a2.158,2.158,0,1,0,2.029-1.423h-7.95a1.323,1.323,0,0,1-1.215-.8l11.376-.668a.711.711,0,0,0,.649-.538l1.446-5.786a.711.711,0,0,0-.69-.884Zm-11.571,11.57a.735.735,0,1,1,.735-.734A.735.735,0,0,1,1107.067,6211.624Zm7.955,0a.735.735,0,1,1,.734-.734A.735.735,0,0,1,1115.022,6211.624Zm1.605-5.754-10.963.646-.452-5.039h12.514Z" transform="translate(-1096.445 -6190.866)" fill="#f2f2f2"/></svg>