<?xml version="1.0" encoding="utf-8"?>
<!-- Generator: Adobe Illustrator 24.1.3, SVG Export Plug-In . SVG Version: 6.00 Build 0)  -->
<svg version="1.1" id="Layer_1" xmlns="http://www.w3.org/2000/svg" xmlns:xlink="http://www.w3.org/1999/xlink" x="0px" y="0px"
	 viewBox="0 0 32.4 29.7" style="enable-background:new 0 0 32.4 29.7;" xml:space="preserve">
<style type="text/css">
	.st0{fill:#F2F2F2;}
	.st1{fill:#515151;}
	.st2{fill:#040B37;}
	.st3{fill-rule:evenodd;clip-rule:evenodd;fill:#FFFFFF;}
	.st4{fill:#FFFFFF;}
	.st5{opacity:0.22;fill:none;stroke:#FFFFFF;stroke-width:2;stroke-miterlimit:10;}
	.st6{clip-path:url(#SVGID_2_);fill:#FFFFFF;}
	.st7{clip-path:url(#SVGID_2_);fill:#E30520;stroke:#000000;stroke-width:3.671543e-02;}
	.st8{clip-path:url(#SVGID_2_);stroke:#000000;stroke-width:3.671543e-02;}
	.st9{clip-path:url(#SVGID_2_);fill:#FFFFFF;stroke:#FFD039;stroke-width:1.835771e-02;stroke-linecap:round;}
	.st10{clip-path:url(#SVGID_2_);fill:#FFD039;}
	.st11{clip-path:url(#SVGID_2_);fill:none;stroke:#FFD039;stroke-width:1.835771e-02;stroke-linecap:round;stroke-linejoin:round;}
	.st12{clip-path:url(#SVGID_2_);fill:none;stroke:#FFD039;stroke-width:1.835771e-02;stroke-linecap:round;}
	.st13{clip-path:url(#SVGID_2_);fill:#FFD039;stroke:#FFD039;stroke-width:1.835771e-02;stroke-linecap:round;}
	.st14{clip-path:url(#SVGID_2_);}
	.st15{fill:none;stroke:#FFD039;stroke-width:1.835771e-02;stroke-linecap:round;}
	.st16{fill:#FFFFFF;stroke:#FFD039;stroke-width:1.835771e-02;stroke-linecap:round;}
	.st17{fill:#F99F36;}
	.st18{fill:none;stroke:#D2D2D2;stroke-miterlimit:10;}
	.st19{fill:#D2D2D2;}
	.st20{fill:none;stroke:#FFFFFF;stroke-width:1.3048;stroke-linecap:round;stroke-linejoin:round;stroke-miterlimit:10;}
	.st21{opacity:0.5;fill:#040B37;}
	.st22{fill:#E6007E;}
	.st23{fill:none;stroke:#F99F36;stroke-miterlimit:10;}
	.st24{clip-path:url(#SVGID_28_);fill:#E6007E;}
	.st25{clip-path:url(#SVGID_30_);fill:#FFFFFF;}
	.st26{opacity:0.5;clip-path:url(#SVGID_36_);fill:#040B37;}
	.st27{clip-path:url(#SVGID_36_);fill:#FFC805;}
	.st28{fill:#D40B6B;}
	.st29{fill:#BD1328;}
	.st30{fill:#707070;}
	.st31{clip-path:url(#SVGID_48_);fill:#FFFFFF;}
	.st32{clip-path:url(#SVGID_50_);fill:#FFFFFF;}
	.st33{clip-path:url(#SVGID_52_);fill:#FFFFFF;}
	.st34{fill:none;stroke:#FFFFFF;stroke-width:2;stroke-linecap:round;stroke-linejoin:round;stroke-miterlimit:10;}
	.st35{fill:none;stroke:#040B37;stroke-miterlimit:10;}
	.st36{fill:#8190FF;}
	.st37{fill:#D4D4D4;}
	.st38{fill:none;stroke:#B1B1B1;stroke-miterlimit:10;}
	.st39{fill:#757575;}
	.st40{fill:none;stroke:#F99F36;stroke-width:3;stroke-miterlimit:10;}
	.st41{fill:none;stroke:#858287;stroke-miterlimit:10;}
	.st42{fill:none;stroke:#B1B1B1;stroke-width:0.7126;stroke-miterlimit:10;}
	.st43{fill:#D3D3D3;}
	.st44{opacity:0.65;fill:#040B37;}
	.st45{fill:none;stroke:#858287;stroke-width:1.1503;stroke-miterlimit:10;}
</style>
<path class="st4" d="M31,5.4H5.7L5.4,1.2C5.3,0.5,4.7,0,4,0H1.3C0.6,0,0,0.6,0,1.3s0.6,1.3,1.3,1.3h1.5c0.8,9-1.3-14.3,1.5,17
	c0.1,1.2,0.8,2.6,1.9,3.5c-2.1,2.6-0.2,6.5,3.2,6.5c2.8,0,4.7-2.8,3.8-5.4h7.3c-1,2.6,1,5.4,3.8,5.4c2.2,0,4-1.8,4-4s-1.8-4-4-4H9.4
	c-1,0-1.9-0.6-2.3-1.5l21.2-1.2c0.6,0,1.1-0.4,1.2-1l2.7-10.8C32.5,6.2,31.9,5.4,31,5.4L31,5.4z M9.4,27c-0.8,0-1.4-0.6-1.4-1.4
	s0.6-1.4,1.4-1.4c0.8,0,1.4,0.6,1.4,1.4S10.2,27,9.4,27z M24.3,27c-0.8,0-1.4-0.6-1.4-1.4s0.6-1.4,1.4-1.4s1.4,0.6,1.4,1.4
	S25,27,24.3,27z M27.3,16.3L6.8,17.5L6,8.1h23.4L27.3,16.3z"/>
</svg>
