<svg xmlns="http://www.w3.org/2000/svg" width="36.233" height="36.971" viewBox="0 0 36.233 36.971"><g transform="translate(0 0)"><path d="M-52.871,283.5a15.93,15.93,0,0,0-.389-3.784H-70.615v6.862h10.188a9.059,9.059,0,0,1-3.778,6l-.034.226,5.488,4.252.379.039a18.073,18.073,0,0,0,5.5-13.6" transform="translate(89.103 -264.598)" fill="#3283fc"/><path d="M-57.45,295.971a17.627,17.627,0,0,0,12.242-4.478l-5.833-4.517a10.952,10.952,0,0,1-6.409,1.847,11.127,11.127,0,0,1-10.518-7.685l-.217.02-5.7,4.419-.079.207A18.479,18.479,0,0,0-57.45,295.971" transform="translate(75.939 -259)" fill="#00ac47"/><path d="M-66.4,290.734a11.382,11.382,0,0,1-.616-3.655,11.987,11.987,0,0,1,.6-3.655l-.01-.246-5.778-4.483-.192.089a18.512,18.512,0,0,0-1.97,8.3,18.533,18.533,0,0,0,1.97,8.3l6-4.645" transform="translate(74.368 -268.595)" fill="#fb0"/><path d="M-57.45,283.792a10.259,10.259,0,0,1,7.148,2.749l5.217-5.094a17.778,17.778,0,0,0-12.365-4.8,18.479,18.479,0,0,0-16.518,10.187l5.981,4.641a11.166,11.166,0,0,1,10.537-7.68" transform="translate(75.939 -276.644)" fill="#fe2c25"/></g></svg>