<svg xmlns="http://www.w3.org/2000/svg" xmlns:xlink="http://www.w3.org/1999/xlink" width="34.089" height="33.928" viewBox="0 0 34.089 33.928"><defs><radialGradient id="a" cx="0.192" cy="0.995" r="1.089" gradientTransform="translate(0 0)" gradientUnits="objectBoundingBox"><stop offset="0" stop-color="#09f"/><stop offset="0.61" stop-color="#a033ff"/><stop offset="0.935" stop-color="#ff5280"/><stop offset="1" stop-color="#ff7061"/></radialGradient></defs><g transform="translate(0 0)"><path d="M-53.659,252.1c-9.6,0-17.044,7-17.044,16.453a16.059,16.059,0,0,0,5.352,12.172,1.349,1.349,0,0,1,.456.966l.094,3.021a1.36,1.36,0,0,0,1.913,1.2l3.384-1.481a1.374,1.374,0,0,1,.911-.069,18.812,18.812,0,0,0,4.935.654c9.6,0,17.044-7,17.044-16.453S-44.06,252.1-53.659,252.1Z" transform="translate(70.703 -252.101)" fill-rule="evenodd" fill="url(#a)"/><path d="M-68.638,263.9l5.459-6.823a3.275,3.275,0,0,1,4.036-.585l4.347,2.566a1.37,1.37,0,0,0,1.343,0l5.865-3.507c.781-.469,1.8.272,1.282.926l-5.467,6.82a3.269,3.269,0,0,1-4.033.586l-4.347-2.566a1.354,1.354,0,0,0-1.343,0l-5.865,3.507C-68.141,265.292-69.166,264.555-68.638,263.9Z" transform="translate(74.518 -243.222)" fill="#fff" fill-rule="evenodd"/></g></svg>