<svg xmlns="http://www.w3.org/2000/svg" width="36.168" height="36.168" viewBox="0 0 36.168 36.168"><rect width="36.168" height="36.168" rx="18.084" transform="translate(0)" fill="#e60023"/><g transform="translate(7.17 5.797)"><path d="M-71.919,324.539c.216-.821,1.1-4.165,1.1-4.165a4.65,4.65,0,0,0,4.006,2.019c5.277,0,9.081-4.859,9.081-10.9,0-5.794-4.727-10.118-10.795-10.118-7.567,0-11.576,5.073-11.576,10.593,0,2.581,1.37,5.767,3.561,6.789.331.159.52.087.592-.231.057-.244.358-1.44.49-1.987a.524.524,0,0,0-.117-.5,6.838,6.838,0,0,1-1.3-3.994,7.577,7.577,0,0,1,7.913-7.594c4.309,0,7.321,2.924,7.321,7.119,0,4.727-2.392,8.012-5.506,8.012a2.546,2.546,0,0,1-2.594-3.171c.5-2.089,1.455-4.337,1.455-5.836a2.2,2.2,0,0,0-2.221-2.464c-1.758,0-3.171,1.815-3.171,4.252a6.367,6.367,0,0,0,.52,2.594s-1.731,7.336-2.047,8.706a16.851,16.851,0,0,0-.06,5.018c.39.154.786.3,1.191.423A18.981,18.981,0,0,0-71.919,324.539Z" transform="translate(80.105 -301.378)" fill="#fff"/></g></svg>