<svg xmlns="http://www.w3.org/2000/svg" width="36.168" height="36.168" viewBox="0 0 36.168 36.168"><rect width="36.168" height="36.168" rx="18.084" transform="translate(0)" fill="#1da1f2"/><path d="M-90.443,289.456a9.54,9.54,0,0,1-2.648.726,4.565,4.565,0,0,0,2.022-2.542,9.2,9.2,0,0,1-2.914,1.114,4.6,4.6,0,0,0-3.357-1.455,4.6,4.6,0,0,0-4.6,4.6,4.791,4.791,0,0,0,.107,1.047,13.007,13.007,0,0,1-9.474-4.807,4.606,4.606,0,0,0-.629,2.323,4.6,4.6,0,0,0,2.042,3.819,4.543,4.543,0,0,1-2.076-.564v.05a4.618,4.618,0,0,0,3.683,4.516,4.617,4.617,0,0,1-1.206.152,4.194,4.194,0,0,1-.87-.077,4.639,4.639,0,0,0,4.3,3.2,9.242,9.242,0,0,1-5.7,1.962,8.42,8.42,0,0,1-1.1-.065,12.922,12.922,0,0,0,7.052,2.064,12.992,12.992,0,0,0,13.083-13.08c0-.2,0-.4-.015-.594A9.184,9.184,0,0,0-90.443,289.456Z" transform="translate(120.456 -277.777)" fill="#fff"/></svg>