<svg xmlns="http://www.w3.org/2000/svg" width="36.168" height="36.168" viewBox="0 0 36.168 36.168"><rect width="36.168" height="36.168" rx="18.084" transform="translate(0)" fill="#25d366"/><g transform="translate(7.837 7.57)"><path d="M-37.583,295.011a10.357,10.357,0,0,0-7.373-3.056A10.437,10.437,0,0,0-55.38,302.374a10.421,10.421,0,0,0,1.39,5.21l-1.477,5.4,5.525-1.447a10.4,10.4,0,0,0,4.981,1.268h0a10.435,10.435,0,0,0,10.422-10.422A10.353,10.353,0,0,0-37.583,295.011Zm-7.373,16.032h0a8.652,8.652,0,0,1-4.409-1.206l-.316-.189-3.28.86.875-3.2-.206-.328a8.644,8.644,0,0,1-1.323-4.61,8.672,8.672,0,0,1,8.666-8.659,8.6,8.6,0,0,1,6.125,2.539,8.611,8.611,0,0,1,2.536,6.127A8.675,8.675,0,0,1-44.956,311.043Zm4.752-6.485c-.261-.132-1.542-.761-1.78-.848s-.413-.129-.587.129-.671.848-.823,1.022-.3.194-.564.065a7.074,7.074,0,0,1-2.094-1.293,7.762,7.762,0,0,1-1.45-1.8c-.152-.261-.017-.4.114-.532s.261-.3.39-.455a1.809,1.809,0,0,0,.261-.435.478.478,0,0,0-.022-.455c-.065-.132-.587-1.413-.8-1.935s-.425-.438-.587-.445-.326-.01-.5-.01a.958.958,0,0,0-.7.326,2.92,2.92,0,0,0-.91,2.171,5.079,5.079,0,0,0,1.062,2.7,11.656,11.656,0,0,0,4.451,3.931,15.351,15.351,0,0,0,1.485.547,3.556,3.556,0,0,0,1.639.1,2.681,2.681,0,0,0,1.758-1.238,2.174,2.174,0,0,0,.154-1.238C-39.771,304.751-39.945,304.687-40.2,304.558Z" transform="translate(55.467 -291.955)" fill="#fff"/></g></svg>